<svg width="56" height="57" viewBox="0 0 56 57" fill="none" xmlns="http://www.w3.org/2000/svg">
<g clip-path="url(#clip0_1061_68428)">
<g clip-path="url(#clip1_1061_68428)">
<path d="M12.8765 22.8825C12.9177 21.452 12.8008 16.8305 13.1584 16.7755C15.8199 16.3491 23.1441 16.5761 23.4536 16.7755C23.7906 16.9887 26.3902 19.1206 26.3902 19.1206C26.3902 19.1206 42.5309 18.7837 42.5791 19.1206C42.7441 20.2072 42.8266 22.2979 42.8266 23.3914" stroke="#011C67" stroke-width="2.94737" stroke-miterlimit="10" stroke-linecap="round" stroke-linejoin="round"/>
<path d="M48.1427 25.0625C48.1427 25.0625 48.576 23.0613 45.4744 23.0613C44.7179 23.0613 39.8351 23.0613 37.5106 23.0613C30.3377 23.0613 18.4264 23.0613 18.4264 23.0613C16.1019 23.0613 10.4626 23.0613 9.69924 23.0613C6.6045 23.0613 7.03088 25.0625 7.03088 25.0625C7.86303 29.966 10.1187 39.1883 10.889 42.0286C10.9234 42.2899 11.0815 42.5719 11.5148 42.7988C12.5257 43.4109 14.2863 43.2046 14.2863 43.2046C14.2863 43.2046 36.7335 43.2046 41.6507 43.2046C41.6507 43.2046 43.4112 43.4109 44.4222 42.7988C44.8554 42.5719 45.0136 42.2899 45.048 42.0286C45.5431 39.1126 47.6544 29.966 48.1427 25.0625Z" fill="#9A9EF5"/>
</g>
</g>
<defs>
<clipPath id="clip0_1061_68428">
<rect width="56" height="56" fill="white" transform="translate(0 0.885284)"/>
</clipPath>
<clipPath id="clip1_1061_68428">
<rect width="56" height="56" fill="white" transform="translate(0 0.885284)"/>
</clipPath>
</defs>
</svg>
