<svg width="56" height="57" viewBox="0 0 56 57" fill="none" xmlns="http://www.w3.org/2000/svg">
<g clip-path="url(#clip0_1061_68420)">
<path d="M42.793 12.2227C47.2907 14.7535 50.1654 20.6817 48.2054 25.4544C45.9359 31.0043 28.2753 47.8053 28.2753 47.8053C28.2753 47.8053 9.76186 33.5695 8.09758 25.4544C7.06601 20.3997 9.01913 14.7535 13.5168 12.2227C18.0145 9.69189 25.0224 9.84319 28.0621 16.1083C33.3713 8.13764 42.793 12.2227 42.793 12.2227Z" fill="#9A9EF5"/>
<path d="M25.0292 43.7889C19.8506 39.4357 10.4495 30.9011 9.31476 25.3787C8.3382 20.5922 10.1813 15.2417 14.4383 12.8484" stroke="#011C67" stroke-width="2.94737" stroke-miterlimit="10" stroke-linecap="round" stroke-linejoin="round"/>
<path d="M40.5442 15.5444C41.5551 15.7438 42.4698 16.3697 43.0269 17.2362C43.5839 18.1027 43.7765 19.1893 43.5426 20.1934" stroke="#011C67" stroke-width="2.94737" stroke-miterlimit="10" stroke-linecap="round" stroke-linejoin="round"/>
</g>
<defs>
<clipPath id="clip0_1061_68420">
<rect width="56" height="56" fill="white" transform="translate(0 0.885284)"/>
</clipPath>
</defs>
</svg>
