<svg width="330" height="330" viewBox="0 0 330 330" fill="none" xmlns="http://www.w3.org/2000/svg">
<path d="M240.74 93.4673H207.641V141.443H240.74V93.4673Z" fill="#E0E0E0"/>
<path d="M239.079 93.4673H205.98V141.443H239.079V93.4673Z" fill="#F5F5F5"/>
<path d="M234.968 98.6635H210.094V136.247H234.968V98.6635Z" fill="white"/>
<path d="M234.969 136.247C234.969 136.247 234.966 136.184 234.964 136.064C234.963 135.94 234.962 135.763 234.96 135.53C234.957 135.058 234.954 134.367 234.95 133.469C234.945 131.668 234.937 129.043 234.927 125.727C234.918 119.1 234.904 109.716 234.887 98.6641L234.969 98.7466C227.369 98.7486 218.948 98.7512 210.098 98.7538H210.095L210.185 98.6641C210.178 112.842 210.172 125.914 210.166 136.248L210.094 136.176C217.67 136.192 223.879 136.205 228.199 136.213C230.361 136.221 232.049 136.227 233.202 136.232C233.774 136.235 234.213 136.238 234.514 136.24C234.812 136.242 234.969 136.247 234.969 136.247C234.969 136.247 234.823 136.252 234.53 136.255C234.232 136.257 233.798 136.26 233.231 136.263C232.082 136.267 230.399 136.274 228.244 136.281C223.913 136.291 217.688 136.303 210.094 136.319H210.022V136.247C210.017 125.914 210.011 112.842 210.004 98.6634V98.573H210.094H210.097C218.948 98.5756 227.369 98.5783 234.968 98.5803H235.051V98.6628C235.034 109.736 235.021 119.14 235.01 125.78C235.001 129.088 234.993 131.707 234.988 133.503C234.983 134.394 234.98 135.08 234.978 135.548C234.976 135.776 234.974 135.95 234.973 136.072C234.972 136.19 234.969 136.247 234.969 136.247Z" fill="#E0E0E0"/>
<path d="M239.176 93.4673C239.195 93.4825 238.971 93.8105 238.586 94.3246C238.201 94.8387 237.656 95.5383 237.033 96.294C236.41 97.0504 235.828 97.7203 235.397 98.1962C234.966 98.672 234.687 98.9552 234.669 98.9393C234.65 98.9228 234.895 98.61 235.301 98.113C235.744 97.5745 236.291 96.9125 236.895 96.1799C237.498 95.4473 238.043 94.784 238.486 94.2454C238.896 93.7517 239.156 93.4514 239.176 93.4673Z" fill="#E0E0E0"/>
<path d="M235.098 136.126C236.333 138.091 237.792 139.914 239.437 141.552L235.098 136.126Z" fill="white"/>
<path d="M239.434 141.552C239.418 141.568 239.123 141.312 238.678 140.863C238.233 140.415 237.643 139.77 237.041 139.017C236.439 138.263 235.939 137.547 235.6 137.014C235.261 136.481 235.075 136.137 235.095 136.125C235.118 136.111 235.34 136.431 235.706 136.943C236.071 137.455 236.583 138.155 237.181 138.904C237.78 139.653 238.351 140.307 238.77 140.775C239.19 141.245 239.453 141.533 239.434 141.552Z" fill="#E0E0E0"/>
<path d="M205.977 141.405C207.422 139.622 208.867 137.839 210.312 136.056L205.977 141.405Z" fill="white"/>
<path d="M210.313 136.056C210.352 136.087 209.412 137.31 208.216 138.787C207.019 140.265 206.017 141.436 205.978 141.405C205.939 141.374 206.878 140.151 208.076 138.674C209.272 137.197 210.274 136.025 210.313 136.056Z" fill="#E0E0E0"/>
<path d="M205.982 93.4673C206.021 93.4363 206.963 94.5629 208.086 95.9832C209.209 97.4035 210.088 98.5797 210.049 98.6107C210.01 98.6417 209.069 97.5151 207.945 96.0948C206.822 94.6744 205.943 93.4977 205.982 93.4673Z" fill="#E0E0E0"/>
<path d="M227.22 106.294H218.891V129.943H227.22V106.294Z" fill="#E0E0E0"/>
<path d="M174.895 227.716C171.86 228.598 169.405 230.988 167.968 233.804C166.531 236.62 166.025 239.832 165.982 242.992C165.899 249.108 168.551 255.63 171.627 260.917C177.267 257.131 179.418 249.551 180.267 245.636C181.611 239.449 180.281 227.453 174.895 227.716Z" fill="#F5F5F5"/>
<path d="M164.462 270.116C165.708 266.812 164.765 262.894 162.446 260.231C160.127 257.568 156.598 256.116 153.071 255.94C151.44 255.858 149.635 256.107 148.541 257.319C147.518 258.452 147.395 260.199 147.925 261.631C148.456 263.062 149.543 264.22 150.723 265.187C154.771 268.507 159.298 270.977 164.462 270.116Z" fill="#F5F5F5"/>
<path d="M168.695 284.826C168.777 284.816 168.761 283.279 168.512 280.786C168.387 279.538 168.059 278.045 167.506 276.483C166.945 274.93 166.364 273.207 165.482 271.484C163.756 268.031 161.289 265.411 159.199 263.999C158.157 263.281 157.228 262.844 156.583 262.571C155.923 262.324 155.549 262.222 155.532 262.264C155.483 262.378 156.95 262.906 158.913 264.391C160.871 265.863 163.19 268.435 164.871 271.795C165.724 273.455 166.323 275.167 166.91 276.694C167.488 278.224 167.847 279.63 168.032 280.853C168.4 283.3 168.589 284.839 168.695 284.826Z" fill="#E0E0E0"/>
<path d="M175.102 236.941C175.056 236.933 174.895 237.644 174.644 238.935C174.392 240.226 174.054 242.099 173.656 244.416C172.862 249.05 171.835 255.467 170.875 262.579C169.917 269.695 169.23 276.159 168.832 280.847C168.633 283.19 168.494 285.088 168.425 286.402C168.352 287.716 168.335 288.444 168.382 288.448C168.428 288.452 168.536 287.731 168.69 286.426C168.851 284.997 169.061 283.136 169.314 280.895C169.836 276.225 170.597 269.778 171.554 262.671C172.553 255.631 173.458 249.263 174.135 244.492C174.448 242.257 174.708 240.402 174.907 238.977C175.077 237.673 175.149 236.949 175.102 236.941Z" fill="#E0E0E0"/>
<path d="M171.831 273.408C174.876 266.614 181.397 261.491 188.718 260.141C190.583 259.797 192.878 259.864 193.903 261.459C194.929 263.057 194.027 265.182 192.899 266.71C188.209 273.069 179.419 276.076 171.816 273.921" fill="#F5F5F5"/>
<path d="M186.135 265.057C186.121 265.012 185.746 265.094 185.082 265.283C184.415 265.463 183.469 265.785 182.31 266.217C180.032 267.128 176.817 268.528 173.984 271.126C172.577 272.422 171.463 273.898 170.669 275.354C169.867 276.812 169.444 278.257 169.157 279.466C168.912 280.687 168.786 281.687 168.788 282.381C168.767 283.074 168.777 283.456 168.825 283.458C168.962 283.469 169.017 281.934 169.627 279.581C169.966 278.419 170.422 277.041 171.222 275.658C172.015 274.277 173.093 272.879 174.449 271.63C177.174 269.126 180.287 267.678 182.497 266.665C184.739 265.686 186.171 265.161 186.135 265.057Z" fill="#E0E0E0"/>
<path d="M300.69 112.044C300.69 112.044 293.771 110.002 290.973 125.912C288.176 141.822 287.949 150.573 287.949 150.573C287.949 150.573 286.979 154.024 284.421 152.747C281.863 151.469 277.513 146.953 274.44 148.947C271.254 151.015 271.299 155.264 273.718 160.785C276.138 166.308 280.995 178.6 281.431 179.713C281.858 180.806 281.722 182.65 279.84 182.06C277.958 181.468 265.961 174.246 262.875 180.144C259.789 186.042 269.058 200.318 270.041 201.898C271.025 203.478 270.913 204.316 270.227 204.991C269.54 205.667 265.736 202.86 262.24 200.946C258.743 199.032 254.354 197.425 252.859 200.977C251.363 204.529 254.204 216.501 271.219 232.147L279.578 238.881L289.696 235.157C310.862 225.867 317.429 215.462 317.165 211.617C316.901 207.772 312.228 207.87 308.3 208.548C304.373 209.226 299.864 210.65 299.433 209.788C299.003 208.926 299.168 208.097 300.611 206.921C302.053 205.745 315.448 195.243 314.44 188.664C313.431 182.084 299.741 185.028 297.769 184.978C295.797 184.927 296.266 183.139 297.024 182.243C297.796 181.331 306.375 171.275 310.454 166.836C314.533 162.396 315.951 158.39 313.607 155.402C311.347 152.52 305.768 155.383 302.934 155.762C300.1 156.142 300.3 152.562 300.3 152.562C300.3 152.562 302.921 144.211 305.43 128.253C307.939 112.294 300.549 112.012 300.549 112.012" fill="#F5F5F5"/>
<path d="M298.158 126.288C298.158 126.288 298.153 126.403 298.124 126.625C298.091 126.862 298.045 127.189 297.986 127.609C297.856 128.49 297.667 129.76 297.425 131.388C296.934 134.669 296.188 139.411 295.243 145.267C293.357 156.98 290.614 173.139 287.527 190.974C284.437 208.816 281.655 224.967 279.704 236.669C278.737 242.509 277.953 247.239 277.408 250.528C277.136 252.151 276.925 253.418 276.779 254.295C276.705 254.713 276.648 255.038 276.606 255.274C276.566 255.493 276.535 255.605 276.535 255.605C276.535 255.605 276.54 255.49 276.569 255.268C276.602 255.031 276.648 254.704 276.707 254.284C276.837 253.403 277.026 252.133 277.268 250.505C277.759 247.224 278.505 242.482 279.45 236.626C281.336 224.912 284.079 208.753 287.168 190.912C290.257 173.077 293.039 156.927 294.989 145.225C295.957 139.386 296.741 134.654 297.286 131.365C297.557 129.742 297.768 128.475 297.915 127.597C297.989 127.179 298.047 126.854 298.088 126.618C298.128 126.399 298.158 126.288 298.158 126.288Z" fill="#E0E0E0"/>
<path d="M280.272 155.509C280.293 155.495 280.462 155.714 280.749 156.122C281.038 156.529 281.438 157.13 281.924 157.878C282.894 159.375 284.179 161.478 285.554 163.825C286.896 166.139 288.109 168.231 289.046 169.848C289.464 170.563 289.821 171.17 290.112 171.667C290.365 172.096 290.496 172.341 290.475 172.354C290.454 172.368 290.283 172.15 289.993 171.744C289.705 171.336 289.305 170.735 288.826 169.982C287.871 168.475 286.614 166.356 285.24 164.009C283.882 161.706 282.654 159.623 281.705 158.014C281.283 157.301 280.924 156.695 280.629 156.199C280.379 155.767 280.251 155.523 280.272 155.509Z" fill="#E0E0E0"/>
<path d="M291.473 172.248C291.418 172.163 295.635 169.32 300.89 165.898C306.147 162.476 310.451 159.77 310.506 159.854C310.561 159.939 306.345 162.781 301.088 166.203C295.834 169.625 291.528 172.332 291.473 172.248Z" fill="#E0E0E0"/>
<path d="M285.496 199.427C285.49 199.403 285.756 199.307 286.241 199.154C286.802 198.984 287.491 198.774 288.302 198.526C290.04 197.994 292.439 197.252 295.056 196.338C297.676 195.429 300.019 194.527 301.711 193.861C302.5 193.551 303.17 193.289 303.717 193.075C304.192 192.892 304.459 192.802 304.47 192.825C304.48 192.848 304.232 192.982 303.773 193.205C303.314 193.427 302.645 193.736 301.809 194.098C300.14 194.827 297.804 195.771 295.176 196.682C292.55 197.6 290.132 198.305 288.372 198.774C287.491 199.005 286.777 199.184 286.278 199.292C285.781 199.402 285.503 199.451 285.496 199.427Z" fill="#E0E0E0"/>
<path d="M272.032 186.517C272.05 186.498 272.256 186.659 272.615 186.964C272.973 187.269 273.483 187.719 274.109 188.281C275.359 189.405 277.07 190.976 278.944 192.727C280.819 194.48 282.502 196.08 283.707 197.252C284.31 197.838 284.794 198.317 285.122 198.654C285.451 198.991 285.624 199.186 285.607 199.205C285.59 199.223 285.384 199.063 285.026 198.758C284.667 198.453 284.157 198.003 283.532 197.44C282.281 196.316 280.57 194.746 278.695 192.993C276.821 191.242 275.138 189.641 273.933 188.469C273.33 187.883 272.846 187.405 272.518 187.067C272.189 186.73 272.015 186.535 272.032 186.517Z" fill="#E0E0E0"/>
<path d="M263.704 209.84C263.721 209.822 263.983 210.029 264.441 210.421C264.949 210.865 265.592 211.429 266.361 212.102C267.972 213.535 270.179 215.531 272.603 217.753C275.027 219.975 277.208 222.002 278.773 223.483C279.51 224.19 280.128 224.783 280.615 225.25C281.044 225.673 281.273 225.915 281.256 225.934C281.239 225.952 280.978 225.745 280.519 225.354C280.012 224.91 279.368 224.345 278.599 223.672C276.988 222.24 274.78 220.243 272.356 218.021C269.932 215.799 267.752 213.772 266.186 212.292C265.448 211.584 264.831 210.992 264.344 210.525C263.917 210.102 263.687 209.859 263.704 209.84Z" fill="#E0E0E0"/>
<path d="M280.945 225.432C280.938 225.409 281.271 225.279 281.881 225.065C282.556 224.832 283.424 224.533 284.465 224.175C286.646 223.423 289.655 222.375 292.944 221.125C296.236 219.88 299.187 218.676 301.318 217.791C302.335 217.37 303.183 217.019 303.843 216.746C304.441 216.503 304.776 216.378 304.787 216.401C304.797 216.424 304.481 216.592 303.901 216.875C303.321 217.159 302.474 217.555 301.42 218.027C299.313 218.974 296.372 220.217 293.074 221.464C289.778 222.716 286.749 223.728 284.546 224.419C283.443 224.761 282.547 225.028 281.924 225.199C281.301 225.372 280.953 225.456 280.945 225.432Z" fill="#E0E0E0"/>
<path d="M68.5354 253.008C83.7722 244.315 88.7222 226.043 89.6851 209.298C89.8462 206.503 90.421 203.594 89.3202 201.027C88.218 198.461 85.279 196.507 82.6766 197.452C80.5177 198.237 79.3957 200.561 78.0559 202.446C76.2733 204.953 73.7778 206.934 70.9491 208.089C69.0905 208.847 66.8432 209.209 65.1807 208.082C62.899 206.536 62.9195 203.19 63.1908 200.419C63.697 195.256 64.2019 190.094 64.7074 184.933C64.9787 182.163 65.246 179.334 64.6249 176.625C64.0039 173.916 62.3235 171.298 59.7548 170.318C57.1854 169.339 53.7864 170.56 52.9812 173.221C52.6459 174.329 52.7687 175.522 52.5865 176.664C52.4044 177.808 51.7516 179.032 50.6296 179.252C49.4938 179.476 48.4569 178.588 47.7025 177.701C45.0982 174.641 43.4878 170.858 42.0021 167.107C40.5165 163.357 39.0922 159.525 36.7762 156.235C34.4603 152.945 31.0923 150.198 27.1442 149.61C23.1954 149.021 18.7424 151.083 17.3828 154.888C16.0192 158.702 17.9352 162.876 20.1258 166.265C23.3756 171.294 27.3488 175.843 31.8804 179.723C32.6968 180.423 33.5825 181.179 33.8227 182.237C34.2557 184.139 32.3364 185.814 30.4567 186.254C28.3282 186.753 26.106 186.333 23.9221 186.389C21.7381 186.445 19.3093 187.185 18.3048 189.151C16.9102 191.88 19.0071 195.066 21.16 197.224C25.4704 201.546 30.5188 205.11 36.0139 207.714C37.984 208.647 40.0696 209.498 41.5824 211.081C43.0951 212.664 43.8587 215.245 42.6872 217.106C41.5144 218.97 38.9074 219.361 36.8086 218.768C34.7104 218.177 32.9047 216.842 30.9399 215.888C27.263 214.101 22.3209 213.913 19.5799 216.982C17.7788 218.998 17.361 221.998 17.9359 224.652C18.5101 227.305 19.9509 229.677 21.5098 231.886C26.9574 239.606 34.2432 246.088 42.7981 249.961C51.351 253.835 59.4611 255.414 68.5354 253.008Z" fill="#F5F5F5"/>
<path d="M67.6219 265.403C67.6232 258.735 66.8886 250.793 65.1865 242.148C63.5015 233.499 60.8681 224.171 57.7787 214.51C56.9972 212.098 56.225 209.714 55.4647 207.365C54.6998 205.022 53.9414 202.697 53.059 200.471C51.3133 196.008 49.2957 191.85 47.2563 187.963C45.2182 184.074 43.1425 180.458 41.177 177.091C39.203 173.727 37.3048 170.626 35.4535 167.874C31.7674 162.352 28.274 158.26 25.7614 155.548C24.5081 154.187 23.5009 153.163 22.8086 152.479C22.4753 152.153 22.2139 151.897 22.0166 151.705C21.8357 151.533 21.7407 151.448 21.7347 151.454C21.7281 151.461 21.8113 151.558 21.9796 151.742C22.1677 151.943 22.4178 152.211 22.7353 152.551C23.4026 153.259 24.386 154.304 25.6162 155.684C28.08 158.434 31.5179 162.548 35.1545 168.078C36.9814 170.836 38.8578 173.94 40.812 177.309C42.7604 180.684 44.8196 184.302 46.8418 188.187C48.864 192.07 50.8645 196.217 52.5937 200.657C53.4675 202.874 54.2173 205.178 54.9822 207.527C55.7419 209.875 56.5121 212.258 57.2929 214.669C60.3791 224.323 63.0197 233.624 64.7258 242.243C66.4471 250.855 67.216 258.761 67.2609 265.405" fill="#E0E0E0"/>
<path d="M52.9152 200.437C52.9489 200.446 53.0815 200.033 53.294 199.28C53.5099 198.527 53.7857 197.429 54.1072 196.066C54.752 193.343 55.5136 189.551 56.338 185.368C57.1623 181.183 57.9761 177.413 58.6605 174.707C58.9991 173.354 59.2835 172.26 59.4901 171.507C59.6927 170.752 59.7891 170.33 59.7554 170.318C59.7218 170.308 59.5621 170.71 59.3007 171.448C59.0347 172.184 58.6961 173.266 58.3127 174.612C57.5359 177.304 56.6627 181.077 55.8377 185.267C55.0351 189.397 54.3091 193.133 53.7547 195.988C53.496 197.276 53.2769 198.361 53.1013 199.232C52.9489 200 52.8802 200.429 52.9152 200.437Z" fill="#E0E0E0"/>
<path d="M17.8946 190.514C17.8906 190.549 18.3922 190.655 19.3004 190.815C20.2072 190.98 21.5206 191.212 23.1336 191.551C26.365 192.202 30.7969 193.258 35.6354 194.637C40.4732 196.025 44.7975 197.467 47.8949 198.601C49.4485 199.156 50.6933 199.64 51.5559 199.969C52.4172 200.302 52.9003 200.47 52.9148 200.438C52.9287 200.404 52.4713 200.174 51.6318 199.783C50.7909 199.396 49.5633 198.859 48.0216 198.257C44.948 197.032 40.6263 195.53 35.7746 194.137C30.9216 192.755 26.4594 191.751 23.201 191.19C21.5741 190.897 20.2475 190.719 19.3287 190.615C18.4094 190.516 17.8998 190.478 17.8946 190.514Z" fill="#E0E0E0"/>
<path d="M64.8068 241.453C64.822 241.462 64.9196 241.32 65.0906 241.041C65.2873 240.708 65.5275 240.301 65.8179 239.808C66.4449 238.735 67.3115 237.157 68.3563 235.195C70.4491 231.271 73.1696 225.759 76.0895 219.637C79.0113 213.512 81.6764 207.983 83.6848 204.021C84.6668 202.095 85.476 200.511 86.0766 199.334C86.334 198.822 86.5465 198.401 86.7208 198.055C86.8627 197.76 86.93 197.601 86.9148 197.592C86.899 197.584 86.8019 197.725 86.6303 198.005C86.4337 198.338 86.1941 198.744 85.903 199.237C85.276 200.311 84.4094 201.887 83.3647 203.85C81.2718 207.775 78.5513 213.286 75.6301 219.411C72.7096 225.534 70.0439 231.063 68.0362 235.026C67.0528 236.951 66.2449 238.535 65.6443 239.711C65.3863 240.223 65.1744 240.645 65.0002 240.99C64.8589 241.285 64.7916 241.444 64.8068 241.453Z" fill="#E0E0E0"/>
<path d="M18.8595 221.855C18.8536 221.872 19.0094 221.953 19.3116 222.092C19.6707 222.25 20.1109 222.444 20.6448 222.679C21.8771 223.207 23.5409 223.92 25.5645 224.786C29.7179 226.567 35.4269 229.092 41.7305 231.89C48.0362 234.691 53.7742 237.166 57.9659 238.861C60.0614 239.709 61.7642 240.378 62.9495 240.816C63.498 241.016 63.9507 241.179 64.3184 241.313C64.6332 241.421 64.8021 241.47 64.8087 241.453C64.8147 241.437 64.6589 241.355 64.3566 241.216C63.9989 241.058 63.558 240.865 63.0234 240.629C61.7912 240.101 60.1287 239.389 58.1045 238.522C53.9504 236.742 48.2414 234.216 41.9358 231.417C35.6315 228.617 29.8947 226.142 25.7031 224.448C23.6076 223.599 21.9048 222.93 20.7181 222.492C20.1696 222.293 19.7182 222.128 19.3499 221.995C19.0351 221.887 18.8668 221.839 18.8595 221.855Z" fill="#E0E0E0"/>
<path d="M115.393 53.9247V108.398H37.1548L34.3359 54.3062L115.393 53.9247Z" fill="#E0E0E0"/>
<path d="M34.3359 54.3056V108.283H112.574V54.3056L34.3359 54.3056Z" fill="white"/>
<path d="M112.945 108.655H33.9648V53.9346H112.945V108.655ZM34.7067 107.912H112.203V54.6771H34.7067V107.912Z" fill="#E0E0E0"/>
<path d="M104.103 61.0117H42.8125V101.577H104.103V61.0117Z" fill="white"/>
<path d="M104.101 61.0118C104.101 61.0118 103.995 61.019 103.799 61.0223C103.591 61.025 103.303 61.0283 102.927 61.0329C102.151 61.0375 101.023 61.0448 99.5613 61.0547C96.6177 61.0659 92.337 61.0817 86.9309 61.1022C76.1221 61.1233 60.8233 61.1537 42.8106 61.1893L42.9881 61.0118C42.9927 73.4052 42.998 87.1379 43.0039 101.571V101.576L42.8106 101.383C65.931 101.397 87.247 101.411 104.101 101.422L103.947 101.575C103.981 89.2307 104.008 79.109 104.028 72.0608C104.045 68.5377 104.059 65.7856 104.067 63.8993C104.074 62.9674 104.08 62.2513 104.084 61.7543C104.09 61.2705 104.101 61.0118 104.101 61.0118C104.101 61.0118 104.112 61.2481 104.117 61.7239C104.121 62.2143 104.127 62.9198 104.134 63.8399C104.144 65.7182 104.157 68.4592 104.173 71.9664C104.193 79.0377 104.22 89.1918 104.255 101.577L104.255 101.73H104.101C87.247 101.741 65.931 101.755 42.8106 101.769H42.6172V101.576V101.571C42.6231 87.1379 42.6284 73.4052 42.633 61.0118V60.8342L42.8106 60.8349C60.8708 60.8705 76.2099 60.9009 87.0471 60.922C92.436 60.9425 96.7029 60.9583 99.6372 60.9695C101.084 60.9788 102.199 60.986 102.968 60.9913C103.335 60.9959 103.616 60.9992 103.819 61.0019C104.009 61.0052 104.101 61.0118 104.101 61.0118Z" fill="#E0E0E0"/>
<path d="M34.3339 54.1543C34.3669 54.1121 34.8784 54.448 35.679 55.0255C36.4795 55.6037 37.5692 56.4234 38.746 57.3646C39.9228 58.307 40.9583 59.198 41.6869 59.8653C42.4156 60.5326 42.8419 60.9728 42.8076 61.0117C42.735 61.0936 40.854 59.5426 38.5044 57.6662C36.1535 55.7924 34.2646 54.2428 34.3339 54.1543Z" fill="#E0E0E0"/>
<path d="M112.573 54.3061C112.639 54.3899 110.796 55.9588 108.457 57.8107C106.116 59.6627 104.166 61.0962 104.099 61.0124C104.033 60.9285 105.876 59.3597 108.216 57.5078C110.556 55.6558 112.507 54.2223 112.573 54.3061Z" fill="#E0E0E0"/>
<path d="M112.508 108.291C109.6 105.934 106.693 103.577 103.785 101.221L112.508 108.291Z" fill="white"/>
<path d="M103.787 101.221C103.854 101.138 105.861 102.654 108.27 104.605C110.679 106.558 112.577 108.208 112.51 108.291C112.443 108.374 110.436 106.859 108.027 104.906C105.618 102.953 103.72 101.303 103.787 101.221Z" fill="#E0E0E0"/>
<path d="M34.3377 108.283C34.2717 108.199 36.0953 106.646 38.4112 104.815C40.7278 102.982 42.659 101.565 42.725 101.649C42.791 101.733 40.9674 103.285 38.6508 105.118C36.3348 106.95 34.4037 108.367 34.3377 108.283Z" fill="#E0E0E0"/>
<path d="M55.2539 73.6502V87.233H93.819V73.6502H55.2539Z" fill="#E0E0E0"/>
<path d="M296.055 41.2645H254.223V101.898H296.055V41.2645Z" fill="#E0E0E0"/>
<path d="M293.957 41.2645H252.125V101.898H293.957V41.2645Z" fill="#F5F5F5"/>
<path d="M288.761 47.8315H257.324V95.3311H288.761V47.8315Z" fill="white"/>
<path d="M288.762 95.3311C288.762 95.3311 288.758 95.2506 288.756 95.0988C288.754 94.9417 288.752 94.718 288.75 94.4256C288.747 93.829 288.742 92.9545 288.737 91.8199C288.731 89.5436 288.721 86.2258 288.709 82.0354C288.697 73.6594 288.679 61.7992 288.658 47.8316L288.762 47.9359C279.157 47.9385 268.515 47.9418 257.328 47.9451H257.324L257.438 47.8316C257.429 65.7506 257.421 82.2717 257.415 95.3311L257.324 95.2407C266.898 95.2605 274.746 95.277 280.207 95.2882C282.938 95.2981 285.072 95.306 286.529 95.3113C287.253 95.3159 287.808 95.3192 288.188 95.3212C288.564 95.3245 288.762 95.3311 288.762 95.3311C288.762 95.3311 288.577 95.3377 288.207 95.341C287.83 95.343 287.281 95.347 286.564 95.3509C285.112 95.3562 282.986 95.3641 280.263 95.374C274.789 95.3852 266.922 95.4017 257.324 95.4215H257.234V95.3305C257.227 82.271 257.22 65.7499 257.211 47.8309V47.7174H257.325H257.329C268.515 47.7207 279.158 47.724 288.763 47.7266H288.867V47.8309C288.846 61.8262 288.828 73.7108 288.816 82.1034C288.804 86.2838 288.794 89.5937 288.787 91.8641C288.782 92.9894 288.777 93.8567 288.775 94.4487C288.772 94.7365 288.77 94.9562 288.769 95.1107C288.766 95.2592 288.762 95.3311 288.762 95.3311Z" fill="#E0E0E0"/>
<path d="M294.073 41.2645C294.097 41.2837 293.813 41.6982 293.327 42.3476C292.841 42.9977 292.151 43.8814 291.364 44.8371C290.577 45.7928 289.841 46.6396 289.296 47.2408C288.752 47.8421 288.399 48.2005 288.376 48.18C288.353 48.1589 288.661 47.7636 289.175 47.1359C289.736 46.4554 290.426 45.6186 291.189 44.6926C291.952 43.7666 292.641 42.9291 293.202 42.2479C293.719 41.6242 294.048 41.2447 294.073 41.2645Z" fill="#E0E0E0"/>
<path d="M288.918 95.178C290.48 97.6609 292.323 99.9663 294.401 102.035L288.918 95.178Z" fill="white"/>
<path d="M294.403 102.035C294.383 102.057 294.009 101.732 293.447 101.166C292.885 100.599 292.14 99.7841 291.379 98.8324C290.618 97.88 289.987 96.9738 289.558 96.3013C289.129 95.6281 288.895 95.1932 288.92 95.1773C288.948 95.1595 289.23 95.5641 289.691 96.2109C290.153 96.8584 290.8 97.7434 291.556 98.6905C292.313 99.6363 293.034 100.463 293.564 101.055C294.094 101.648 294.427 102.012 294.403 102.035Z" fill="#E0E0E0"/>
<path d="M252.117 101.85C253.943 99.5966 255.77 97.3427 257.596 95.0895L252.117 101.85Z" fill="white"/>
<path d="M257.598 95.0895C257.647 95.1291 256.459 96.6748 254.947 98.5413C253.433 100.408 252.167 101.89 252.119 101.85C252.07 101.81 253.256 100.265 254.77 98.3981C256.283 96.5316 257.55 95.0499 257.598 95.0895Z" fill="#E0E0E0"/>
<path d="M252.127 41.2646C252.176 41.2256 253.367 42.6493 254.786 44.4438C256.206 46.239 257.317 47.7253 257.267 47.7643C257.218 47.8032 256.027 46.3802 254.608 44.5844C253.188 42.7905 252.077 41.3035 252.127 41.2646Z" fill="#E0E0E0"/>
<path d="M278.964 57.4762H268.438V87.3636H278.964V57.4762Z" fill="#E0E0E0"/>
<path d="M304.87 288.448C304.87 288.543 240.579 288.619 161.29 288.619C81.9727 288.619 17.6953 288.542 17.6953 288.448C17.6953 288.353 81.9727 288.276 161.29 288.276C240.579 288.276 304.87 288.353 304.87 288.448Z" fill="#263238"/>
<path d="M224.202 174.242C225.228 178.201 223.861 182.683 220.799 185.393C218.788 187.173 216.165 188.205 214.331 190.166C211.971 192.691 211.291 196.556 212.323 199.854C213.356 203.152 215.955 205.848 219.073 207.339C223.325 209.372 228.563 209.194 232.666 206.875C237.77 203.991 240.741 198.207 241.494 192.392C242.246 186.577 241.063 180.689 239.529 175.031" fill="#263238"/>
<path d="M288.543 276.768C293.826 275.904 298.775 277.517 304.001 278.674C305.41 278.987 306.884 279.259 308.282 278.902C310.547 278.325 312.158 276.12 312.508 273.809C312.812 271.807 312.29 269.712 311.173 268.023C310.7 267.309 310.11 266.651 309.365 266.228C308.601 265.793 307.714 265.626 306.839 265.541C303.658 265.234 300.424 265.942 297.53 267.297C294.635 268.652 292.066 270.636 289.807 272.897C288.701 274.003 289.033 275.283 288.543 276.768Z" fill="#263238"/>
<path d="M181.473 191.554C180.63 186.542 180.735 181.374 181.78 176.401C182.288 173.981 183.034 171.571 184.389 169.502C184.882 168.749 185.49 168.018 186.326 167.684C187.48 167.224 188.854 167.649 189.765 168.495C190.955 169.6 191.447 171.305 191.396 172.927C191.345 174.55 190.813 176.116 190.221 177.628C188.177 182.843 184.96 187.171 181.473 191.554Z" fill="#263238"/>
<path d="M283.787 210.63C284.991 211.483 311.544 268.636 311.544 268.636C309.413 267.72 307.05 267.487 304.781 267.969L303.343 268.353C300.765 269.041 298.321 270.155 296.112 271.65L288.545 276.769C287.935 276.423 287.532 275.8 287.467 275.102L287.447 274.883L266.875 239.575L283.787 210.63Z" fill="#1141E8"/>
<path d="M184.198 119.671L191.27 159.886C193.549 165.297 220.104 198.089 220.104 198.089L211.321 226.298L176.45 178.613C173.212 175.149 171.45 170.56 171.538 165.819L172.901 122.854L184.198 119.671Z" fill="#FFBE9D"/>
<path d="M221.847 191.785L240.057 193.162L255.938 195.625C255.938 195.625 283.786 202.945 283.786 205.995C283.786 207.01 276.179 231.226 271.939 245.734C270.11 251.995 269.377 256.449 269.377 256.449L283.786 288.449H215.27V259.107C215.27 259.107 210.67 220.613 211.463 215.355C212.256 210.098 221.847 191.785 221.847 191.785Z" fill="#1141E8"/>
<path d="M175.582 103.423C175.687 99.3281 176.105 95.2407 176.832 91.2094C176.935 90.6379 177.168 89.9429 177.744 89.867C178.456 89.7733 178.819 90.6894 178.912 91.4015C179.543 96.2518 179.34 101.21 178.314 105.993" fill="#EB996E"/>
<path d="M183.678 188.575C191.492 181.591 191.757 169.493 191.089 159.868C191.039 159.158 190.987 158.383 191.394 157.799C192.138 156.735 193.955 157.129 194.681 158.206C195.409 159.282 195.368 160.684 195.3 161.98C195.7 160.88 197.418 160.887 198.224 161.736C199.029 162.586 199.165 163.85 199.259 165.017C199.346 166.092 199.433 167.167 199.519 168.242L222.343 189.995C222.343 189.995 222.971 188.043 224.647 189.159C226.324 190.274 227.407 192.705 227.407 192.705L211.321 227.814L181.469 191.495C181.469 191.495 182.407 189.712 183.678 188.575Z" fill="#1141E8"/>
<path d="M214.652 212.869C212.341 215.951 210.414 219.371 209.414 223.091C208.414 226.811 208.384 230.854 209.754 234.455C211.685 239.53 216.479 243.401 221.846 244.221" fill="#1141E8"/>
<path d="M288.543 276.768L287.676 288.448H304.594L308.561 267.821C303.408 267.533 298.326 269.126 294.259 272.303L288.543 276.768Z" fill="#FFBE9D"/>
<path d="M191.627 185.991C191.606 185.981 191.739 185.651 191.998 185.065C192.263 184.482 192.617 183.625 193.021 182.556C193.43 181.489 193.851 180.193 194.253 178.738C194.638 177.278 194.994 175.655 195.251 173.932C195.496 172.206 195.62 170.549 195.667 169.039C195.697 167.53 195.663 166.168 195.576 165.028C195.494 163.889 195.4 162.967 195.312 162.332C195.231 161.697 195.198 161.343 195.221 161.339C195.244 161.335 195.323 161.681 195.444 162.312C195.573 162.942 195.705 163.864 195.818 165.008C195.937 166.152 195.997 167.523 195.983 169.046C195.952 170.568 195.838 172.24 195.59 173.981C195.33 175.72 194.962 177.355 194.558 178.822C194.136 180.285 193.687 181.582 193.246 182.644C192.811 183.709 192.421 184.555 192.118 185.122C191.822 185.692 191.648 186.002 191.627 185.991Z" fill="#263238"/>
<path d="M196.602 179.867C196.555 179.84 196.872 179.221 197.308 178.191C197.744 177.163 198.272 175.71 198.657 174.052C199.038 172.392 199.201 170.855 199.261 169.74C199.321 168.623 199.307 167.928 199.362 167.925C199.402 167.923 199.502 168.616 199.504 169.746C199.507 170.875 199.38 172.444 198.992 174.129C198.601 175.813 198.028 177.278 197.53 178.292C197.031 179.308 196.637 179.886 196.602 179.867Z" fill="#263238"/>
<path d="M223.411 198.116C223.359 198.086 223.633 197.656 223.793 196.879C223.962 196.109 223.952 194.99 223.622 193.823C223.289 192.653 222.795 191.648 222.474 190.904C222.146 190.162 221.975 189.686 222.018 189.666C222.062 189.647 222.308 190.083 222.693 190.798C223.068 191.514 223.606 192.515 223.952 193.731C224.297 194.949 224.27 196.139 224.029 196.937C223.796 197.744 223.436 198.139 223.411 198.116Z" fill="#263238"/>
<path d="M219.44 244.607C219.433 244.617 219.334 244.562 219.153 244.447C218.942 244.307 218.683 244.137 218.371 243.931C217.699 243.473 216.729 242.803 215.583 241.902C214.441 241 213.114 239.857 211.878 238.359C210.651 236.867 209.547 234.968 209.012 232.781C208.459 230.601 208.417 228.434 208.633 226.513C208.849 224.586 209.305 222.896 209.762 221.512C210.224 220.128 210.688 219.042 211.02 218.3C211.189 217.929 211.324 217.644 211.422 217.453C211.519 217.261 211.575 217.164 211.587 217.168C211.61 217.179 211.441 217.596 211.144 218.352C210.849 219.108 210.423 220.203 209.994 221.586C209.57 222.969 209.144 224.648 208.948 226.546C208.752 228.439 208.805 230.566 209.345 232.696C209.869 234.832 210.932 236.681 212.124 238.159C213.324 239.641 214.621 240.792 215.736 241.713C216.855 242.633 217.802 243.331 218.45 243.822C218.747 244.048 218.992 244.236 219.194 244.39C219.361 244.523 219.446 244.598 219.44 244.607Z" fill="#263238"/>
<path d="M256.832 251.137C256.835 251.149 256.735 251.184 256.541 251.242C256.345 251.294 256.061 251.392 255.684 251.465C254.935 251.64 253.828 251.813 252.449 251.853C249.714 251.954 245.775 251.322 242.178 249.051C238.583 246.773 236.325 243.485 235.244 240.971C234.69 239.707 234.372 238.633 234.208 237.881C234.112 237.508 234.079 237.21 234.043 237.011C234.012 236.811 234.001 236.706 234.012 236.704C234.041 236.698 234.134 237.113 234.338 237.848C234.54 238.584 234.89 239.636 235.465 240.87C236.589 243.327 238.838 246.528 242.362 248.761C245.888 250.987 249.743 251.648 252.445 251.611C253.807 251.601 254.907 251.467 255.659 251.334C256.411 251.203 256.824 251.108 256.832 251.137Z" fill="#263238"/>
<path d="M267.331 263.964C267.239 263.94 268.112 260.291 269.281 255.816C270.45 251.339 271.472 247.73 271.564 247.755C271.656 247.779 270.783 251.426 269.614 255.903C268.444 260.379 267.423 263.988 267.331 263.964Z" fill="#263238"/>
<path d="M276.568 256.217C276.486 256.265 273.833 251.927 270.643 246.53C267.452 241.13 264.932 236.716 265.014 236.667C265.095 236.619 267.748 240.955 270.939 246.355C274.13 251.752 276.65 256.168 276.568 256.217Z" fill="#263238"/>
<path d="M301.876 266.904C301.883 266.969 300.916 267.05 299.411 267.43C298.657 267.615 297.778 267.903 296.828 268.286C295.885 268.685 294.875 269.187 293.872 269.813C292.877 270.45 291.989 271.147 291.225 271.828C290.471 272.523 289.833 273.192 289.344 273.794C288.354 274.992 287.866 275.83 287.811 275.796C287.791 275.784 287.899 275.568 288.115 275.186C288.325 274.8 288.678 274.268 289.154 273.643C289.627 273.013 290.256 272.314 291.011 271.595C291.777 270.89 292.675 270.172 293.69 269.523C294.711 268.885 295.744 268.382 296.71 267.992C297.683 267.619 298.585 267.35 299.356 267.194C300.125 267.031 300.756 266.941 301.195 266.917C301.632 266.886 301.874 266.88 301.876 266.904Z" fill="#263238"/>
<path d="M305.108 262.93C305.103 263 304.046 262.873 302.354 263.018C301.508 263.083 300.51 263.255 299.425 263.532C298.345 263.831 297.183 264.247 296.024 264.819C294.871 265.406 293.842 266.088 292.957 266.773C292.085 267.477 291.35 268.173 290.792 268.812C289.663 270.081 289.132 271.004 289.072 270.966C289.052 270.954 289.177 270.721 289.421 270.306C289.54 270.096 289.694 269.846 289.901 269.574C290.103 269.299 290.319 268.972 290.608 268.653C291.151 267.984 291.882 267.257 292.759 266.526C293.65 265.814 294.694 265.109 295.87 264.511C297.053 263.927 298.243 263.512 299.346 263.225C300.455 262.96 301.476 262.809 302.337 262.775C302.766 262.734 303.157 262.758 303.498 262.759C303.84 262.757 304.133 262.783 304.372 262.813C304.849 262.867 305.111 262.906 305.108 262.93Z" fill="#263238"/>
<g opacity="0.3">
<path d="M234.719 238.109C233.162 241.054 234.46 244.645 235.88 247.658C236.981 249.993 238.208 252.368 240.212 253.996C242.181 255.596 244.829 256.331 247.342 255.977C249.854 255.623 252.195 254.183 253.645 252.1C245.259 252.135 237.156 246.402 234.398 238.483" fill="black"/>
</g>
<g opacity="0.3">
<path d="M265.012 236.667C263.829 239.501 264.721 243.376 265.965 246.183C267.21 248.99 268.523 252.127 267.525 255.031C267.339 255.574 267.07 256.122 267.139 256.692C267.209 257.263 267.825 257.806 268.335 257.542C268.631 257.389 268.761 257.043 268.867 256.727C269.806 253.903 270.746 251.08 271.685 248.256" fill="black"/>
</g>
<path d="M202.583 199.385C202.49 199.37 202.792 197.018 203.259 194.132C203.725 191.246 204.179 188.919 204.273 188.934C204.367 188.949 204.064 191.301 203.598 194.187C203.131 197.073 202.677 199.4 202.583 199.385Z" fill="#FAFAFA"/>
<path d="M195.624 197.925C195.541 197.982 194.403 196.394 192.837 194.575C191.275 192.75 189.879 191.386 189.948 191.312C190.006 191.244 191.52 192.508 193.097 194.351C194.681 196.189 195.7 197.877 195.624 197.925Z" fill="#FAFAFA"/>
<path d="M201.594 180.927C201.631 180.954 201.351 181.41 200.849 182.113C200.347 182.816 199.619 183.763 198.766 184.768C197.912 185.773 197.095 186.644 196.483 187.253C195.87 187.862 195.465 188.212 195.432 188.181C195.362 188.111 196.807 186.547 198.504 184.545C200.205 182.548 201.514 180.868 201.594 180.927Z" fill="#FAFAFA"/>
<path d="M199.264 172.62C199.169 172.657 198.795 171.817 198.064 170.982C197.342 170.137 196.564 169.646 196.616 169.557C196.649 169.476 197.553 169.858 198.324 170.756C199.102 171.649 199.35 172.598 199.264 172.62Z" fill="#FAFAFA"/>
<path d="M193.247 177.737C193.262 177.83 192.494 178.03 191.531 178.183C190.568 178.335 189.776 178.383 189.762 178.289C189.747 178.195 190.515 177.996 191.478 177.843C192.44 177.691 193.232 177.643 193.247 177.737Z" fill="#FAFAFA"/>
<path d="M208.431 185.071C208.326 185.057 208.585 183.663 208.212 182C207.862 180.333 207.049 179.172 207.14 179.114C207.196 179.05 208.177 180.175 208.548 181.927C208.937 183.675 208.509 185.106 208.431 185.071Z" fill="#FAFAFA"/>
<path d="M216.544 193.795C216.449 193.845 215.757 192.447 214.42 191.114C213.097 189.766 211.704 189.064 211.755 188.971C211.778 188.89 213.289 189.475 214.664 190.873C216.051 192.257 216.625 193.773 216.544 193.795Z" fill="#FAFAFA"/>
<path d="M203.521 208.938C203.553 209.017 202.21 209.504 200.475 209.438C198.739 209.386 197.431 208.806 197.47 208.73C197.501 208.63 198.814 209.045 200.486 209.095C202.158 209.161 203.497 208.836 203.521 208.938Z" fill="#FAFAFA"/>
<path d="M209.636 212.069C209.542 212.034 210.057 210.512 210.486 208.586C210.922 206.661 211.107 205.065 211.208 205.074C211.297 205.078 211.264 206.707 210.821 208.662C210.385 210.616 209.718 212.104 209.636 212.069Z" fill="#FAFAFA"/>
<path d="M222.985 212.581C222.915 212.645 221.624 211.343 220.103 209.673C218.582 208.002 217.405 206.597 217.476 206.533C217.546 206.469 218.836 207.771 220.357 209.441C221.878 211.112 223.055 212.517 222.985 212.581Z" fill="#FAFAFA"/>
<path d="M229.209 228.004C229.14 228.07 228.177 227.183 227.057 226.023C225.936 224.863 225.084 223.869 225.152 223.803C225.22 223.737 226.184 224.624 227.304 225.784C228.424 226.944 229.277 227.938 229.209 228.004Z" fill="#FAFAFA"/>
<path d="M217.645 229.474C217.704 229.541 216.602 230.56 215.008 231.481C213.418 232.409 211.987 232.861 211.958 232.776C211.921 232.682 213.273 232.096 214.835 231.184C216.402 230.279 217.582 229.396 217.645 229.474Z" fill="#FAFAFA"/>
<path d="M222.965 244.151C222.865 244.125 223.261 242.392 223.457 240.218C223.665 238.045 223.596 236.268 223.698 236.262C223.785 236.252 224.009 238.044 223.799 240.25C223.599 242.457 223.048 244.176 222.965 244.151Z" fill="#FAFAFA"/>
<path d="M242.969 232.218C242.919 232.289 241.503 231.302 240.115 229.706C238.717 228.116 237.928 226.581 238.005 226.542C238.093 226.488 239.001 227.919 240.373 229.48C241.736 231.048 243.034 232.138 242.969 232.218Z" fill="#FAFAFA"/>
<path d="M250.278 238.446C250.2 238.385 251.199 237.013 252.32 235.252C253.445 233.493 254.267 232.008 254.356 232.053C254.437 232.092 253.746 233.66 252.609 235.437C251.478 237.215 250.348 238.504 250.278 238.446Z" fill="#FAFAFA"/>
<path d="M249.206 223.21C249.182 223.302 247.679 222.978 245.852 222.487C244.024 221.996 242.562 221.524 242.586 221.433C242.611 221.341 244.113 221.664 245.941 222.155C247.769 222.646 249.23 223.118 249.206 223.21Z" fill="#FAFAFA"/>
<path d="M243.88 250.021C243.785 250.015 243.791 248.614 243.892 246.892C243.993 245.17 244.152 243.778 244.247 243.784C244.342 243.789 244.337 245.19 244.235 246.913C244.134 248.635 243.975 250.027 243.88 250.021Z" fill="#FAFAFA"/>
<path d="M248.486 259.204C248.389 259.158 249.082 257.79 249.319 255.95C249.577 254.112 249.27 252.609 249.375 252.591C249.453 252.559 249.926 254.084 249.66 255.996C249.411 257.909 248.552 259.255 248.486 259.204Z" fill="#FAFAFA"/>
<path d="M236.549 257.175C236.464 257.188 236.258 255.637 236.624 253.763C236.978 251.887 237.744 250.523 237.817 250.566C237.913 250.609 237.304 252.003 236.961 253.828C236.604 255.65 236.653 257.171 236.549 257.175Z" fill="#FAFAFA"/>
<path d="M225.66 261.827C225.593 261.9 224.257 260.76 222.561 259.421C220.866 258.077 219.451 257.04 219.505 256.958C219.556 256.881 221.067 257.799 222.774 259.152C224.482 260.5 225.723 261.761 225.66 261.827Z" fill="#FAFAFA"/>
<path d="M233.036 248.879C233.08 248.963 231.348 249.97 229.166 251.128C226.983 252.286 225.179 253.157 225.134 253.073C225.089 252.989 226.822 251.983 229.005 250.824C231.186 249.667 232.991 248.796 233.036 248.879Z" fill="#FAFAFA"/>
<path d="M255.939 277.937C255.941 277.948 255.794 277.985 255.512 278.045C255.228 278.098 254.813 278.205 254.269 278.276C253.186 278.453 251.597 278.606 249.63 278.573C247.664 278.543 245.32 278.274 242.801 277.608C240.285 276.946 237.607 275.85 235.048 274.268C232.502 272.662 230.341 270.737 228.642 268.766C226.937 266.795 225.667 264.806 224.777 263.054C223.885 261.301 223.325 259.806 223.009 258.755C222.832 258.235 222.747 257.816 222.67 257.538C222.6 257.258 222.569 257.11 222.58 257.106C222.592 257.103 222.645 257.246 222.737 257.519C222.835 257.79 222.941 258.202 223.135 258.713C223.49 259.746 224.08 261.217 224.993 262.941C225.901 264.665 227.181 266.62 228.88 268.558C230.574 270.496 232.715 272.391 235.229 273.977C237.757 275.539 240.398 276.631 242.883 277.303C245.37 277.979 247.688 278.271 249.636 278.331C251.586 278.395 253.167 278.279 254.251 278.144C254.796 278.094 255.212 278.008 255.499 277.978C255.785 277.939 255.936 277.925 255.939 277.937Z" fill="#263238"/>
<path d="M236.221 274.522C236.139 274.548 235.893 273.073 236.53 271.402C237.149 269.724 238.304 268.774 238.348 268.847C238.428 268.918 237.437 269.929 236.852 271.523C236.245 273.107 236.327 274.522 236.221 274.522Z" fill="#FAFAFA"/>
<path d="M230.786 272.251C230.835 272.344 229.845 272.828 229.069 273.884C228.275 274.926 228.092 276.013 227.989 275.992C227.902 276.003 227.94 274.807 228.794 273.678C229.635 272.539 230.771 272.164 230.786 272.251Z" fill="#FAFAFA"/>
<path d="M251.673 284.684C251.677 284.768 250.17 284.649 248.634 283.681C247.088 282.728 246.319 281.427 246.396 281.394C246.479 281.326 247.338 282.481 248.815 283.39C250.281 284.316 251.697 284.579 251.673 284.684Z" fill="#FAFAFA"/>
<path d="M254.925 266.401C255.012 266.399 254.821 267.776 253.742 269.031C252.678 270.299 251.349 270.71 251.337 270.625C251.289 270.53 252.482 270.003 253.48 268.809C254.497 267.631 254.823 266.368 254.925 266.401Z" fill="#FAFAFA"/>
<path d="M264.157 280.033C264.078 279.968 264.951 278.865 265.752 277.345C266.564 275.83 266.989 274.491 267.088 274.519C267.173 274.537 266.888 275.951 266.056 277.506C265.232 279.067 264.219 280.094 264.157 280.033Z" fill="#FAFAFA"/>
<path d="M276.359 281.834C276.398 281.931 275.195 282.407 273.987 283.403C272.768 284.385 272.059 285.467 271.972 285.409C271.893 285.375 272.497 284.165 273.77 283.136C275.034 282.097 276.341 281.75 276.359 281.834Z" fill="#FAFAFA"/>
<path d="M267.054 266.2C266.952 266.232 266.378 264.302 265.163 262.164C263.963 260.016 262.61 258.525 262.691 258.454C262.723 258.424 263.102 258.76 263.637 259.378C264.171 259.995 264.848 260.907 265.462 261.995C266.075 263.084 266.504 264.135 266.754 264.912C267.005 265.69 267.096 266.188 267.054 266.2Z" fill="#FAFAFA"/>
<path d="M268.881 246.546C268.902 246.639 267.5 247.041 265.751 247.445C264 247.849 262.565 248.101 262.543 248.009C262.522 247.916 263.923 247.514 265.674 247.11C267.423 246.707 268.859 246.454 268.881 246.546Z" fill="#FAFAFA"/>
<path d="M263.263 240.673C263.187 240.731 262.283 239.693 261.242 238.354C260.201 237.014 259.418 235.881 259.493 235.823C259.569 235.765 260.473 236.803 261.514 238.143C262.554 239.482 263.337 240.615 263.263 240.673Z" fill="#FAFAFA"/>
<path d="M277.171 237.148C277.162 237.238 275.727 237.149 274.008 236.739C272.286 236.334 270.964 235.771 270.997 235.685C271.03 235.592 272.388 236.005 274.087 236.405C275.784 236.81 277.184 237.05 277.171 237.148Z" fill="#FAFAFA"/>
<path d="M287.064 236.976C286.976 236.931 287.522 235.738 288.074 234.225C288.632 232.713 288.985 231.451 289.082 231.473C289.171 231.49 288.963 232.806 288.397 234.343C287.836 235.881 287.143 237.02 287.064 236.976Z" fill="#FAFAFA"/>
<path d="M284.841 250.385C284.819 250.469 283.447 250.124 281.964 249.236C280.475 248.355 279.517 247.315 279.581 247.255C279.65 247.18 280.689 248.084 282.139 248.941C283.583 249.807 284.874 250.288 284.841 250.385Z" fill="#FAFAFA"/>
<path d="M291.274 249.977C291.181 249.956 291.506 248.201 291.998 246.057C292.491 243.913 292.966 242.193 293.058 242.214C293.151 242.235 292.826 243.99 292.333 246.134C291.84 248.277 291.366 249.998 291.274 249.977Z" fill="#FAFAFA"/>
<path d="M285.903 264.968C285.826 265.024 284.781 263.724 283.569 262.064C282.356 260.404 281.436 259.014 281.512 258.958C281.589 258.901 282.634 260.202 283.846 261.862C285.058 263.521 285.979 264.912 285.903 264.968Z" fill="#FAFAFA"/>
<path d="M295.066 259.237C294.974 259.28 294.371 258.088 293.421 256.755C292.479 255.417 291.554 254.453 291.625 254.38C291.683 254.313 292.736 255.186 293.702 256.557C294.674 257.921 295.149 259.205 295.066 259.237Z" fill="#FAFAFA"/>
<path d="M303.658 257.947C303.573 257.999 302.71 256.704 301.545 255.185C300.385 253.662 299.361 252.49 299.433 252.422C299.497 252.359 300.644 253.437 301.818 254.977C302.997 256.513 303.736 257.902 303.658 257.947Z" fill="#FAFAFA"/>
<path d="M301.639 263.641C301.536 263.646 301.603 262.498 300.852 261.39C300.128 260.263 299.047 259.874 299.091 259.781C299.102 259.742 299.391 259.777 299.808 259.987C300.222 260.192 300.744 260.604 301.139 261.2C301.532 261.798 301.705 262.44 301.731 262.901C301.76 263.366 301.678 263.646 301.639 263.641Z" fill="#FAFAFA"/>
<path d="M294.937 271.449C294.887 271.435 294.903 271.273 294.85 271.039C294.802 270.808 294.667 270.495 294.398 270.283C294.126 270.073 293.79 270.018 293.554 270.028C293.315 270.034 293.161 270.089 293.136 270.044C293.112 270.009 293.235 269.866 293.517 269.788C293.789 269.708 294.237 269.726 294.609 270.013C294.978 270.304 295.103 270.734 295.093 271.018C295.085 271.31 294.976 271.463 294.937 271.449Z" fill="#FAFAFA"/>
<path d="M226.274 283.931C226.254 284.011 224.539 283.362 222.978 281.788C221.402 280.226 220.755 278.511 220.835 278.491C220.93 278.439 221.696 280.036 223.221 281.544C224.728 283.069 226.326 283.835 226.274 283.931Z" fill="#FAFAFA"/>
<path d="M184.261 120.119C183.203 110.083 181.282 100.64 180.761 90.7942C180.735 90.3006 180.678 89.7448 180.292 89.436C179.767 89.0155 178.926 89.3535 178.582 89.9316C178.238 90.5104 178.246 91.2232 178.249 91.8958C178.269 97.1164 177.38 102.34 175.633 107.259C174.499 110.454 173.004 113.529 172.146 116.81C171.29 120.091 172.89 121.204 174.366 124.257" fill="#FFBE9D"/>
<path d="M150.56 80.3643C150.499 80.4369 146.787 77.4174 142.27 73.6198C137.751 69.8215 134.139 66.6845 134.2 66.6119C134.261 66.5393 137.973 69.5588 142.491 73.3571C147.008 77.1541 150.621 80.2917 150.56 80.3643Z" fill="#263238"/>
<path d="M169.381 75.8433C169.286 75.8479 168.913 69.9818 168.547 62.7416C168.181 55.4994 167.962 49.6261 168.057 49.6215C168.152 49.6168 168.525 55.4823 168.891 62.7244C169.257 69.964 169.476 75.8386 169.381 75.8433Z" fill="#263238"/>
<path d="M157.395 71.6502C157.304 71.6793 156.148 68.3318 154.81 64.1744C153.473 60.0158 152.462 56.6214 152.552 56.5924C152.643 56.5633 153.8 59.9102 155.138 64.0688C156.475 68.2262 157.485 71.6212 157.395 71.6502Z" fill="#263238"/>
<path d="M146.71 86.5518C146.67 86.6383 144.39 85.6773 141.618 84.4062C138.845 83.1343 136.629 82.0341 136.668 81.9477C136.708 81.8612 138.988 82.8222 141.761 84.094C144.533 85.3645 146.749 86.4654 146.71 86.5518Z" fill="#263238"/>
<path d="M129.344 78.9703C129.332 79.0647 128.783 79.0733 128.118 78.9901C127.452 78.907 126.922 78.7631 126.934 78.6687C126.946 78.5743 127.495 78.5657 128.16 78.6489C128.825 78.7321 129.356 78.8759 129.344 78.9703Z" fill="#263238"/>
<path d="M152.976 52.334C152.881 52.334 152.805 51.7941 152.805 51.1289C152.805 50.4629 152.882 49.9237 152.976 49.9237C153.071 49.9237 153.148 50.4629 153.148 51.1289C153.149 51.7948 153.071 52.334 152.976 52.334Z" fill="#263238"/>
<path d="M192.726 61.6526C192.796 61.716 189.752 65.2093 185.927 69.4531C182.101 73.6989 178.943 77.088 178.872 77.024C178.802 76.9606 181.845 73.4686 185.672 69.2228C189.496 64.979 192.655 61.5892 192.726 61.6526Z" fill="#263238"/>
<path d="M197.57 56.8537C197.637 56.9211 197.287 57.3798 196.788 57.8794C196.289 58.379 195.83 58.7288 195.762 58.6615C195.695 58.5942 196.045 58.1355 196.544 57.6358C197.043 57.1369 197.503 56.7864 197.57 56.8537Z" fill="#263238"/>
<path d="M209.331 73.7498C209.342 73.7709 209.022 73.9597 208.434 74.2831C207.847 74.6085 206.987 75.0586 205.915 75.5985C203.773 76.6789 200.771 78.0906 197.389 79.4944C194.005 80.8969 190.886 82.0242 188.607 82.7773C187.469 83.1548 186.542 83.4452 185.897 83.6306C185.253 83.8181 184.893 83.9111 184.887 83.8887C184.88 83.8663 185.225 83.7303 185.856 83.5039C186.545 83.2578 187.444 82.9357 188.528 82.5483C190.782 81.7371 193.881 80.5768 197.258 79.1776C200.632 77.7765 203.643 76.403 205.809 75.3807C206.849 74.887 207.712 74.4778 208.373 74.1649C208.979 73.8778 209.32 73.7293 209.331 73.7498Z" fill="#263238"/>
<path d="M199.677 89.9956C199.689 90.0385 199.024 90.2735 197.926 90.5751C196.829 90.8767 195.295 91.2344 193.582 91.5281C191.868 91.8199 190.303 91.9915 189.168 92.0707C188.032 92.1505 187.327 92.1498 187.324 92.105C187.321 92.0548 188.019 91.9703 189.144 91.8291C190.269 91.6878 191.821 91.48 193.525 91.1896C195.228 90.8978 196.761 90.5797 197.869 90.3395C198.977 90.0992 199.664 89.9474 199.677 89.9956Z" fill="#263238"/>
<path d="M208.45 88.3727C208.45 88.4677 207.599 88.5443 206.549 88.5443C205.499 88.5443 204.648 88.467 204.648 88.3727C204.648 88.2776 205.499 88.2011 206.549 88.2011C207.599 88.2004 208.45 88.2776 208.45 88.3727Z" fill="#263238"/>
<path d="M174.368 124.257C171.737 122.294 170.337 118.805 170.882 115.569C171.216 113.589 172.196 111.79 172.978 109.942C173.76 108.093 174.359 106.045 173.882 104.095C173.699 103.349 173.361 102.628 173.357 101.86C173.353 101.092 173.848 100.234 174.615 100.199C175.194 100.172 175.684 100.613 176.049 101.065C177.331 102.655 178.367 107.307 177.717 110.772" fill="#FFBE9D"/>
<path d="M177.716 110.771C177.682 110.765 177.783 110.238 177.822 109.276C177.855 108.315 177.812 106.912 177.483 105.223C177.315 104.382 177.076 103.466 176.694 102.538C176.502 102.077 176.277 101.604 175.956 101.196C175.639 100.794 175.217 100.389 174.718 100.357C174.216 100.318 173.78 100.759 173.617 101.28C173.431 101.804 173.551 102.396 173.725 102.979C173.907 103.56 174.122 104.189 174.184 104.85C174.25 105.507 174.224 106.181 174.111 106.844C173.652 109.52 172.222 111.688 171.501 113.828C171.128 114.896 170.904 115.954 170.911 116.957C170.906 117.959 171.067 118.89 171.318 119.706C171.826 121.344 172.663 122.498 173.301 123.206C173.948 123.917 174.39 124.228 174.367 124.257C174.359 124.266 174.248 124.192 174.042 124.04C173.834 123.891 173.544 123.646 173.203 123.297C172.526 122.606 171.638 121.451 171.086 119.779C170.814 118.947 170.633 117.991 170.626 116.956C170.606 115.92 170.829 114.816 171.201 113.725C171.928 111.532 173.335 109.367 173.772 106.788C173.881 106.15 173.905 105.508 173.844 104.886C173.786 104.261 173.589 103.681 173.402 103.075C173.227 102.481 173.083 101.804 173.305 101.176C173.41 100.871 173.577 100.583 173.825 100.366C174.066 100.144 174.409 100.02 174.736 100.041C175.412 100.103 175.857 100.585 176.193 101.009C176.54 101.461 176.764 101.952 176.958 102.429C177.339 103.388 177.567 104.32 177.722 105.177C178.026 106.894 178.03 108.314 177.956 109.282C177.913 109.767 177.865 110.142 177.809 110.392C177.76 110.643 177.728 110.774 177.716 110.771Z" fill="#EB996E"/>
<path d="M264.003 164.376C264.351 166.274 266.156 167.738 268.08 167.898C270.004 168.058 271.926 167.026 273.05 165.457C274.174 163.887 274.544 161.852 274.283 159.939C273.903 157.16 272.057 154.489 269.378 153.659C266.699 152.83 263.365 154.306 262.624 157.011L259.535 161.324L264.003 164.376Z" fill="#263238"/>
<path d="M260.35 155.906C261.604 145.895 254.362 136.747 244.198 135.778C234.617 134.866 226.103 142 224.666 151.515C223.408 159.858 222.325 168.279 222.364 171.337C222.482 180.56 227.878 184.15 230.066 185.229C230.565 185.475 231.942 185.754 232.493 185.833C232.527 185.837 232.551 185.87 232.544 185.905L230.496 196.492C229.568 203.428 233.44 209.615 240.365 210.624C247.314 211.637 252.745 206.309 253.806 199.367L260.35 155.906Z" fill="#FFBE9D"/>
<path d="M226.257 156.909C226.41 157.125 227.627 156.471 229.188 156.703C230.75 156.912 231.779 157.882 231.976 157.715C232.072 157.643 231.938 157.275 231.492 156.839C231.054 156.406 230.268 155.932 229.294 155.794C228.321 155.658 227.451 155.897 226.927 156.194C226.394 156.493 226.181 156.812 226.257 156.909Z" fill="#263238"/>
<path d="M240.148 159.919C240.3 160.134 241.519 159.481 243.079 159.713C244.641 159.922 245.67 160.891 245.867 160.725C245.962 160.652 245.831 160.285 245.383 159.849C244.945 159.416 244.159 158.942 243.186 158.804C242.212 158.668 241.342 158.906 240.818 159.204C240.285 159.503 240.072 159.821 240.148 159.919Z" fill="#263238"/>
<path d="M234.745 167.297C234.765 167.21 233.819 166.901 232.276 166.47C231.884 166.371 231.518 166.237 231.49 165.955C231.438 165.653 231.668 165.247 231.929 164.812C232.444 163.902 232.983 162.948 233.55 161.948C235.817 157.865 237.521 154.483 237.355 154.394C237.19 154.304 235.218 157.541 232.951 161.624C232.402 162.632 231.876 163.593 231.377 164.513C231.16 164.944 230.826 165.42 230.942 166.048C231.006 166.361 231.267 166.62 231.513 166.726C231.757 166.842 231.981 166.879 232.176 166.919C233.745 167.235 234.726 167.386 234.745 167.297Z" fill="#263238"/>
<path d="M232.556 185.841C232.556 185.841 238.512 187.215 246.712 183.782C246.712 183.782 243.172 191.404 232.004 188.695L232.556 185.841Z" fill="#EB996E"/>
<path d="M234.856 171.156C235.526 170.496 236.569 170.232 237.531 170.479C238.197 170.651 238.835 171.077 239.166 171.689C239.497 172.301 239.469 173.097 239.018 173.568C238.51 174.099 237.61 174.107 236.896 173.787C236.182 173.467 235.612 172.883 235.074 172.305C234.926 172.146 234.774 171.979 234.695 171.779C234.617 171.578 234.63 171.333 234.782 171.198" fill="#EB996E"/>
<path d="M239.182 169.047C238.93 168.996 238.68 170.69 237.054 171.681C235.43 172.677 233.652 172.223 233.604 172.458C233.565 172.561 233.959 172.846 234.718 172.978C235.462 173.113 236.589 173.031 237.584 172.425C238.577 171.816 239.101 170.888 239.259 170.201C239.427 169.502 239.299 169.054 239.182 169.047Z" fill="#263238"/>
<path d="M241.221 154.839C241.313 155.285 242.902 155.312 244.701 155.799C246.51 156.251 247.909 157.003 248.207 156.657C248.342 156.491 248.143 156.054 247.606 155.556C247.074 155.06 246.186 154.532 245.105 154.249C244.023 153.969 242.991 153.996 242.284 154.171C241.572 154.343 241.184 154.627 241.221 154.839Z" fill="#263238"/>
<path d="M227.836 152.096C228.059 152.491 229.187 152.28 230.484 152.451C231.785 152.576 232.837 153.037 233.143 152.703C233.28 152.538 233.159 152.158 232.73 151.753C232.307 151.35 231.558 150.962 230.665 150.859C229.773 150.758 228.956 150.967 228.453 151.265C227.943 151.562 227.739 151.905 227.836 152.096Z" fill="#263238"/>
<path d="M222.856 149.448C224.764 152.362 230.822 150.562 234.48 148.561C238.333 151.115 243.688 150.006 246.356 146.102C248.449 148.767 252.7 147.886 254.251 144.882C255.801 141.877 254.928 137.743 252.799 135.115C250.67 132.487 247.555 131.16 244.48 130.592C237.188 129.245 229.245 132.072 224.883 138.666C222.87 141.708 221.662 145.805 222.856 149.448Z" fill="#263238"/>
<path d="M243.012 131.633C243.005 131.76 241.289 131.431 238.588 131.881C235.936 132.325 232.202 133.709 229.422 136.812C226.706 139.96 225.471 143.691 225.02 146.352C224.565 149.056 224.912 150.764 224.794 150.774C224.76 150.781 224.646 150.364 224.545 149.59C224.455 148.816 224.424 147.678 224.599 146.29C224.956 143.543 226.143 139.694 228.972 136.412C231.884 133.165 235.786 131.808 238.524 131.46C239.913 131.278 241.052 131.318 241.825 131.405C242.599 131.488 243.017 131.6 243.012 131.633Z" fill="#455A64"/>
<path d="M233.152 145.189C233.117 145.192 233.039 144.826 233.006 144.151C232.97 143.476 233.026 142.488 233.303 141.304C233.821 138.966 235.516 135.734 238.782 133.793C242.065 131.877 245.713 131.961 248.009 132.642C249.18 132.973 250.071 133.404 250.644 133.762C251.218 134.119 251.5 134.365 251.48 134.393C251.422 134.502 250.202 133.595 247.905 133.055C245.659 132.501 242.189 132.502 239.088 134.312C236.003 136.145 234.32 139.179 233.715 141.412C233.073 143.683 233.276 145.191 233.152 145.189Z" fill="#455A64"/>
<path d="M250.652 142.029C250.04 144.628 249.423 147.256 249.422 149.926C249.421 152.596 250.09 155.353 251.795 157.409C254.343 160.482 258.591 161.414 262.514 162.161C264.613 156.957 265.253 151.174 264.341 145.638C263.895 142.934 263.025 140.183 261.118 138.215C258.367 135.375 253.575 134.804 250.232 136.916" fill="#263238"/>
<path d="M252.831 154.808C251.796 157.038 251.874 159.621 252.232 162.053C252.589 164.485 253.206 166.898 253.182 169.357C253.158 171.815 252.377 174.417 250.449 175.943C249.901 176.377 249.27 176.718 248.81 177.245C248.351 177.772 248.103 178.578 248.47 179.173C248.837 179.767 249.95 179.755 250.111 179.074L250.011 179.247C249.59 179.969 250.101 180.909 250.937 180.893C252.244 180.869 253.583 180.177 254.459 179.164C255.719 177.704 256.22 175.747 256.551 173.847C257.567 168.019 257.369 161.98 258.978 156.287" fill="#263238"/>
<path d="M230.452 193.08C231.357 197.037 234.046 200.549 237.63 202.454C241.214 204.358 245.63 204.622 249.414 203.157C252.83 201.835 255.587 199.261 258.252 196.747C259.199 202.452 257.619 208.53 254.013 213.052C250.408 217.574 244.833 220.466 239.06 220.812C234.688 221.074 229.986 219.738 227.237 216.329C225.318 213.95 224.54 210.801 224.571 207.745C224.602 204.688 225.382 201.69 226.297 198.774C227.081 196.279 228.311 193.481 230.835 192.798" fill="#1141E8"/>
<path d="M261.762 162.372C264.376 163.794 265.812 166.76 266.32 169.691C266.827 172.622 266.573 175.625 266.697 178.598C266.821 181.57 267.39 184.674 269.269 186.981C271.263 189.433 274.384 190.593 277.166 192.093C283.319 195.411 288.378 201.027 290.231 207.767C292.085 214.507 290.404 222.303 285.354 227.137C280.759 231.536 274.071 233.084 267.709 233.066C263.171 233.053 258.189 232.09 255.358 228.542C252.563 225.038 252.689 220.029 253.711 215.664C254.733 211.3 256.515 207.049 256.585 202.567C255.912 205.333 254.725 207.974 253.101 210.312C252.636 210.981 251.837 211.702 251.119 211.319C250.323 210.894 250.625 209.701 250.995 208.877C256.464 196.712 254.56 172.195 257.8 158.764" fill="#263238"/>
<path d="M257.258 160.983C257.423 160.931 263.802 159.722 262.983 166.031C262.164 172.34 255.999 170.217 256.012 170.034C256.024 169.852 257.258 160.983 257.258 160.983Z" fill="#FFBE9D"/>
<path d="M258.251 167.894C258.281 167.878 258.351 167.985 258.525 168.095C258.696 168.201 259 168.299 259.345 168.218C260.043 168.06 260.742 167.075 260.919 165.942C261.01 165.37 260.961 164.807 260.816 164.328C260.683 163.842 260.426 163.48 260.099 163.377C259.775 163.256 259.512 163.427 259.411 163.594C259.304 163.76 259.327 163.891 259.293 163.897C259.273 163.911 259.171 163.774 259.256 163.52C259.298 163.398 259.391 163.259 259.556 163.157C259.723 163.054 259.954 163.02 260.185 163.076C260.667 163.173 261.047 163.677 261.206 164.203C261.391 164.735 261.46 165.368 261.358 166.011C261.153 167.276 260.348 168.382 259.401 168.527C258.943 168.585 258.59 168.403 258.418 168.229C258.242 168.049 258.227 167.903 258.251 167.894Z" fill="#EB996E"/>
<path d="M223.925 206.682C223.882 206.654 224.311 205.919 224.997 204.731C225.674 203.542 226.62 201.891 227.274 199.919C227.928 197.948 228.039 196.036 227.843 194.697C227.662 193.348 227.276 192.575 227.338 192.551C227.357 192.542 227.47 192.725 227.625 193.081C227.781 193.436 227.959 193.974 228.084 194.659C228.348 196.027 228.272 198.007 227.601 200.027C226.93 202.044 225.937 203.696 225.205 204.857C224.836 205.439 224.523 205.899 224.3 206.214C224.078 206.527 223.945 206.694 223.925 206.682Z" fill="#263238"/>
<path d="M227.146 199.397C227.051 199.42 226.872 198.859 226.308 198.48C225.756 198.081 225.168 198.107 225.157 198.01C225.149 197.968 225.296 197.894 225.556 197.889C225.813 197.883 226.177 197.97 226.504 198.198C226.831 198.426 227.039 198.738 227.122 198.981C227.207 199.226 227.189 199.389 227.146 199.397Z" fill="#FAFAFA"/>
<path d="M231.221 199.389C231.131 199.441 230.63 198.532 229.596 197.865C228.575 197.178 227.542 197.077 227.555 196.974C227.538 196.887 228.671 196.834 229.786 197.578C230.908 198.307 231.308 199.37 231.221 199.389Z" fill="#FAFAFA"/>
<path d="M233.783 212.779C233.69 212.76 233.861 211.554 234.165 210.085C234.468 208.615 234.79 207.44 234.883 207.459C234.976 207.478 234.805 208.685 234.501 210.154C234.198 211.623 233.876 212.798 233.783 212.779Z" fill="#FAFAFA"/>
<path d="M244.081 214.799C243.986 214.796 243.949 213.521 243.998 211.95C244.047 210.38 244.164 209.109 244.259 209.112C244.354 209.114 244.391 210.39 244.342 211.961C244.292 213.53 244.176 214.802 244.081 214.799Z" fill="#FAFAFA"/>
<path d="M33.864 244.125L23.6875 288.448L45.2108 288.514L55.1537 249.538L33.864 244.125Z" fill="#B78876"/>
<path d="M139.558 189.68C137.513 186.936 135.162 184.303 134.083 181.055C133.562 179.486 133.359 177.824 132.804 176.266C132.249 174.709 131.241 173.191 129.696 172.603C128.151 172.016 126.978 172.611 125.972 173.709L118.586 195.311L122.845 211.906C127.092 210.947 132.417 209.814 136.386 208.024C140.355 206.235 143.015 203.371 143.262 199.024C143.457 195.608 141.603 192.424 139.558 189.68Z" fill="#263238"/>
<path d="M72.3489 185.86C72.3489 185.86 46.6735 197.037 43.4646 202.079C40.2564 207.121 29.7148 243.071 29.7148 243.071L56.7451 251.024L56.2996 288.448H122.631L122.084 222.467L113.763 185.993C113.763 185.993 99.1171 185.05 97.7615 184.382C96.4052 183.714 72.3489 185.86 72.3489 185.86Z" fill="#1141E8"/>
<path d="M163.585 94.3742C163.796 92.8601 162.737 91.1976 163.498 89.8716C163.918 89.139 164.766 88.7853 165.554 88.481C165.961 88.3239 166.382 88.1649 166.817 88.1794C167.253 88.1939 167.712 88.4276 167.855 88.8387C168.024 89.3219 167.712 89.8393 167.351 90.201C166.989 90.562 166.547 90.8775 166.354 91.3507C166.095 91.9836 166.332 93.9689 166.596 94.6005C167.047 95.6843 168.639 100.498 168.778 101.663" fill="#B78876"/>
<path d="M158.168 94.8968C158.262 92.606 160.12 83.5805 160.214 81.2889C161.763 81.7668 162.661 83.4168 162.953 85.0113C163.245 86.6059 163.094 88.2546 163.37 89.8524C163.74 91.9974 164.855 93.9312 165.979 95.7951C167.103 97.6589 168.274 99.5459 168.779 101.663C169.284 103.78 171.201 109.264 169.709 110.85" fill="#B78876"/>
<path d="M157.738 110.341L148.561 153.955C148.237 155.925 113.762 185.993 113.762 185.993L120.571 213.193L165.485 169.282C168.723 165.818 170.485 161.229 170.397 156.489L169.635 115.566L157.738 110.341Z" fill="#B78876"/>
<path d="M156.17 95.1727L157.737 110.341L169.635 115.566C169.635 115.566 169.781 114.489 170.292 109.233C170.856 103.434 164.622 100.946 161.846 96.6669C160.658 94.8348 160.969 91.4681 160.051 87.2969C159.946 86.8164 159.282 83.9019 158.926 82.3357C158.729 81.4691 158.238 80.6877 157.5 80.192C156.964 79.8323 156.355 79.6528 155.909 80.1894C155.454 80.7365 156.17 95.1727 156.17 95.1727Z" fill="#B78876"/>
<path d="M163.588 112.886C164.939 111.743 165.228 109.697 164.728 108C164.228 106.302 163.084 104.877 161.924 103.54C160.765 102.203 159.542 100.873 158.828 99.2535C158.326 98.113 158.093 96.8643 157.539 95.7476C156.984 94.6315 155.976 93.6085 154.73 93.5597C155.725 99.8356 155.701 103.447 157.738 110.341" fill="#B78876"/>
<path d="M155.941 100.705C155.944 100.729 155.893 100.533 155.818 100.202C155.729 99.8006 155.623 99.3241 155.5 98.7644C155.222 97.4523 154.862 95.7568 154.453 93.8263L154.414 93.6415L154.606 93.6263C155.39 93.5649 156.205 93.9114 156.824 94.4559C157.863 95.3396 158.337 96.5824 158.682 97.6338C159.027 98.7037 159.324 99.6554 159.726 100.388C160.093 101.142 160.598 101.6 160.887 101.988C161.175 102.37 161.3 102.603 161.283 102.615C161.261 102.631 161.099 102.423 160.784 102.074C160.481 101.731 159.923 101.273 159.513 100.505C159.07 99.7649 158.74 98.7881 158.382 97.7361C158.021 96.692 157.56 95.5324 156.599 94.7166C156.024 94.2137 155.308 93.9121 154.626 93.9589L154.778 93.7596C155.567 97.7348 156.085 100.71 155.941 100.705Z" fill="#7C5142"/>
<path d="M161.277 96.8451C161.183 96.859 160.693 94.0863 160.181 90.6523C159.67 87.2177 159.332 84.4226 159.426 84.4087C159.519 84.3949 160.01 87.1669 160.521 90.6022C161.032 94.0355 161.371 96.8313 161.277 96.8451Z" fill="#7C5142"/>
<path d="M165.06 97.354C165.078 97.3513 165.107 97.4259 165.147 97.587L165.045 97.6087C164.822 97.0629 164.303 95.3522 163.847 93.2943C163.563 92.0212 163.354 90.8576 163.232 90.0121C163.108 89.166 163.066 88.638 163.112 88.6301C163.209 88.6143 163.615 90.6834 164.182 93.2197C164.636 95.269 165.057 96.9982 165.145 97.581L165.043 97.6028C165.035 97.4358 165.041 97.3566 165.06 97.354Z" fill="#7C5142"/>
<path d="M167.401 105.717C167.352 105.746 167.112 105.375 166.635 104.866C166.159 104.356 165.412 103.733 164.457 103.269C163.499 102.81 162.545 102.613 161.85 102.558C161.154 102.501 160.715 102.544 160.707 102.488C160.7 102.451 161.133 102.32 161.86 102.315C162.584 102.308 163.599 102.476 164.605 102.959C165.609 103.446 166.373 104.136 166.817 104.707C167.268 105.278 167.434 105.7 167.401 105.717Z" fill="#7C5142"/>
<path d="M158.815 111.537C158.774 111.553 158.456 110.876 158.033 109.742C157.611 108.61 157.099 107.016 156.668 105.22C156.239 103.423 155.975 101.77 155.839 100.569C155.702 99.3671 155.68 98.6193 155.723 98.6147C155.774 98.6094 155.882 99.3479 156.079 100.535C156.276 101.721 156.576 103.355 157.002 105.139C157.429 106.923 157.9 108.515 158.262 109.663C158.625 110.811 158.862 111.519 158.815 111.537Z" fill="#7C5142"/>
<path d="M105.707 186.766C106.813 184.927 109.522 184.293 111.329 185.452C116.174 181.512 121.128 177.65 125.973 173.709C124.392 181.607 123.35 192.676 126.877 199.917C126.877 199.917 131.343 208.224 138.458 206.953L132.115 213.193L122.083 222.466" fill="#1141E8"/>
<path d="M104.134 190.475C104.05 190.48 104.139 189.008 105.068 187.497C105.982 185.977 107.248 185.219 107.283 185.296C107.35 185.379 106.23 186.225 105.362 187.675C104.474 189.114 104.238 190.498 104.134 190.475Z" fill="#263238"/>
<path d="M109.368 195.328C109.336 195.343 109.048 194.818 108.817 193.885C108.583 192.956 108.462 191.606 108.716 190.155C108.976 188.703 109.554 187.477 110.093 186.685C110.631 185.888 111.083 185.495 111.107 185.519C111.152 185.558 110.77 186.006 110.3 186.813C109.827 187.618 109.306 188.812 109.055 190.214C108.809 191.616 108.888 192.917 109.056 193.835C109.219 194.755 109.423 195.307 109.368 195.328Z" fill="#263238"/>
<path d="M133.62 212.312C133.62 212.312 133.11 212.667 132.04 212.946C130.982 213.232 129.326 213.364 127.416 212.807C125.507 212.272 123.45 210.898 121.857 208.821C120.239 206.756 119.143 204.025 118.543 201.092C117.407 195.197 117.452 189.735 117.751 185.838C117.904 183.885 118.124 182.315 118.303 181.235C118.389 180.694 118.471 180.277 118.529 179.995C118.587 179.713 118.623 179.566 118.635 179.568C118.647 179.57 118.634 179.721 118.598 180.007C118.556 180.328 118.502 180.741 118.436 181.255C118.298 182.338 118.116 183.908 117.994 185.855C117.757 189.738 117.754 195.182 118.879 201.022C119.474 203.923 120.541 206.599 122.109 208.629C123.653 210.669 125.636 212.024 127.487 212.575C129.34 213.146 130.96 213.058 132.009 212.816C133.07 212.582 133.604 212.273 133.62 212.312Z" fill="#FAFAFA"/>
<path d="M56.8864 262.131C56.7914 262.131 56.7148 252.749 56.7148 241.179C56.7148 229.604 56.7921 220.224 56.8864 220.224C56.9815 220.224 57.058 229.604 57.058 241.179C57.0587 252.749 56.9815 262.131 56.8864 262.131Z" fill="#263238"/>
<path d="M56.355 212.985C56.2844 212.987 56.3042 212.046 55.9808 210.587C55.827 209.856 55.5472 209.01 55.1571 208.106C54.7453 207.212 54.21 206.267 53.5263 205.358C52.8293 204.459 52.0591 203.693 51.3047 203.06C50.5358 202.446 49.7927 201.953 49.1287 201.612C47.8067 200.916 46.8939 200.688 46.9144 200.62C46.9203 200.597 47.1487 200.645 47.5592 200.755C47.7658 200.806 48.0159 200.878 48.2945 200.994C48.5743 201.106 48.9036 201.214 49.2383 201.396C49.9299 201.716 50.7048 202.198 51.5027 202.814C52.2861 203.448 53.0841 204.228 53.7989 205.15C54.4998 206.082 55.0416 207.057 55.4469 207.979C55.831 208.912 56.0917 209.786 56.2184 210.537C56.3055 210.908 56.3227 211.254 56.357 211.554C56.396 211.853 56.3999 212.114 56.394 212.326C56.392 212.752 56.3788 212.985 56.355 212.985Z" fill="#263238"/>
<path d="M101.564 185.576C101.576 185.574 101.613 185.764 101.673 186.131C101.747 186.497 101.801 187.042 101.844 187.748C101.918 189.156 101.79 191.234 101.02 193.656C100.229 196.05 98.745 198.801 96.237 201.062C93.76 203.342 90.1966 204.901 86.3264 205.203C82.4529 205.482 78.6961 204.471 75.907 202.585C73.0894 200.724 71.2124 198.224 70.0732 195.975C68.9512 193.695 68.515 191.659 68.3784 190.256C68.3157 189.551 68.2879 189.004 68.3064 188.631C68.311 188.26 68.3196 188.066 68.3315 188.066C68.3434 188.066 68.3586 188.261 68.3757 188.63C68.3797 189 68.4285 189.543 68.511 190.239C68.6872 191.626 69.1558 193.629 70.2897 195.864C71.4408 198.069 73.3092 200.51 76.0806 202.32C78.8222 204.153 82.5017 205.132 86.3013 204.859C90.0976 204.562 93.589 203.046 96.0264 200.825C98.4968 198.622 99.9805 195.931 100.79 193.579C101.578 191.2 101.743 189.149 101.71 187.752C101.688 187.051 101.656 186.507 101.604 186.14C101.566 185.772 101.552 185.578 101.564 185.576Z" fill="#263238"/>
<path d="M56.3194 242.834C56.2897 242.924 50.8387 241.204 44.1457 238.993C37.4506 236.78 32.0485 234.915 32.0782 234.825C32.1079 234.735 37.5582 236.454 44.2533 238.667C50.9463 240.878 56.3491 242.743 56.3194 242.834Z" fill="#FAFAFA"/>
<path d="M121.442 233.675C121.442 233.77 106.886 233.908 88.9341 233.983C70.9762 234.058 56.4225 234.043 56.4219 233.948C56.4212 233.853 70.9742 233.715 88.9328 233.639C106.885 233.564 121.442 233.58 121.442 233.675Z" fill="#FAFAFA"/>
<path d="M121.77 239.42C121.77 239.515 107.14 239.592 89.0972 239.592C71.0481 239.592 56.4219 239.515 56.4219 239.42C56.4219 239.326 71.0488 239.249 89.0972 239.249C107.14 239.248 121.77 239.325 121.77 239.42Z" fill="#FAFAFA"/>
<path d="M112.809 246.406C112.82 246.41 112.756 246.593 112.625 246.938C112.478 247.311 112.281 247.813 112.033 248.444C111.901 248.773 111.755 249.135 111.597 249.53C111.428 249.922 111.221 250.338 111.01 250.791C110.576 251.69 110.125 252.736 109.499 253.827C109.197 254.379 108.882 254.957 108.554 255.559C108.221 256.16 107.825 256.755 107.442 257.387C106.692 258.663 105.765 259.944 104.814 261.309C102.836 263.981 100.481 266.79 97.7517 269.493C94.9955 272.169 92.1403 274.47 89.4291 276.395C88.0457 277.319 86.7468 278.222 85.4559 278.946C84.8163 279.317 84.2137 279.701 83.6065 280.022C82.998 280.338 82.4139 280.642 81.8556 280.932C80.7527 281.538 79.6974 281.967 78.7905 282.384C78.3338 282.586 77.9134 282.784 77.518 282.946C77.1207 283.096 76.7557 283.235 76.4244 283.36C75.7888 283.596 75.2833 283.784 74.9077 283.923C74.5599 284.048 74.3751 284.108 74.3712 284.096C74.3672 284.085 74.5441 284.003 74.8833 283.857C75.2523 283.704 75.7492 283.496 76.3743 283.236C76.7016 283.102 77.062 282.955 77.454 282.795C77.8447 282.625 78.2599 282.418 78.7113 282.209C79.6083 281.776 80.6524 281.333 81.744 280.716C82.2971 280.421 82.8753 280.111 83.4772 279.79C84.0784 279.464 84.6751 279.076 85.3087 278.702C86.5878 277.97 87.8741 277.062 89.2462 276.137C91.9344 274.206 94.7685 271.911 97.5108 269.247C100.226 266.558 102.576 263.77 104.559 261.121C105.511 259.767 106.444 258.5 107.2 257.235C107.587 256.609 107.987 256.02 108.324 255.425C108.658 254.829 108.978 254.257 109.285 253.71C109.923 252.631 110.387 251.595 110.837 250.707C111.055 250.259 111.27 249.848 111.447 249.461C111.615 249.072 111.769 248.714 111.909 248.39C112.182 247.77 112.399 247.277 112.56 246.911C112.713 246.576 112.798 246.401 112.809 246.406Z" fill="#263238"/>
<g opacity="0.3">
<path d="M110.129 252.146C105.693 257.543 101.048 261.462 94.5318 263.98C91.4126 265.185 88.143 266.007 85.1208 267.437C82.098 268.866 79.2521 271.028 77.8958 274.084C76.8471 276.446 77.3566 280.003 79.8857 280.537C80.846 280.74 81.8334 280.43 82.756 280.096C95.6571 275.419 104.135 263.622 110.129 252.146Z" fill="black"/>
</g>
<path d="M63.9791 134.692C61.1939 136.879 61.0065 140.963 61.1451 144.502C61.2837 148.04 61.3252 152.063 58.7611 154.506C56.6485 156.519 52.9525 157.267 52.3446 160.121C52.0608 161.453 52.6957 162.931 53.856 163.642C55.017 164.354 56.6221 164.248 57.6801 163.392C56.7844 165.625 57.191 168.494 59.0958 169.965C61.0005 171.436 64.3401 170.749 65.0635 168.454C64.6173 169.975 65.6614 171.762 67.2052 172.12C68.7489 172.479 70.4735 171.333 70.7428 169.772" fill="#263238"/>
<path d="M104.398 160.309C104.979 162.097 107.171 163.168 108.939 162.528C110.706 161.887 111.703 159.66 111.004 157.916C110.455 156.547 109.053 155.51 108.985 154.037C108.904 152.253 110.774 151.075 112.419 150.379C114.063 149.683 115.991 148.767 116.251 147.001C116.502 145.295 115.033 143.888 113.804 142.679C112.575 141.471 111.396 139.638 112.262 138.147C112.705 137.385 113.569 136.975 114.147 136.309C115.427 134.835 114.914 132.364 113.436 131.088C111.959 129.811 109.839 129.541 107.903 129.794C105.967 130.046 104.124 130.754 102.228 131.22C95.9762 132.756 89.095 131.514 83.7734 127.891" fill="#263238"/>
<path d="M65.8697 148.301L72.6644 187.665C73.8597 194.588 80.4603 199.216 87.3765 197.98C93.8385 196.825 98.3476 190.921 97.7655 184.382C97.4547 180.892 97.188 178.001 97.188 178.001C97.188 178.001 107.048 175.468 106.196 165.446C105.785 160.603 104.124 150.696 102.518 141.751C100.794 132.145 91.9694 125.479 82.2555 126.426L81.2899 126.521C70.9339 128.144 63.9603 137.994 65.8697 148.301Z" fill="#B78876"/>
<path d="M100.415 148.245C100.516 148.997 99.9614 149.702 99.1773 149.821C98.3952 149.94 97.6785 149.429 97.5781 148.676C97.4778 147.924 98.0322 147.218 98.8143 147.099C99.5984 146.979 100.315 147.492 100.415 148.245Z" fill="#263238"/>
<path d="M100.847 146.874C100.687 147.077 99.5265 146.381 97.9881 146.536C96.4496 146.668 95.3982 147.569 95.2128 147.397C95.1224 147.322 95.2702 146.967 95.7269 146.562C96.1764 146.158 96.9677 145.731 97.9267 145.642C98.8857 145.553 99.7259 145.828 100.224 146.143C100.732 146.461 100.926 146.782 100.847 146.874Z" fill="#263238"/>
<path d="M85.364 150.002C85.4644 150.754 84.91 151.459 84.1265 151.578C83.3444 151.697 82.6277 151.186 82.5274 150.433C82.427 149.681 82.9814 148.975 83.7635 148.856C84.547 148.736 85.2637 149.249 85.364 150.002Z" fill="#263238"/>
<path d="M85.7533 148.635C85.5936 148.839 84.4313 148.143 82.8948 148.297C81.3564 148.429 80.3043 149.33 80.1189 149.157C80.0291 149.082 80.175 148.728 80.6337 148.323C81.0831 147.919 81.8745 147.492 82.8328 147.402C83.7918 147.315 84.632 147.589 85.1309 147.904C85.6378 148.222 85.8318 148.543 85.7533 148.635Z" fill="#263238"/>
<path d="M92.4458 159.499C92.43 159.412 93.3705 159.154 94.9004 158.805C95.2891 158.726 95.6534 158.612 95.6937 158.337C95.7584 158.044 95.5531 157.636 95.3182 157.198C94.8562 156.283 94.3724 155.325 93.8648 154.32C91.8367 150.219 90.3272 146.831 90.4929 146.751C90.6586 146.671 92.4379 149.93 94.4661 154.032C94.9565 155.045 95.4257 156.009 95.8719 156.933C96.064 157.364 96.3689 157.846 96.2257 158.455C96.1484 158.758 95.8811 159 95.6356 159.092C95.3914 159.194 95.1703 159.22 94.9776 159.25C93.4273 159.484 92.4604 159.586 92.4458 159.499Z" fill="#263238"/>
<path d="M85.561 142.568C85.4501 143.001 83.8945 142.953 82.1111 143.346C80.3192 143.704 78.9154 144.374 78.6395 144.022C78.5155 143.853 78.7306 143.435 79.2797 142.973C79.8236 142.511 80.7166 142.037 81.7884 141.81C82.8602 141.587 83.8694 141.662 84.5525 141.865C85.2415 142.066 85.6065 142.363 85.561 142.568Z" fill="#263238"/>
<path d="M99.845 142.477C99.6087 142.852 98.5138 142.593 97.2373 142.701C95.9576 142.763 94.9069 143.165 94.6231 142.823C94.497 142.656 94.633 142.29 95.0719 141.913C95.5042 141.538 96.2552 141.193 97.133 141.134C98.0115 141.077 98.8009 141.319 99.2794 141.634C99.7651 141.95 99.9479 142.295 99.845 142.477Z" fill="#263238"/>
<path d="M75.6678 136.265C75.6507 136.282 75.6342 136.297 75.617 136.314C74.1459 137.728 73.2694 139.652 73.1862 141.691C73.1836 141.763 73.181 141.831 73.1783 141.895C73.0648 144.789 73.4192 147.687 73.278 150.578C73.1367 153.471 72.4319 156.468 70.5146 158.638C69.7259 159.531 68.2468 160.236 67.4416 159.358C67.1301 159.019 67.0377 158.539 66.9578 158.085C65.752 151.242 63.273 145.31 62.5833 138.099C62.3952 136.137 63.1397 134.205 64.6227 132.907C66.0272 131.678 67.7604 130.377 69.5147 131.007C71.2742 131.64 73.7486 134.567 75.1788 135.771" fill="#263238"/>
<path d="M69.6873 152.502C69.5091 152.444 62.6107 151.138 63.4965 157.96C64.3822 164.782 71.0488 162.486 71.0356 162.289C71.0218 162.092 69.6873 152.502 69.6873 152.502Z" fill="#B78876"/>
<path d="M68.6142 159.975C68.5812 159.957 68.5059 160.073 68.3172 160.192C68.133 160.307 67.8044 160.413 67.4315 160.325C66.6764 160.154 65.9207 159.089 65.728 157.864C65.6297 157.245 65.6831 156.637 65.8395 156.119C65.9827 155.593 66.2606 155.202 66.615 155.091C66.9655 154.96 67.2506 155.144 67.3589 155.325C67.475 155.504 67.4493 155.646 67.4869 155.653C67.5087 155.667 67.6189 155.519 67.5271 155.245C67.4816 155.113 67.3806 154.962 67.2031 154.852C67.0223 154.74 66.7728 154.704 66.5233 154.764C66.0019 154.869 65.5914 155.414 65.4191 155.983C65.2185 156.557 65.1439 157.243 65.2541 157.938C65.4765 159.306 66.3471 160.502 67.3701 160.659C67.8664 160.721 68.2479 160.525 68.434 160.337C68.6234 160.141 68.6399 159.984 68.6142 159.975Z" fill="#7C5142"/>
<path d="M69.3853 132.09C67.4337 129.517 71.6669 125.135 74.9412 123.741C78.2154 122.347 82.8249 123.559 86.2951 124.347C88.4844 124.844 90.694 125.619 92.9176 125.309C94.4085 125.101 95.784 124.418 97.1482 123.78C98.5124 123.144 99.9373 122.533 101.442 122.489C102.947 122.446 104.564 123.091 105.266 124.423C105.968 125.755 105.341 127.734 103.877 128.085C105.669 126.859 108.543 127.96 109.059 130.07C109.575 132.179 107.537 134.482 105.38 134.226C106.282 133.394 107.892 134.467 107.891 135.693C107.89 136.92 106.874 137.912 105.803 138.512C103.072 140.044 99.705 139.968 96.6538 139.262C93.6027 138.556 90.7125 137.274 87.6798 136.492C84.6471 135.71 79.5552 134.272 76.7166 135.596C74.6263 136.57 73.3743 139.323 72.0966 138.867C70.861 138.427 69.9918 137.262 69.6308 136.001C69.2691 134.738 69.3259 133.4 69.3853 132.09Z" fill="#263238"/>
<path d="M69.7695 153.671C69.9662 157.287 70.1668 160.927 71.0103 164.45C71.8538 167.972 73.3863 171.407 75.9253 173.989C79.2531 177.373 83.5563 180.618 88.239 181.389C93.354 182.23 99.6108 181.165 103.774 178.077C105.749 176.613 107.186 173.449 106.574 171.068C108.255 170.299 109.445 168.553 109.546 166.708C109.648 164.862 108.523 162.553 107.061 162.305C108.161 162.124 108.471 160.383 108.06 159.396C107.631 158.367 106.198 158.116 105.103 158.327C104.008 158.537 103.053 159.184 102.154 159.844C101.255 160.503 100.354 161.202 99.294 161.547C95.757 162.697 92.1713 159.577 88.4548 159.721C85.0947 159.852 82.1043 162.641 78.7746 162.173C76.9134 161.911 75.3122 160.624 74.2859 159.05C73.2596 157.475 73.7064 151.647 73.3025 149.812" fill="#263238"/>
<g opacity="0.6">
<path d="M96.7314 169.379C96.7063 169.423 96.4126 169.271 95.9124 169.134C95.416 168.994 94.6953 168.894 93.9251 169.033C93.1549 169.172 92.5153 169.519 92.0989 169.823C91.6785 170.128 91.4567 170.372 91.4178 170.341C91.3867 170.318 91.5491 170.015 91.9557 169.646C92.3563 169.279 93.0308 168.868 93.867 168.717C94.7032 168.565 95.4787 168.714 95.983 168.918C96.4951 169.12 96.7525 169.347 96.7314 169.379Z" fill="#455A64"/>
</g>
<path d="M89.5056 161.796C89.7544 161.758 89.9201 163.427 91.4652 164.473C93.0076 165.523 94.7698 165.162 94.8054 165.394C94.8391 165.496 94.4404 165.757 93.6913 165.851C92.9568 165.948 91.8579 165.816 90.9127 165.176C89.9703 164.535 89.5003 163.601 89.3769 162.922C89.2443 162.23 89.3901 161.798 89.5056 161.796Z" fill="white"/>
<path d="M84.5431 180.27C84.5484 180.259 84.6976 180.315 84.9741 180.429C85.2553 180.533 85.6711 180.682 86.2202 180.832C87.3138 181.14 88.9387 181.47 90.9695 181.578C91.9833 181.636 93.1 181.631 94.2867 181.511C95.4754 181.413 96.7333 181.171 98.0131 180.784C99.2987 180.412 100.588 179.826 101.816 179.05C103.044 178.28 104.218 177.301 105.108 176.054C106.159 174.58 106.695 172.737 106.412 171.108L106.388 170.967L106.511 170.914C107.353 170.553 108.042 169.912 108.573 169.215C108.836 168.862 109.066 168.491 109.237 168.107C109.406 167.728 109.492 167.317 109.534 166.914C109.688 165.284 108.962 163.773 107.945 162.919L107.851 162.84L107.928 162.744C108.6 161.911 108.643 160.807 108.333 160.028C108.027 159.224 107.371 158.756 106.815 158.541C106.247 158.318 105.757 158.318 105.439 158.35C105.119 158.387 104.955 158.446 104.95 158.428C104.95 158.428 105.103 158.34 105.429 158.279C105.752 158.223 106.261 158.197 106.863 158.411C107.45 158.615 108.167 159.093 108.518 159.955C108.866 160.787 108.849 161.969 108.122 162.903L108.105 162.727C109.196 163.619 109.982 165.201 109.834 166.942C109.793 167.373 109.705 167.812 109.522 168.232C109.341 168.647 109.103 169.036 108.828 169.408C108.275 170.141 107.56 170.823 106.638 171.223L106.736 171.03C107.052 172.813 106.48 174.707 105.389 176.253C104.464 177.55 103.251 178.553 101.995 179.336C100.738 180.125 99.4156 180.717 98.1041 181.088C96.798 181.475 95.5176 181.709 94.3118 181.796C93.1073 181.905 91.978 181.896 90.9544 181.822C88.9044 181.682 87.2729 181.312 86.1812 180.962C85.6334 180.791 85.2203 180.62 84.9464 180.494C84.6764 180.356 84.5378 180.28 84.5431 180.27Z" fill="#455A64"/>
<path d="M54.6232 162.855C54.6232 162.855 54.4873 162.829 54.2754 162.684C54.0649 162.543 53.7778 162.266 53.5831 161.812C53.3956 161.361 53.2914 160.741 53.4458 160.053C53.5923 159.36 54.0787 158.669 54.7585 158.124C55.4423 157.574 56.3168 157.166 57.2646 156.822C58.2077 156.47 59.2393 156.159 60.1824 155.582C61.1249 155.012 61.8931 154.094 62.3822 152.996C62.8825 151.9 63.1227 150.648 63.159 149.366C63.2145 146.783 62.6172 144.338 62.5512 142.057C62.4475 139.789 62.8845 137.658 63.92 136.231C64.9417 134.799 66.3033 134.138 67.2477 133.969C67.7249 133.87 68.1057 133.897 68.3572 133.913C68.6086 133.952 68.738 133.978 68.7367 133.99C68.7354 134.036 68.2001 133.887 67.2761 134.1C66.3699 134.303 65.077 134.976 64.12 136.37C63.1537 137.754 62.7498 139.816 62.8686 142.045C62.9478 144.285 63.557 146.727 63.5035 149.376C63.4666 150.695 63.2171 151.993 62.6898 153.137C62.1763 154.282 61.3519 155.258 60.3494 155.854C59.3521 156.452 58.3014 156.753 57.3629 157.091C56.4217 157.42 55.5717 157.804 54.9103 158.317C54.253 158.826 53.787 159.461 53.6339 160.101C53.4722 160.741 53.5501 161.332 53.7085 161.765C54.0603 162.65 54.6668 162.819 54.6232 162.855Z" fill="#455A64"/>
<path d="M104.101 127.95C104.097 127.941 104.2 127.894 104.402 127.809C104.502 127.763 104.63 127.715 104.788 127.678C104.943 127.63 105.127 127.588 105.339 127.566C106.164 127.44 107.54 127.639 108.701 128.775L108.702 128.775L108.706 128.78C109.483 129.755 109.947 131.252 109.726 132.871C109.542 134.492 108.569 136.178 107.02 137.34C105.485 138.526 103.437 139.212 101.282 139.333C99.1202 139.464 96.8676 139.137 94.6176 138.6C90.946 137.714 87.6513 136.133 84.948 134.318C83.5837 133.436 82.2921 132.594 80.9833 132.01C79.6825 131.412 78.3678 131.114 77.1554 131.033C74.714 130.873 72.767 131.506 71.5407 132.077C70.3032 132.661 69.7152 133.16 69.6914 133.124C69.6914 133.124 70.2478 132.585 71.4826 131.956C72.7063 131.341 74.6737 130.658 77.1705 130.79C78.408 130.856 79.7663 131.15 81.0995 131.749C82.44 132.334 83.752 133.178 85.1189 134.051C87.8176 135.841 91.0668 137.388 94.6995 138.266C96.9243 138.798 99.1512 139.123 101.262 139.001C103.369 138.888 105.347 138.232 106.836 137.099C108.338 135.984 109.276 134.389 109.472 132.836C109.701 131.284 109.276 129.847 108.551 128.901L108.556 128.907C107.476 127.815 106.154 127.577 105.351 127.671C104.523 127.76 104.112 127.988 104.101 127.95Z" fill="#455A64"/>
<path d="M100.605 122.136C100.605 122.136 100.651 122.703 100.294 123.646C99.9341 124.572 99.0458 125.83 97.4737 126.725C96.6982 127.177 95.7682 127.544 94.7201 127.713C93.6767 127.887 92.5382 127.88 91.3673 127.727C89.0111 127.435 86.5751 126.506 84.0123 125.708C81.4587 124.91 78.8735 124.436 76.6051 124.926C74.338 125.391 72.56 126.672 71.399 127.96C70.2216 129.259 69.5999 130.572 69.2897 131.499C68.9847 132.434 68.928 132.983 68.8871 132.976C68.8752 132.975 68.8884 132.838 68.924 132.579C68.9478 132.317 69.0356 131.941 69.1623 131.458C69.4375 130.506 70.0361 129.148 71.2182 127.797C72.3837 126.458 74.1941 125.116 76.5398 124.615C78.8887 124.091 81.5419 124.576 84.1126 125.378C86.6959 126.184 89.1029 127.109 91.4089 127.412C92.554 127.571 93.6635 127.587 94.6752 127.431C95.6864 127.28 96.5932 126.937 97.3529 126.513C98.8933 125.671 99.781 124.479 100.17 123.593C100.556 122.693 100.561 122.128 100.605 122.136Z" fill="#455A64"/>
<path d="M158.852 252.139C160.719 252.384 162.381 253.569 163.481 255.097C164.582 256.625 165.17 258.47 165.481 260.327C166.083 263.92 165.112 268 163.779 271.391C160.116 269.672 158.164 265.403 157.31 263.176C155.959 259.655 155.657 252.471 158.852 252.139Z" fill="#1141E8"/>
<path d="M169.176 276.447C168.014 274.693 168.042 272.293 169.035 270.439C170.028 268.584 171.885 267.274 173.91 266.703C174.846 266.439 175.928 266.344 176.723 266.903C177.468 267.425 177.771 268.423 177.653 269.325C177.535 270.226 177.057 271.043 176.5 271.762C174.59 274.227 172.289 276.261 169.176 276.447Z" fill="#1141E8"/>
<path d="M168.254 287.828C168.226 287.829 168.183 287.56 168.131 287.072C168.08 286.583 168.018 285.875 167.969 284.997C167.882 283.249 167.809 280.785 168.388 278.131C168.97 275.474 170.258 273.278 171.509 272.015C172.129 271.377 172.706 270.94 173.13 270.684C173.553 270.426 173.806 270.319 173.817 270.339C173.864 270.408 172.875 270.913 171.721 272.211C170.559 273.488 169.355 275.631 168.787 278.22C168.22 280.81 168.243 283.244 168.258 284.988C168.287 286.738 168.315 287.825 168.254 287.828Z" fill="#263238"/>
<path d="M159.703 257.589C159.73 257.58 159.893 257.999 160.165 258.764C160.438 259.528 160.815 260.641 161.265 262.021C162.166 264.78 163.349 268.613 164.55 272.876C165.751 277.141 166.743 281.028 167.414 283.851C167.75 285.263 168.01 286.409 168.176 287.204C168.343 287.998 168.422 288.44 168.395 288.447C168.367 288.454 168.236 288.024 168.021 287.241C167.793 286.388 167.494 285.27 167.133 283.922C166.391 281.118 165.356 277.248 164.157 272.987C162.956 268.728 161.819 264.886 160.989 262.106C160.593 260.768 160.264 259.659 160.013 258.812C159.788 258.033 159.676 257.598 159.703 257.589Z" fill="#263238"/>
<path d="M164.299 279.863C162.512 275.804 158.649 272.727 154.293 271.892C153.185 271.68 151.816 271.711 151.2 272.657C150.582 273.604 151.111 274.874 151.776 275.788C154.544 279.595 159.768 281.421 164.305 280.169" fill="#1141E8"/>
<path d="M155.512 275.085C155.517 275.057 155.775 275.085 156.242 275.159C156.476 275.192 156.761 275.244 157.083 275.338C157.407 275.428 157.783 275.509 158.176 275.666C158.98 275.933 159.901 276.359 160.87 276.922C161.827 277.506 162.826 278.24 163.763 279.136C164.689 280.045 165.455 281.019 166.07 281.957C166.665 282.908 167.12 283.814 167.412 284.609C167.582 284.997 167.675 285.37 167.775 285.69C167.88 286.01 167.941 286.292 167.981 286.525C168.071 286.989 168.107 287.246 168.079 287.252C168.001 287.27 167.801 286.245 167.145 284.717C166.824 283.951 166.352 283.079 165.755 282.162C165.137 281.258 164.382 280.315 163.479 279.429C162.565 278.555 161.598 277.831 160.674 277.243C159.738 276.675 158.851 276.232 158.075 275.936C156.528 275.33 155.497 275.163 155.512 275.085Z" fill="#263238"/>
</svg>
