<svg width="200" height="200" viewBox="0 0 200 200" fill="none" xmlns="http://www.w3.org/2000/svg">
<path d="M179.96 159.397H166.712V159.497H179.96V159.397Z" fill="#EBEBEB"/>
<path d="M132.488 160.483H129.011V160.583H132.488V160.483Z" fill="#EBEBEB"/>
<path d="M166.311 155.683H158.634V155.783H166.311V155.683Z" fill="#EBEBEB"/>
<path d="M38.2608 156.355H20.9836V156.455H38.2608V156.355Z" fill="#EBEBEB"/>
<path d="M44.3556 156.355H41.8224V156.455H44.3556V156.355Z" fill="#EBEBEB"/>
<path d="M90.0588 158.044H52.5884V158.144H90.0588V158.044Z" fill="#EBEBEB"/>
<path d="M95.3604 135.12H18.1208C16.862 135.12 15.8376 134.096 15.8376 132.837V24.2639C15.8376 23.0051 16.862 21.9807 18.1208 21.9807H95.3604C96.6188 21.9807 97.6432 23.0051 97.6432 24.2639V132.837C97.6432 134.096 96.6188 135.12 95.3604 135.12ZM18.1208 22.0811C16.9168 22.0811 15.9376 23.0603 15.9376 24.2643V132.837C15.9376 134.041 16.9168 135.02 18.1208 135.02H95.3604C96.564 135.02 97.5432 134.041 97.5432 132.837V24.2639C97.5432 23.0603 96.564 22.0807 95.3604 22.0807L18.1208 22.0811Z" fill="#EBEBEB"/>
<path d="M181.879 135.12H104.64C103.381 135.12 102.357 134.096 102.357 132.837V24.2639C102.357 23.0051 103.381 21.9807 104.64 21.9807H181.879C183.138 21.9807 184.162 23.0051 184.162 24.2639V132.837C184.162 134.096 183.138 135.12 181.879 135.12ZM104.64 22.0811C103.436 22.0811 102.457 23.0603 102.457 24.2643V132.837C102.457 134.041 103.436 135.02 104.64 135.02H181.879C183.083 135.02 184.062 134.041 184.062 132.837V24.2639C184.062 23.0603 183.083 22.0807 181.879 22.0807L104.64 22.0811Z" fill="#EBEBEB"/>
<path d="M200 152.959H0V153.059H200V152.959Z" fill="#EBEBEB"/>
<path d="M165.141 141.132C165.141 141.132 164.873 127.444 168.899 118.989C172.925 110.535 176.682 103.557 179.232 100.739C179.232 100.739 171.717 119.795 170.643 125.297C169.57 130.799 166.886 141.132 166.886 141.132H165.141V141.132Z" fill="#F5F5F5"/>
<path d="M165.745 140.528C165.745 140.528 166.081 125.833 168.966 120.197C171.851 114.561 176.481 105.771 176.481 105.771C176.481 105.771 171.18 118.654 170.04 124.089C168.899 129.524 166.349 140.528 166.349 140.528H165.745Z" fill="#E6E6E6"/>
<path d="M163.104 141.743C163.104 141.743 163.373 128.055 159.347 119.6C155.321 111.146 151.563 104.167 149.014 101.349C149.014 101.349 156.529 120.405 157.602 125.907C158.676 131.409 161.36 141.743 161.36 141.743H163.104V141.743Z" fill="#F0F0F0"/>
<path d="M162.501 141.139C162.501 141.139 162.165 126.444 159.28 120.808C156.395 115.172 151.765 106.382 151.765 106.382C151.765 106.382 157.066 119.265 158.206 124.7C159.347 130.135 161.897 141.139 161.897 141.139H162.501Z" fill="#E0E0E0"/>
<path d="M162.662 141.434C162.662 141.434 166.556 128.308 164.92 119.088C163.284 109.868 161.514 102.143 159.804 98.7485C159.804 98.7485 161.989 119.116 161.562 124.706C161.136 130.295 160.98 140.97 160.98 140.97L162.662 141.434Z" fill="#EBEBEB"/>
<path d="M162.24 140.691C162.24 140.691 165.819 126.435 164.534 120.235C163.249 114.035 161.12 104.331 161.12 104.331C161.12 104.331 162.809 118.159 162.466 123.702C162.122 129.245 161.658 140.531 161.658 140.531L162.24 140.691Z" fill="#FAFAFA"/>
<path d="M163.981 142.077C163.981 142.077 161.227 128.666 163.648 119.62C166.069 110.574 168.494 103.029 170.489 99.7942C170.489 99.7942 166.566 119.899 166.511 125.505C166.456 131.111 165.697 141.76 165.697 141.76L163.981 142.077Z" fill="#F5F5F5"/>
<path d="M164.465 141.373C164.465 141.373 162.122 126.863 163.933 120.796C165.745 114.729 168.698 105.243 168.698 105.243C168.698 105.243 165.83 118.875 165.697 124.427C165.564 129.979 165.058 141.263 165.058 141.263L164.465 141.373Z" fill="#E6E6E6"/>
<path d="M165.809 153.193H161.586C159.924 153.193 158.549 151.9 158.447 150.241L157.664 140.342H169.731L168.948 150.241C168.846 151.9 167.47 153.193 165.809 153.193Z" fill="#EBEBEB"/>
<path d="M41.1008 129.328C41.1504 129.384 40.8764 129.766 41.992 129.599C44.7396 129.185 49.5248 128.073 50.8572 125.245C52.7596 121.208 46.8612 122.682 47.0648 120.619C47.2684 118.555 53.9796 118.915 54.6924 115.888C55.4056 112.861 50.8524 114.302 50.7924 112.827C50.732 111.352 55.9768 112.268 57.018 109.002C58.0592 105.737 54.0952 108.14 54.5508 106.783C55.0064 105.425 59.4436 99.2838 57.0288 98.571C54.6144 97.8578 50.5472 104.16 48.978 105.053C47.4088 105.947 46.014 100.803 44.1432 102.974C42.2724 105.146 45.2396 112.745 42.8532 114.219C41.076 115.317 41.578 112.292 39.2324 112.857C36.0464 113.624 37.1184 124.873 41.1008 129.328Z" fill="#E6E6E6"/>
<path d="M49.5824 112.844C48.5012 112.935 47.7032 113.155 47.2076 113.332C48.176 111.914 48.8724 111.186 48.8972 111.161C48.976 111.081 48.9748 110.952 48.8948 110.873C48.8148 110.794 48.686 110.796 48.6072 110.875C48.5876 110.895 46.9816 112.55 45.2228 115.786C44.3588 110.578 46.5396 106.027 46.5624 105.98C46.5996 105.904 46.568 105.813 46.4924 105.776C46.4172 105.738 46.3252 105.77 46.2884 105.846C46.2644 105.894 43.9364 110.752 44.9916 116.216C44.7108 116.752 44.4276 117.325 44.1476 117.941C43.3396 119.719 42.4944 121.999 41.826 124.746C41.362 123.908 40.2992 121.664 40.204 118.531C40.2016 118.447 40.1312 118.381 40.0468 118.383C39.9612 118.389 39.8964 118.456 39.8988 118.541C40.0088 122.166 41.398 124.646 41.7204 125.174C40.836 128.986 40.306 133.678 40.6868 139.205C40.6944 139.317 40.7916 139.402 40.904 139.394C40.9128 139.394 40.9212 139.392 40.9292 139.391C41.0284 139.371 41.1 139.281 41.0932 139.177C40.5888 131.859 41.6836 125.976 43.1976 121.522C43.582 121.078 44.718 119.937 46.4468 119.669C46.5252 119.65 46.5872 119.577 46.574 119.494C46.5608 119.411 46.4828 119.354 46.3996 119.367C45.0324 119.584 44.0308 120.292 43.436 120.84C44.5536 117.745 45.854 115.393 46.9076 113.782C47.2472 113.629 48.1752 113.269 49.608 113.149C49.6908 113.138 49.7544 113.068 49.7472 112.984C49.7404 112.9 49.6668 112.838 49.5824 112.844Z" fill="#F5F5F5"/>
<path d="M37.58 130.887C35.2964 130.93 31.396 128.81 29.8648 126.747C28.3112 124.653 32.682 125.952 32.2332 124.308C31.7844 122.664 26.3952 123.88 25.4008 121.525C24.4064 119.17 28.2944 119.711 28.14 118.508C27.9856 117.304 23.9576 117.549 22.6644 115.046C21.3712 112.542 24.9144 113.945 24.3584 112.908C23.8024 111.87 19.3612 107.504 21.2196 106.594C23.078 105.684 27.2412 110.231 28.636 110.739C30.0308 111.246 30.3568 108.105 32.1716 109.608C33.9864 111.11 32.628 117.676 34.7648 118.542C36.356 119.187 35.6792 116.181 37.5112 116.94C40.7184 118.268 38.5068 130.869 37.58 130.887Z" fill="#E0E0E0"/>
<g opacity="0.3">
<path d="M37.58 130.887C35.2964 130.93 31.396 128.81 29.8648 126.747C28.3112 124.653 32.682 125.952 32.2332 124.308C31.7844 122.664 26.3952 123.88 25.4008 121.525C24.4064 119.17 28.2944 119.711 28.14 118.508C27.9856 117.304 23.9576 117.549 22.6644 115.046C21.3712 112.542 24.9144 113.945 24.3584 112.908C23.8024 111.87 19.3612 107.504 21.2196 106.594C23.078 105.684 27.2412 110.231 28.636 110.739C30.0308 111.246 30.3568 108.105 32.1716 109.608C33.9864 111.11 32.628 117.676 34.7648 118.542C36.356 119.187 35.6792 116.181 37.5112 116.94C40.7184 118.268 38.5068 130.869 37.58 130.887Z" fill="#E0E0E0"/>
</g>
<path d="M36.8256 128.146C36.8584 128.134 36.8884 128.114 36.9064 128.08C36.96 127.978 38.2112 125.557 37.9308 121.958C37.924 121.874 37.8532 121.812 37.7664 121.818C37.6824 121.824 37.6196 121.898 37.626 121.982C37.8632 125.021 36.956 127.245 36.7016 127.8C35.6792 125.025 34.4544 122.556 33.224 120.444C33.628 115.54 31.1152 111.525 31.0896 111.485C31.0444 111.414 30.95 111.393 30.8788 111.438C30.8076 111.483 30.7864 111.578 30.832 111.649C30.8564 111.687 33.164 115.378 32.9488 119.971C30.022 115.069 27.1652 112.22 27.108 112.164C27.028 112.086 26.8988 112.086 26.82 112.168C26.7412 112.248 26.7424 112.377 26.8228 112.456C26.8708 112.502 28.902 114.532 31.2796 118.091C29.8864 117.573 28.3748 117.303 26.9624 117.33C26.878 117.332 26.8112 117.402 26.8128 117.486C26.8144 117.57 26.8824 117.636 26.9656 117.636C26.9668 117.636 26.9676 117.636 26.9684 117.636C28.4808 117.609 30.1084 117.925 31.5732 118.533C32.3908 119.786 33.2396 121.219 34.058 122.806C33.2728 122.275 31.7484 121.54 29.798 122.056C29.7164 122.078 29.6676 122.161 29.6892 122.242C29.7108 122.324 29.794 122.374 29.876 122.351C32.35 121.698 34.0932 123.177 34.3788 123.44C36.618 127.949 38.5492 133.649 38.8052 140.182C38.8096 140.291 38.8996 140.377 39.0084 140.377C39.0112 140.377 39.0136 140.377 39.0164 140.377C39.1288 140.373 39.216 140.278 39.212 140.166C39.0392 135.745 38.1028 131.705 36.8256 128.146Z" fill="#F5F5F5"/>
<path d="M44.0016 153.193C46.1812 149.095 47.6132 143.172 47.6132 140.577C47.6132 138.383 46.5844 136.414 44.9516 135.035H33.79C32.1572 136.414 31.1284 138.383 31.1284 140.577C31.1284 143.173 32.5604 149.095 34.74 153.193H44.0016Z" fill="#E0E0E0"/>
<path d="M55.2448 23.2703H54.7872V36.8339H55.2448V23.2703Z" fill="#E6E6E6"/>
<path d="M40.5228 44.3711L55.016 35.6123L69.5092 44.3711H40.5228Z" fill="#EBEBEB"/>
<path d="M56.0164 44.3711L55.016 35.6123L61.5308 44.3711H56.0164Z" fill="#F5F5F5"/>
<path d="M145.213 23.2703H144.755V36.8339H145.213V23.2703Z" fill="#E6E6E6"/>
<path d="M130.491 44.3711L144.984 35.6123L159.477 44.3711H130.491Z" fill="#F0F0F0"/>
<path d="M145.984 44.3711L144.984 35.6123L151.499 44.3711H145.984Z" fill="#FAFAFA"/>
<path d="M98.0712 169.486C140.904 169.486 175.627 167.458 175.627 164.956C175.627 162.455 140.904 160.427 98.0712 160.427C55.2384 160.427 20.5156 162.455 20.5156 164.956C20.5156 167.458 55.2384 169.486 98.0712 169.486Z" fill="#F5F5F5"/>
<path d="M74.4468 54.8651C74.4048 54.3515 73.9756 53.9563 73.4604 53.9563C72.9452 53.9563 72.516 54.3515 72.474 54.8651L72.37 56.1371H74.5508L74.4468 54.8651ZM73.4608 55.5283C73.1948 55.5283 72.9792 55.3127 72.9792 55.0467C72.9792 54.7807 73.1948 54.5651 73.4608 54.5651C73.7268 54.5651 73.9424 54.7807 73.9424 55.0467C73.9424 55.3123 73.7268 55.5283 73.4608 55.5283Z" fill="#407BFF"/>
<path d="M124.622 54.8651C124.58 54.3515 124.151 53.9563 123.636 53.9563C123.12 53.9563 122.691 54.3515 122.649 54.8651L122.545 56.1371H124.726L124.622 54.8651ZM123.636 55.5283C123.37 55.5283 123.154 55.3127 123.154 55.0467C123.154 54.7807 123.37 54.5651 123.636 54.5651C123.902 54.5651 124.118 54.7807 124.118 55.0467C124.118 55.3123 123.902 55.5283 123.636 55.5283Z" fill="#407BFF"/>
<path d="M133.15 55.9338H63.4284V99.133H133.15V55.9338Z" fill="#263238"/>
<path opacity="0.6" d="M133.15 55.9338H63.4284V99.133H133.15V55.9338Z" fill="white"/>
<path opacity="0.9" d="M131.365 57.7183H65.2128V97.3491H131.365V57.7183Z" fill="white"/>
<path d="M133.972 97.948H62.6064V100.018H133.972V97.948Z" fill="#263238"/>
<path opacity="0.7" d="M133.972 97.948H62.6064V100.018H133.972V97.948Z" fill="white"/>
<path opacity="0.2" d="M76.9897 64.8508H71.9029V71.5348H76.9897V64.8508Z" fill="#263238"/>
<path d="M78.9316 71.5343C77.1984 68.2183 77.7316 64.8503 77.7316 64.8503H71.98C71.98 64.8503 71.4468 68.2179 73.18 71.5343H78.9316Z" fill="#407BFF"/>
<path opacity="0.5" d="M78.9316 71.5343C77.1984 68.2183 77.7316 64.8503 77.7316 64.8503H71.98C71.98 64.8503 71.4468 68.2179 73.18 71.5343H78.9316Z" fill="white"/>
<path opacity="0.2" d="M125.834 64.8508H120.748V71.5348H125.834V64.8508Z" fill="#263238"/>
<path d="M127.776 71.5343C126.043 68.2183 126.576 64.8503 126.576 64.8503H120.825C120.825 64.8503 120.292 68.2179 122.025 71.5343H127.776Z" fill="#407BFF"/>
<path opacity="0.2" d="M127.776 71.5343C126.043 68.2183 126.576 64.8503 126.576 64.8503H120.825C120.825 64.8503 120.292 68.2179 122.025 71.5343H127.776Z" fill="white"/>
<path opacity="0.2" d="M88.9132 64.9692H83.8264V71.6528H88.9132V64.9692Z" fill="#263238"/>
<path d="M90.8553 71.6528C89.1221 68.3368 89.6553 64.9688 89.6553 64.9688H83.9041C83.9041 64.9688 83.3709 68.3364 85.1041 71.6528H90.8553Z" fill="#407BFF"/>
<path opacity="0.8" d="M90.8553 71.6528C89.1221 68.3368 89.6553 64.9688 89.6553 64.9688H83.9041C83.9041 64.9688 83.3709 68.3364 85.1041 71.6528H90.8553Z" fill="white"/>
<path opacity="0.2" d="M115.448 64.8508H110.361V71.5348H115.448V64.8508Z" fill="#263238"/>
<path d="M117.39 71.5343C115.657 68.2183 116.19 64.8503 116.19 64.8503H110.438C110.438 64.8503 109.905 68.2179 111.638 71.5343H117.39Z" fill="#407BFF"/>
<path opacity="0.6" d="M117.39 71.5343C115.657 68.2183 116.19 64.8503 116.19 64.8503H110.438C110.438 64.8503 109.905 68.2179 111.638 71.5343H117.39Z" fill="white"/>
<path d="M107.788 70.5523C107.276 67.4563 108.984 64.5783 112.077 63.7639C115.214 62.9379 118.904 64.7275 119.211 68.1807C119.774 74.5187 110.003 76.1103 108.494 70.1199C108.432 69.8731 108.05 69.9775 108.112 70.2251C108.875 73.2523 111.437 74.4523 114.456 74.2699C117.656 74.0763 120.041 71.0427 119.586 67.8671C119.092 64.4147 115.418 62.6103 112.212 63.3287C108.769 64.1003 106.844 67.2595 107.406 70.6579C107.448 70.9083 107.829 70.8019 107.788 70.5523Z" fill="#407BFF"/>
<path d="M71.5876 75.925C76.5732 74.7206 81.768 74.1922 86.884 74.0434C87.1536 74.0354 87.1548 73.6154 86.884 73.6234C81.7368 73.773 76.4936 74.3078 71.476 75.5202C71.2132 75.5838 71.3244 75.9886 71.5876 75.925Z" fill="#407BFF"/>
<path d="M75.3096 76.6358C78.2952 75.9186 81.3936 75.6082 84.456 75.511C84.7256 75.5026 84.7268 75.0822 84.456 75.091C81.3604 75.1894 78.2168 75.5058 75.198 76.231C74.9352 76.2942 75.0464 76.699 75.3096 76.6358Z" fill="#407BFF"/>
<path d="M150.692 69.8828C150.652 70.0752 150.519 70.2104 150.393 70.1848C150.268 70.1592 150.197 69.9824 150.236 69.79C150.276 69.5976 150.409 69.4624 150.535 69.488C150.661 69.514 150.731 69.6904 150.692 69.8828Z" fill="#263238"/>
<path d="M150.537 70.2139C150.537 70.2139 149.874 71.2351 149.283 71.6727C149.559 72.0595 150.167 72.0319 150.167 72.0319L150.537 70.2139Z" fill="#A02724"/>
<path d="M151.614 68.9576C151.642 68.9576 151.67 68.9476 151.692 68.9268C151.739 68.8836 151.742 68.8104 151.698 68.764C151.266 68.2956 150.74 68.3788 150.718 68.3824C150.655 68.3932 150.613 68.4528 150.623 68.5152C150.634 68.578 150.694 68.6196 150.756 68.6096C150.773 68.6068 151.184 68.5464 151.529 68.9204C151.552 68.9452 151.582 68.9576 151.614 68.9576Z" fill="#263238"/>
<path d="M156.173 72.5891C155.824 74.3699 155.475 77.6331 156.721 78.8211C156.721 78.8211 156.234 80.6275 152.925 80.6275C149.286 80.6275 151.186 78.8211 151.186 78.8211C153.172 78.3467 153.121 76.8735 152.775 75.4899L156.173 72.5891Z" fill="#B55B52"/>
<path d="M157.192 70.7795C156.567 73.1131 156.32 74.5107 154.88 75.4811C152.714 76.9407 150.016 75.2655 149.932 72.7923C149.856 70.5659 150.892 67.1239 153.396 66.6535C155.863 66.1899 157.818 68.4459 157.192 70.7795Z" fill="#B55B52"/>
<path d="M152.22 71.7492C152.22 71.7492 152.739 74.9456 155.889 74.8476C155.889 74.8476 159.691 72.7088 159.297 68.666C159.297 68.666 160.509 67.0872 159.777 66.4332C159.31 66.0164 158.758 66.912 158.758 66.912C158.758 66.912 159.025 64.5948 158.075 64.3448C157.125 64.0948 157.03 65.5804 157.03 65.5804C157.03 65.5804 156.81 63.2376 155.833 63.112C154.704 62.9668 155.034 64.6296 155.034 64.6296C155.034 64.6296 154.663 62.6756 153.56 62.6812C152.64 62.686 153.085 64.5348 153.085 64.5348C153.085 64.5348 152.213 62.564 151.377 63.0168C150.54 63.4696 151.612 64.9148 151.612 64.9148C151.612 64.9148 150.018 63.7916 149.693 64.5668C149.368 65.342 150.994 66.2932 150.994 66.2932C150.994 66.2932 149.437 66.4728 149.562 67.2228C149.687 67.9728 151.517 67.8616 151.517 67.8616C151.517 67.8616 150.808 69.562 152.383 70.362L152.22 71.7492Z" fill="#263238"/>
<path d="M153.222 70.8772C153.063 71.4896 152.661 72.0164 152.24 72.3296C151.606 72.8008 151.133 72.3372 151.178 71.62C151.218 70.9748 151.597 69.952 152.296 69.7608C152.984 69.5728 153.404 70.1768 153.222 70.8772Z" fill="#B55B52"/>
<path opacity="0.2" d="M152.075 75.1204C151.51 75.0208 151.244 75.1492 150.408 74.4084C150.943 75.3072 151.87 75.914 152.884 76.0072C152.854 75.918 152.606 75.214 152.075 75.1204Z" fill="black"/>
<path d="M162.471 81.0601C163.101 82.3005 163.669 83.5277 164.212 84.7893C164.753 86.0469 165.258 87.3241 165.722 88.6269C165.959 89.2753 166.17 89.9389 166.378 90.6077L166.416 90.7329L166.436 90.7961L166.464 90.9037C166.499 91.0485 166.537 91.1889 166.553 91.3413C166.598 91.6381 166.602 91.9481 166.563 92.2433C166.493 92.8405 166.274 93.3665 166.011 93.7857C165.469 94.6257 164.804 95.1413 164.142 95.5549C163.807 95.7565 163.471 95.9365 163.123 96.0817C162.77 96.2317 162.445 96.3589 162.046 96.4701L161.289 94.8561C161.737 94.4817 162.225 94.0437 162.606 93.6189C162.994 93.1969 163.306 92.7409 163.411 92.3933C163.47 92.2217 163.472 92.0949 163.444 92.0181C163.433 91.9777 163.417 91.9481 163.399 91.9145C163.396 91.8989 163.376 91.8797 163.368 91.8617L163.339 91.7917L163.294 91.6785C163.056 91.0753 162.801 90.4741 162.543 89.8697C162.024 88.6633 161.478 87.4581 160.921 86.2545L159.246 82.6569L162.471 81.0601Z" fill="#B55B52"/>
<path d="M162.11 94.6484L160.368 94.1956L160.269 97.0068C160.269 97.0068 161.631 97.2092 162.465 96.376L162.11 94.6484Z" fill="#B55B52"/>
<path d="M157.901 93.7219L158.294 96.1895L160.268 97.0067L160.368 94.1955L157.901 93.7219Z" fill="#FFC3BD"/>
<path d="M147.303 79.8667C146.618 79.8599 145.838 79.8487 145.102 79.8123C144.357 79.7711 143.614 79.7275 142.877 79.6587C142.143 79.5883 141.409 79.5083 140.698 79.3879C140.335 79.3411 139.993 79.2599 139.638 79.1987C139.3 79.1151 138.946 79.0463 138.622 78.9491L138.127 78.8103L137.659 78.6459L137.524 78.5987C137.497 78.5203 137.471 78.4291 137.454 78.3251C137.408 78.0595 137.374 77.7395 137.367 77.4039C137.343 76.0491 137.709 73.5827 137.913 72.1035L136.38 71.7827C135.628 73.2883 134.7 75.7283 134.401 77.5031C134.333 77.9495 134.279 78.4163 134.293 78.9331C134.313 79.4495 134.358 80.0243 134.669 80.7291C134.829 81.0775 134.916 81.1203 135.301 81.4451C135.485 81.6063 135.722 81.7503 135.925 81.8503L136.235 81.9923C136.442 82.0851 136.65 82.1835 136.858 82.2703L137.48 82.5047C139.143 83.1011 140.795 83.4047 142.442 83.6287C143.266 83.7219 144.088 83.8063 144.91 83.8395C145.742 83.8739 146.531 83.9019 147.415 83.8659L147.303 79.8667Z" fill="#B55B52"/>
<path d="M137.877 72.2547L139.18 69.5031L136.623 68.7627C136.623 68.7627 135.442 70.5583 136.468 72.0035L137.877 72.2547Z" fill="#B55B52"/>
<path d="M139.022 68.2631L137.041 67.2427L136.623 68.7627L139.18 69.5031L139.022 68.2631Z" fill="#B55B52"/>
<path d="M150.952 79.008C150.952 79.008 151.53 78.4084 151.118 77.7228C151.118 77.7228 159.555 77.024 157.355 79.2556L150.952 79.008Z" fill="#407BFF"/>
<path opacity="0.3" d="M150.952 79.008C150.952 79.008 151.53 78.4084 151.118 77.7228C151.118 77.7228 159.555 77.024 157.355 79.2556L150.952 79.008Z" fill="white"/>
<path d="M160.383 89.2917C160.383 89.2917 163.296 88.0517 165.176 85.7193C165.176 85.7193 163.359 79.9241 161.292 79.5453C159.225 79.1665 160.383 89.2917 160.383 89.2917Z" fill="#407BFF"/>
<path opacity="0.5" d="M160.383 89.2917C160.383 89.2917 163.296 88.0517 165.176 85.7193C165.176 85.7193 163.359 79.9241 161.292 79.5453C159.225 79.1665 160.383 89.2917 160.383 89.2917Z" fill="white"/>
<path opacity="0.2" d="M160.061 83.6584C160.044 86.3216 160.383 89.2916 160.383 89.2916C160.383 89.2916 161.001 89.0268 161.847 88.518C161.43 86.7196 160.629 84.8528 160.061 83.6584Z" fill="black"/>
<path d="M161.838 79.7884C160.194 87.8216 160.422 95.0396 160.655 99.3704C160.73 100.77 159.719 102.014 158.358 102.211C154.882 102.714 151.303 102.375 149.164 102.064C148.002 101.895 147.072 100.961 146.887 99.7748C144.975 87.468 145.953 82.554 146.582 80.1576C146.799 79.328 147.549 78.7532 148.406 78.752C151.782 78.746 160.499 78.8256 161.838 79.7884Z" fill="#407BFF"/>
<path opacity="0.5" d="M161.838 79.7884C160.194 87.8216 160.422 95.0396 160.655 99.3704C160.73 100.77 159.719 102.014 158.358 102.211C154.882 102.714 151.303 102.375 149.164 102.064C148.002 101.895 147.072 100.961 146.887 99.7748C144.975 87.468 145.953 82.554 146.582 80.1576C146.799 79.328 147.549 78.7532 148.406 78.752C151.782 78.746 160.499 78.8256 161.838 79.7884Z" fill="white"/>
<path opacity="0.2" d="M146.289 81.4631C145.977 83.0651 145.721 85.0415 145.756 88.6059C148.236 87.4887 148.832 83.6583 148.832 83.6583L147.718 81.1223L146.289 81.4631Z" fill="black"/>
<path d="M148.275 78.7596C147.145 78.1292 141.915 79.5596 141.915 79.5596V85.4732C141.915 85.4732 147.155 86.794 148.255 84.9904C149.355 83.1868 149.659 79.5324 148.275 78.7596Z" fill="#407BFF"/>
<path opacity="0.5" d="M148.275 78.7596C147.145 78.1292 141.915 79.5596 141.915 79.5596V85.4732C141.915 85.4732 147.155 86.794 148.255 84.9904C149.355 83.1868 149.659 79.5324 148.275 78.7596Z" fill="white"/>
<path d="M153.592 162.458H151.157L150.915 156.821H153.349L153.592 162.458Z" fill="#B55B52"/>
<path d="M171.459 161.332L169.08 161.846L166.691 156.596L169.07 156.081L171.459 161.332Z" fill="#B55B52"/>
<path opacity="0.2" d="M150.916 156.823L151.04 159.728H153.475L153.351 156.823H150.916Z" fill="black"/>
<path opacity="0.2" d="M169.071 156.082L166.691 156.597L167.924 159.304L170.304 158.788L169.071 156.082Z" fill="black"/>
<path d="M151.85 100.538C151.85 100.538 155.372 123.931 156.889 130.9C158.55 138.532 166.695 158.994 166.695 158.994L171.053 158.05C171.053 158.05 168.71 151.265 166.371 140.976C165.591 137.546 164.14 134.26 163.792 131.592C163.208 127.124 162.474 114.931 161.891 109.122C161.405 104.275 160.251 100.538 160.251 100.538H151.85V100.538Z" fill="#263238"/>
<path d="M165.652 157.539C165.634 157.543 166.464 159.115 166.464 159.115L171.367 158.054L170.954 156.58L165.652 157.539Z" fill="#263238"/>
<path opacity="0.5" d="M153.596 107.166C156.79 107.792 157.212 124.494 156.828 130.621C155.907 126.29 153.798 113.167 152.877 107.252C153.089 107.146 153.327 107.113 153.596 107.166Z" fill="black"/>
<path d="M147.231 100.538C147.231 100.538 147.656 123.528 147.921 130.952C148.197 138.673 150.133 159.166 150.133 159.166H154.257C154.257 159.166 155.488 152.304 155.592 142.526C155.64 138.03 154.894 133.93 154.952 131.541C155.05 127.48 155.367 116.296 156.03 110.838C156.717 105.185 156.59 100.538 156.59 100.538H147.231Z" fill="#263238"/>
<path d="M149.34 157.523C149.32 157.523 149.572 159.235 149.572 159.235H154.589L154.724 157.707L149.34 157.523Z" fill="#263238"/>
<path d="M151.218 161.509L154.019 161.506C154.14 161.508 154.229 161.594 154.233 161.713L154.721 164.406C154.729 164.639 154.54 164.868 154.298 164.918C154.266 164.924 154.236 164.927 154.205 164.927C153.05 164.887 152.031 164.805 150.588 164.783C148.884 164.754 149.277 164.966 147.269 164.96C146.06 164.955 146.105 163.576 146.63 163.517C149.028 163.262 149.408 162.557 150.474 161.732C150.702 161.574 150.966 161.495 151.218 161.509Z" fill="#263238"/>
<path d="M168.628 160.725L171.365 160.132C171.484 160.108 171.589 160.174 171.618 160.29L172.662 162.819C172.719 163.046 172.582 163.31 172.356 163.409C172.326 163.422 172.297 163.431 172.267 163.438C171.129 163.642 170.116 163.776 168.7 164.058C167.03 164.388 167.458 164.513 165.494 164.93C164.311 165.18 164.064 163.822 164.565 163.654C166.856 162.899 167.079 162.13 167.947 161.099C168.136 160.897 168.378 160.764 168.628 160.725Z" fill="#263238"/>
<path d="M115.56 91.1216L117.193 89.2472C117.193 89.2472 117.479 87.994 117.664 87.61C117.856 87.2096 118.27 86.3056 118.689 86.16C119.142 86.0028 120.218 86.3372 120.529 86.702C120.936 87.1796 121.128 88.6296 120.848 89.1912C120.551 89.7884 118.532 90.5148 118.532 90.5148L116.944 92.4956L115.56 91.1216Z" fill="#FFB573"/>
<path d="M115.208 91.0074L116.634 89.4526L118.543 91.0782L116.996 92.9042L115.208 91.0074Z" fill="#407BFF"/>
<path opacity="0.8" d="M115.208 91.0074L116.634 89.4526L118.543 91.0782L116.996 92.9042L115.208 91.0074Z" fill="white"/>
<path d="M104.987 81.8857C104.987 81.8857 106.475 83.5793 108.626 89.1161C110.776 94.6529 113.159 93.0381 115.776 90.0529L117.926 92.0105C117.926 92.0105 113.906 97.0193 111.376 97.0193C108.559 97.0193 105.826 92.6533 105.276 89.6033C104.726 86.5533 104.987 81.8857 104.987 81.8857Z" fill="#263238"/>
<path opacity="0.4" d="M105.513 85.089L104.713 84.4202L104.339 86.5502C104.392 87.1682 104.464 87.7706 104.563 88.3202C104.877 90.0594 106.055 92.3398 107.32 94.2378C106.858 90.0214 105.513 85.089 105.513 85.089Z" fill="black"/>
<path d="M94.126 68.9033C94.126 68.9033 92.9896 68.8861 93.1388 69.7785C93.3276 70.9077 97.176 70.5757 97.176 70.5757L96.1508 69.2285L94.126 68.9033Z" fill="#263238"/>
<path d="M109.996 156.482L110.386 161.725H108.056L106.912 156.668L109.996 156.482Z" fill="#FFB573"/>
<path d="M110.606 161.438L107.747 161.435C107.624 161.437 107.533 161.525 107.529 161.646L107.031 164.394C107.023 164.632 107.216 164.866 107.463 164.917C107.494 164.923 107.526 164.926 107.558 164.926C108.737 164.885 109.776 164.802 111.25 164.779C112.988 164.75 112.587 164.966 114.636 164.96C115.871 164.955 115.825 163.548 115.289 163.487C112.841 163.227 112.453 162.507 111.365 161.665C111.133 161.504 110.863 161.423 110.606 161.438Z" fill="#263238"/>
<path d="M110.864 160.614L107.204 160.792C107.204 160.792 103.515 147.669 102.831 139.691C102.784 139.143 102.75 138.617 102.734 138.115C102.662 135.789 102.415 133.466 101.927 131.191L101.757 130.397L99.7448 121.001V120.996L99.3628 119.205C99.3628 119.205 97.0784 115.379 97.1636 109.563C97.1848 108.089 97.3588 106.48 97.762 104.777C97.7748 104.735 97.7832 104.693 97.7916 104.646L106.576 104.901L106.912 109.244L110.864 160.614Z" fill="#407BFF"/>
<path opacity="0.2" d="M100.628 125.118C101.843 119.016 101.235 111.776 101.235 111.776L99.438 112.496L98.2256 115.865C98.2256 115.865 98.2292 116.135 98.2388 116.584C98.7972 118.254 99.3636 119.206 99.3636 119.206L100.628 125.118Z" fill="black"/>
<path d="M93.2656 156.482L92.5008 161.725H90.1716L90.182 156.668L93.2656 156.482Z" fill="#FFB573"/>
<path d="M92.696 161.438L89.8368 161.435C89.7132 161.437 89.6224 161.525 89.6188 161.646L89.1208 164.394C89.1124 164.632 89.3056 164.866 89.5528 164.917C89.5844 164.923 89.6164 164.926 89.6476 164.926C90.8268 164.885 91.8664 164.802 93.3396 164.779C95.078 164.75 94.6772 164.966 96.7264 164.96C97.9608 164.955 97.9148 163.548 97.3792 163.487C94.9312 163.227 94.5432 162.507 93.4556 161.665C93.2232 161.504 92.9528 161.423 92.696 161.438Z" fill="#263238"/>
<path d="M103.146 104.9L102.47 108.089L99.7444 121L99.2988 123.119L93.2232 160.703L89.576 160.546C89.576 160.546 88.7736 148.428 89.8692 140.362C89.954 139.725 90.056 139.113 90.1664 138.536C90.6844 135.84 90.9772 133.11 90.9476 130.367L90.9392 129.578L90.8288 119.205C90.8288 119.205 90.3448 114.166 91.228 108.722C91.4488 107.364 91.7504 105.984 92.1704 104.646L97.762 104.778L103.146 104.9Z" fill="#407BFF"/>
<path opacity="0.2" d="M107.106 112.024L103.862 112.309C102.971 112.491 102.088 111.948 101.846 111.065L101.74 110.678L101.06 108.169L100.254 111.078C100.007 111.969 99.1412 112.538 98.224 112.406L96.4324 112.152L90.8884 111.382C90.9952 108.958 91.75 105.983 92.1704 104.645L97.762 104.777C97.7748 104.734 97.7832 104.692 97.7916 104.645L106.576 104.9L107.106 112.024Z" fill="black"/>
<path d="M91.9572 98.3725L90.4476 109.906L98.2852 111.104C99.1464 111.227 99.9648 110.691 100.197 109.852L100.956 107.11L101.697 109.841C101.922 110.672 102.754 111.184 103.597 111.012L107.403 110.357L106.405 96.9941C106.405 96.9941 106.976 88.4397 105.638 82.9621C105.384 81.9193 104.433 81.1929 103.389 80.9437C101.013 80.3765 95.9088 79.6641 90.1132 81.9497C89.5748 82.1621 89.244 82.7113 89.3156 83.2861L91.9572 98.3725Z" fill="#263238"/>
<path opacity="0.5" d="M100.402 93.8385C100.597 93.8385 100.756 93.6803 100.756 93.4853C100.756 93.2902 100.597 93.1321 100.402 93.1321C100.207 93.1321 100.049 93.2902 100.049 93.4853C100.049 93.6803 100.207 93.8385 100.402 93.8385Z" fill="black"/>
<path opacity="0.5" d="M100.75 98.7257C100.945 98.7257 101.103 98.5676 101.103 98.3725C101.103 98.1774 100.945 98.0193 100.75 98.0193C100.555 98.0193 100.396 98.1774 100.396 98.3725C100.396 98.5676 100.555 98.7257 100.75 98.7257Z" fill="black"/>
<path opacity="0.5" d="M100.892 103.553C101.087 103.553 101.245 103.394 101.245 103.199C101.245 103.004 101.087 102.846 100.892 102.846C100.697 102.846 100.539 103.004 100.539 103.199C100.539 103.394 100.697 103.553 100.892 103.553Z" fill="black"/>
<path d="M95.0764 80.2264C95.0764 80.2264 96.9528 79.4124 99.302 79.9328L100.169 80.4268L100.474 81.3928L99.3752 82.2536L96.7816 82.5176L94.638 81.6308L94.7572 80.678L95.0764 80.2264Z" fill="#263238"/>
<path d="M94.8632 80.7253C95.438 79.9637 95.7008 79.1953 95.5 78.2705L99.3824 75.1245C98.8344 80.3741 99.1028 79.4189 99.8844 80.9281C99.8844 80.9281 99.3428 82.6781 96.3132 82.1341C94.346 81.7813 94.8632 80.7253 94.8632 80.7253Z" fill="#FFB573"/>
<path opacity="0.2" d="M95.4996 78.2705L99.382 75.1245C99.282 75.8861 99.204 76.5201 99.15 77.0705C98.7384 77.9065 97.682 79.4301 95.4864 79.4933C95.5828 79.1101 95.5948 78.7081 95.4996 78.2705Z" fill="black"/>
<path d="M100.035 72.6424C99.4872 75.1508 99.2912 76.6447 97.81 77.7428C95.5844 79.3991 92.6396 77.7456 92.4312 75.132C92.2428 72.7616 93.1748 69.0699 95.8088 68.4495C97.6868 67.9968 99.576 69.1524 100.029 71.0304C100.156 71.5596 100.158 72.1116 100.035 72.6424Z" fill="#FFB573"/>
<path d="M95.9608 72.7568C95.928 72.9639 95.794 73.1147 95.6588 73.0927C95.5236 73.0707 95.4416 72.8879 95.474 72.6808C95.5068 72.4736 95.6408 72.326 95.776 72.3476C95.9116 72.3696 95.9936 72.5524 95.9608 72.7568Z" fill="#263238"/>
<path d="M93.6328 72.3948C93.6 72.5992 93.466 72.75 93.3308 72.728C93.1956 72.706 93.1136 72.5232 93.1464 72.3188C93.1792 72.1144 93.3132 71.9608 93.4484 71.9828C93.5832 72.0048 93.6652 72.1876 93.6328 72.3948Z" fill="#263238"/>
<path d="M94.4844 72.6077C94.14 73.1985 93.7156 73.7393 93.2232 74.2141C93.544 74.6121 94.1808 74.5545 94.1808 74.5545L94.4844 72.6077Z" fill="#ED893E"/>
<path d="M96.912 71.9157C96.9328 71.9189 96.954 71.9177 96.9744 71.9121C97.032 71.8781 97.054 71.8053 97.0244 71.7453C96.844 71.3949 96.5068 71.1525 96.1172 71.0925C96.0496 71.0865 95.9896 71.1369 95.9836 71.2045C95.9776 71.2721 96.0276 71.3321 96.0956 71.3377C96.4032 71.3881 96.6684 71.5829 96.8076 71.8621C96.8312 71.8969 96.8704 71.9169 96.912 71.9157Z" fill="#263238"/>
<path d="M92.8732 71.3142C92.9148 71.3158 92.9544 71.2954 92.9772 71.2606C93.1464 71.0014 93.4284 70.8382 93.7376 70.8206C93.8052 70.8226 93.8612 70.7694 93.8632 70.7018C93.8652 70.6342 93.8116 70.5782 93.7444 70.5762C93.3492 70.5898 92.9848 70.7942 92.7672 71.1242C92.7292 71.1774 92.7416 71.2518 92.7948 71.2898C92.7956 71.2906 92.7968 71.2914 92.7976 71.2918C92.8196 71.3078 92.8464 71.3158 92.8732 71.3142Z" fill="#263238"/>
<path d="M93.3856 75.3844C93.3856 75.3844 94.0484 75.2668 95.8804 75.3164C95.6384 75.8088 95.2132 76.202 94.2732 76.1704C93.3336 76.1388 93.3856 75.3844 93.3856 75.3844Z" fill="#263238"/>
<path d="M94.732 75.7916C94.3728 75.7612 94.0128 75.8348 93.6944 76.0036C93.8672 76.114 94.0684 76.1712 94.2732 76.1684C94.6316 76.1992 94.9912 76.1256 95.3084 75.9568C95.1368 75.846 94.936 75.7888 94.732 75.7916Z" fill="#FF5652"/>
<path d="M93.4712 75.3724C93.5044 75.5028 93.6104 75.602 93.7428 75.6272C94.2868 75.6416 94.8312 75.6148 95.3712 75.5468C95.5428 75.5424 95.7016 75.4556 95.7988 75.3144C95.0224 75.2804 94.2444 75.2996 93.4712 75.3724Z" fill="white"/>
<path d="M94.8564 83.4972L95.8884 86.8584L98.2872 90.3256L100.256 92.3724L100.993 89.3712L100.756 83.1076L100.718 81.7588L100.167 80.9832L99.2916 81.7504L98.546 82.038L97.4548 82.0472L94.5876 81.1756L94.8564 83.4972Z" fill="#407BFF"/>
<path opacity="0.8" d="M94.8564 83.4972L95.8884 86.8584L98.2872 90.3256L100.256 92.3724L100.993 89.3712L100.756 83.1076L100.718 81.7588L100.167 80.9832L99.2916 81.7504L98.546 82.038L97.4548 82.0472L94.5876 81.1756L94.8564 83.4972Z" fill="#407BFF"/>
<path opacity="0.5" d="M94.8564 83.4972L95.8884 86.8584L98.2872 90.3256L100.256 92.3724L100.993 89.3712L100.756 83.1076L100.718 81.7588L100.167 80.9832L99.2916 81.7504L98.546 82.038L97.4548 82.0472L94.5876 81.1756L94.8564 83.4972Z" fill="white"/>
<path d="M97.1708 83.1076C97.1708 83.1076 97.5192 83.878 98.2872 84.5344C98.2872 84.5344 97.8064 87.9608 98.5456 90.3608L100.255 92.3724L100.756 89.8844C100.756 89.8844 99.99 85.9032 98.9632 84.3972C98.9632 84.3972 99.3908 83.588 99.532 82.7576L98.9188 82.2544C98.9188 82.2544 98.0676 82.8624 97.556 82.4388L97.1708 83.1076Z" fill="#407BFF"/>
<path d="M94.7888 80.5368C94.7888 80.5368 96.3708 81.8852 97.9604 81.8852C99.55 81.8852 99.726 80.2268 99.726 80.2268L100.396 80.9512C100.396 80.9512 100.502 82.1292 99.8496 83.3692L98.1912 82.25L97.0672 83.868C97.0672 83.868 95.3092 83.0212 94.4476 81.5036L94.7888 80.5368Z" fill="#407BFF"/>
<path opacity="0.8" d="M94.7888 80.5368C94.7888 80.5368 96.3708 81.8852 97.9604 81.8852C99.55 81.8852 99.726 80.2268 99.726 80.2268L100.396 80.9512C100.396 80.9512 100.502 82.1292 99.8496 83.3692L98.1912 82.25L97.0672 83.868C97.0672 83.868 95.3092 83.0212 94.4476 81.5036L94.7888 80.5368Z" fill="white"/>
<path d="M95.0764 80.2265C95.0764 80.2265 93.7788 84.2261 100.166 91.8545C100.166 91.8545 101.313 82.5089 99.302 79.9329L100.7 80.4853L102.154 82.6837L101.088 83.3685L102.406 83.9561C102.406 83.9561 102.219 86.9849 100.364 92.8101C100.364 92.8101 96.1644 89.5633 93.4192 85.1801L94.6972 84.1613L92.9892 83.8917L93.7484 80.8569L95.0764 80.2265Z" fill="#263238"/>
<path opacity="0.3" d="M95.0764 80.2265C95.0764 80.2265 93.7788 84.2261 100.166 91.8545C100.166 91.8545 101.313 82.5089 99.302 79.9329L100.7 80.4853L102.154 82.6837L101.088 83.3685L102.406 83.9561C102.406 83.9561 102.219 86.9849 100.364 92.8101C100.364 92.8101 96.1644 89.5633 93.4192 85.1801L94.6972 84.1613L92.9892 83.8917L93.7484 80.8569L95.0764 80.2265Z" fill="black"/>
<path d="M98.8008 74.8033C98.8008 74.8033 97.7756 75.3309 98.4508 73.3421C99.126 71.3533 98.2256 70.7033 98.1008 69.7533C98.1008 69.7533 92.2756 69.9533 92.5508 67.3781C92.8296 64.7681 96.326 66.8529 96.326 66.8529C96.326 66.8529 96.0608 65.6837 97.0376 65.5529C98.3436 65.3777 99.5356 67.9029 101.156 68.6529C102.776 69.4029 101.876 71.9169 101.876 71.9169C101.876 71.9169 102.374 73.5917 99.41 76.7961C99.306 76.9085 99.1164 76.8497 99.0932 76.6985L98.8008 74.8033Z" fill="#263238"/>
<path d="M97.096 72.3977C97.0308 72.3501 96.7628 72.2201 96.6128 72.1489C96.3552 71.9477 95.8908 71.8325 95.522 71.8085C95.1504 71.7833 94.8588 71.8449 94.7224 71.9749C94.704 71.9921 94.6944 72.0197 94.6816 72.0437C94.6332 72.0049 94.5816 71.9841 94.5184 71.9753C94.4472 71.9665 94.3864 71.9825 94.342 72.0009C94.3292 71.9705 94.3236 71.9329 94.3044 71.9093C94.0908 71.6461 93.5348 71.4965 93.1084 71.4693C92.7364 71.4445 92.4452 71.5061 92.3092 71.6357C92.2468 71.6949 92.2164 71.7929 92.2184 71.9269C92.2232 72.2657 92.4428 72.8037 92.654 72.9933C92.8304 73.1517 93.2272 73.2513 93.5512 73.2513C93.7136 73.2513 93.8576 73.2261 93.9468 73.1713C94.1244 73.0621 94.3208 72.6953 94.376 72.3709C94.3872 72.3053 94.382 72.2525 94.3808 72.1965C94.406 72.1857 94.454 72.1677 94.4932 72.1745C94.5312 72.1805 94.5928 72.2285 94.6328 72.2769C94.6416 72.6161 94.8584 73.1453 95.0672 73.3329C95.2436 73.4913 95.6404 73.5909 95.9644 73.5909C96.1264 73.5909 96.2704 73.5657 96.3596 73.5113V73.5109C96.5372 73.4013 96.7336 73.0345 96.7884 72.7101C96.8044 72.6153 96.8052 72.5321 96.7956 72.4577C96.87 72.4945 96.9404 72.5325 96.9784 72.5601C97.5368 72.9649 98.9756 74.5069 98.99 74.5225L99.1364 74.3861C99.0772 74.3213 97.67 72.8137 97.096 72.3977ZM94.2568 72.3505C94.2076 72.6409 94.0328 72.9765 93.8832 73.0689C93.6644 73.2049 92.9552 73.1025 92.734 72.9037C92.5652 72.7521 92.3428 72.2505 92.3384 71.9249C92.3372 71.8273 92.3556 71.7577 92.392 71.7229C92.486 71.6337 92.6904 71.5841 92.9536 71.5841C93.0008 71.5841 93.0504 71.5857 93.1012 71.5889C93.5836 71.6201 94.0504 71.7865 94.2116 71.9853C94.2684 72.0561 94.2848 72.1857 94.2568 72.3505ZM96.67 72.6893C96.6216 72.9745 96.4436 73.3169 96.2964 73.4081C96.0768 73.5437 95.368 73.4413 95.1468 73.2429C94.978 73.0913 94.756 72.5897 94.7512 72.2641C94.75 72.1665 94.7684 72.0965 94.8048 72.0621C94.8984 71.9729 95.1032 71.9233 95.366 71.9233C95.4136 71.9233 95.4628 71.9249 95.514 71.9281C95.9964 71.9593 96.4632 72.1257 96.6244 72.3245C96.6816 72.3949 96.698 72.5245 96.67 72.6893Z" fill="#263238"/>
<path d="M100.904 75.1965C100.479 75.6813 99.8804 75.9789 99.2376 76.0257C98.3832 76.0753 98.134 75.2713 98.5212 74.5581C98.868 73.9189 99.7324 73.1185 100.517 73.4005C101.301 73.6821 101.42 74.5921 100.904 75.1965Z" fill="#FFB573"/>
<path opacity="0.4" d="M89.486 84.4001L91.1492 93.6673L91.344 93.4257C92.2544 88.6745 90.9836 84.1245 90.9836 84.1245L90.478 84.3941L89.486 84.4001Z" fill="black"/>
<path d="M78.978 91.4421L77.0428 89.8825C77.0428 89.8825 76.5412 88.6989 76.2928 88.3533C76.0336 87.9929 75.4676 87.1753 75.0292 87.1053C74.5556 87.0297 73.5552 87.5473 73.3128 87.9609C72.9956 88.5021 73.0604 89.9637 73.434 90.4677C73.8312 91.0037 75.9468 91.3653 75.9468 91.3653L77.8568 93.0377L78.978 91.4421Z" fill="#FFB573"/>
<path d="M79.3052 91.2678L77.6288 89.9866L76.0344 91.9214L77.8768 93.4482L79.3052 91.2678Z" fill="#407BFF"/>
<path opacity="0.8" d="M79.3052 91.2678L77.6288 89.9866L76.0344 91.9214L77.8768 93.4482L79.3052 91.2678Z" fill="white"/>
<path d="M89.7712 82.3445C89.6204 82.1653 89.0864 82.4026 88.9516 82.5942C88.5064 83.227 86.012 89.3294 85.0328 91.7422C84.8036 92.307 84.1892 92.6098 83.602 92.4458C82.4056 92.1118 80.3884 91.4834 78.72 90.6422L76.57 92.5994C76.57 92.5994 82.1664 97.0654 85.2444 97.0654C88.0612 97.0654 90.6972 91.0974 91.2472 88.0474C91.6772 85.6654 90.912 83.6989 89.7712 82.3445Z" fill="#263238"/>
<path d="M130.772 83.0702L121.105 82.1646C121.105 82.1646 118.537 86.1873 117.445 95.3437L127.148 96.2525C128.127 88.2742 130.273 84.0286 130.772 83.0702Z" fill="#407BFF"/>
<path opacity="0.4" d="M130.772 83.0702L121.105 82.1646C121.105 82.1646 118.537 86.1873 117.445 95.3437L127.148 96.2525C128.127 88.2742 130.273 84.0286 130.772 83.0702Z" fill="white"/>
<path d="M130.772 83.0702L121.105 82.1646C121.105 82.1646 118.887 85.8374 117.795 94.9942L127.498 95.903C128.477 87.9242 130.273 84.0286 130.772 83.0702Z" fill="#407BFF"/>
<path opacity="0.7" d="M130.772 83.0702L121.105 82.1646C121.105 82.1646 118.887 85.8374 117.795 94.9942L127.498 95.903C128.477 87.9242 130.273 84.0286 130.772 83.0702Z" fill="white"/>
<path d="M122.377 82.2465C122.23 82.0337 121.935 81.9805 121.722 82.1277L120.775 82.7841C120.562 82.9313 120.509 83.2261 120.656 83.4389C120.803 83.6517 121.098 83.7049 121.311 83.5577C121.347 83.5325 121.356 83.4853 121.33 83.4485C121.305 83.4121 121.258 83.4033 121.221 83.4289C121.079 83.5273 120.883 83.4917 120.785 83.3497C120.686 83.2081 120.722 83.0113 120.864 82.9133L121.812 82.2569C121.953 82.1585 122.15 82.1941 122.248 82.3361C122.346 82.4777 122.31 82.6741 122.169 82.7725L121.849 82.9945L121.666 83.1209L121.627 83.1477C121.546 83.2041 121.435 83.1825 121.38 83.1029C121.324 83.0213 121.345 82.9105 121.425 82.8557L121.861 82.5537C121.897 82.5285 121.906 82.4809 121.88 82.4445C121.855 82.4081 121.808 82.3993 121.771 82.4245L121.335 82.7265C121.181 82.8301 121.143 83.0409 121.247 83.1913C121.351 83.3417 121.562 83.3801 121.713 83.2757L121.752 83.2489L121.934 83.1225L122.257 82.8993C122.471 82.7537 122.524 82.4593 122.377 82.2465Z" fill="#407BFF"/>
<path d="M38.8736 75.7492C38.8736 75.7492 40.0048 74.9976 39.4588 72.7564C39.4588 72.7564 41.234 72.2836 41.5232 70.9752C41.5232 70.9752 41.8432 72.1096 42.482 71.9844C43.1208 71.8592 42.482 70.7632 42.482 70.7632C42.482 70.7632 43.4904 71.77 44.0048 71.6828C44.5192 71.5952 44.0048 70.7632 44.0048 70.7632C44.0048 70.7632 44.4528 71.7312 45.0088 71.5684C45.7396 71.3544 44.266 69.83 44.266 69.83C44.266 69.83 45.3264 71.5084 45.6328 71.1052C45.9716 70.6596 43.7428 68.3236 40.8504 68.7124C40.8504 68.7124 37.286 68.182 36.3312 71.7888C36.3312 71.7888 33.5728 73.5064 34.952 76.1308C34.952 76.1308 32.6888 78.7432 34.068 80.1108C34.068 80.1108 31.8008 83.9824 34.5276 83.9024C37.2544 83.8224 45.1612 83.3548 46.2628 82.5932C47.3644 81.8316 45.9144 80.0044 45.9144 80.0044C45.9144 80.0044 46.4064 79.4624 46.2844 78.1892C46.162 76.916 45.4596 76.3856 45.4596 76.3856C45.4596 76.3856 46.3604 75.7104 45.8792 74.604C44.7356 71.9752 40.2564 71.7844 40.2564 71.7844C40.2564 71.7844 40.6024 76.1384 38.8736 75.7492Z" fill="#263238"/>
<path d="M60.0572 84.1868C60.3612 82.9072 60.4424 81.9688 60.4424 81.9688L61.0024 80.6612C61.0024 80.6612 61.8644 79.1152 61.618 78.6512C61.322 78.0944 59.7908 77.6768 59.206 77.9128C58.6896 78.1212 58.1252 79.8604 58.1252 79.8604L58.4664 81.634C58.4664 81.634 58.368 82.4688 58.0496 83.5448L60.0572 84.1868Z" fill="#CE7A63"/>
<path d="M60.3892 83.5964C59.6348 86.772 58.1924 91.4168 52.5296 89.6752C49.6132 88.7784 45.1912 86.376 46.448 83.4028C47.7048 80.4296 48.1808 84.97 53.1388 86.5668C56.8908 87.7752 57.2708 85.0904 57.9424 82.82L60.3892 83.5964Z" fill="#407BFF"/>
<path d="M39.4768 80.5348C39.4768 80.5348 40.9456 80.0932 43.0808 80.7532C43.0808 80.7532 43.7712 82.4268 42.28 82.5004C40.7888 82.574 39.4588 81.064 39.4588 81.064L39.4768 80.5348Z" fill="#407BFF"/>
<path d="M39.1216 81.5028C39.1216 81.5028 40.0744 81.4668 40.0668 80.2884C40.0596 79.1104 39.8636 77.678 39.8636 77.678L42.694 77.9288C42.694 77.9288 42.3156 81.4064 43.6104 81.584C43.6104 81.584 42.4792 83.3172 39.1216 81.5028Z" fill="#CE7A63"/>
<path opacity="0.1" d="M42.694 77.9283L39.8636 77.6775C39.8636 77.6775 39.9352 78.2015 39.9932 78.8755C40.4364 79.4611 41.2656 80.1655 42.7656 80.4099C42.542 79.3399 42.694 77.9283 42.694 77.9283Z" fill="black"/>
<path d="M38.0504 73.8796C38.4272 76.4156 38.5308 77.4972 39.9304 78.694C42.0364 80.496 45.0676 79.4804 45.458 76.8832C45.8092 74.5456 45.136 70.7936 42.5548 69.9932C40.7136 69.412 38.7496 70.4332 38.1684 72.2748C38.0048 72.7928 37.9644 73.3424 38.0504 73.8796Z" fill="#CE7A63"/>
<path d="M43.7288 74.4663C43.954 74.9243 44.2408 75.3491 44.582 75.7287C44.382 75.9011 44.116 75.9759 43.8556 75.9335L43.7288 74.4663Z" fill="#BA4D3C"/>
<path d="M40.9392 73.3111C40.9216 73.3083 40.9048 73.3019 40.8904 73.2915C40.8456 73.2575 40.8368 73.1939 40.8708 73.1491L40.872 73.1475C41.0988 72.8335 41.464 72.6499 41.8508 72.6551C41.906 72.6611 41.9468 72.7091 41.944 72.7647C41.9396 72.8195 41.8924 72.8611 41.8372 72.8579C41.5176 72.8587 41.218 73.0131 41.0312 73.2727C41.0096 73.3007 40.9748 73.3151 40.9392 73.3111Z" fill="#263238"/>
<path d="M45.3424 72.9671C45.3248 72.9643 45.308 72.9579 45.2932 72.9475C45.0392 72.7563 44.7088 72.6979 44.4048 72.7911C44.3528 72.8123 44.2936 72.7871 44.2724 72.7351L44.272 72.7339C44.2528 72.6807 44.2792 72.6219 44.332 72.6015C44.7004 72.4835 45.1032 72.5507 45.4136 72.7815C45.4604 72.8123 45.4736 72.8755 45.4424 72.9223C45.4208 72.9559 45.3816 72.9731 45.3424 72.9671Z" fill="#263238"/>
<path d="M42.2336 74.2496C42.2508 74.456 42.3756 74.614 42.5132 74.6036C42.6508 74.5928 42.7436 74.416 42.724 74.2064C42.704 73.9972 42.582 73.842 42.4476 73.8528C42.3128 73.8636 42.2168 74.0404 42.2336 74.2496Z" fill="#263238"/>
<path d="M44.5804 74.048C44.5976 74.2544 44.7224 74.4124 44.8572 74.4016C44.9916 74.3908 45.0876 74.214 45.0708 74.0048C45.054 73.7956 44.9288 73.6404 44.7944 73.6512C44.6592 73.662 44.5608 73.8388 44.5804 74.048Z" fill="#263238"/>
<path d="M44.7352 73.6675L45.2208 73.4819C45.2208 73.4819 44.9976 73.8919 44.7352 73.6675Z" fill="#263238"/>
<path d="M42.3888 73.8692L42.8744 73.6836C42.8744 73.6836 42.6508 74.0936 42.3888 73.8692Z" fill="#263238"/>
<path d="M43.3632 77.1435C43.4832 77.1439 43.6028 77.1335 43.7208 77.1123C43.7548 77.1067 43.778 77.0747 43.7724 77.0407C43.7724 77.0399 43.772 77.0395 43.772 77.0387C43.7664 77.0051 43.7348 76.9823 43.7012 76.9875C43.1724 77.0911 42.626 76.9383 42.2276 76.5759C42.204 76.5499 42.164 76.5483 42.138 76.5715C42.112 76.5951 42.1104 76.6351 42.1336 76.6611C42.4656 76.9743 42.9064 77.1475 43.3632 77.1435Z" fill="#263238"/>
<path d="M50.8036 122.786C50.7672 132.656 49.258 162.346 49.258 162.346H46.4448C46.4448 162.346 44.7924 150.287 44.964 139.686C45.026 135.849 45.3652 132.918 45.4004 130.642C45.464 126.536 42.3288 112.472 42.3288 112.472L50.8312 113.512C50.8316 113.511 50.812 120.457 50.8036 122.786Z" fill="#CE7A63"/>
<path opacity="0.2" d="M50.6684 129.406C50.724 127.546 50.7652 125.854 50.7868 124.42L44.6376 124.14C45.032 126.478 45.3352 128.65 45.392 130.07C45.392 130.07 47.6904 130.452 50.6684 129.406Z" fill="black"/>
<path d="M49.0788 161.601L46.352 161.598C46.234 161.6 46.1492 161.683 46.1476 161.799L45.7184 164.42C45.7144 164.648 45.9028 164.87 46.1392 164.919C46.1696 164.925 46.2 164.928 46.2296 164.928C47.3536 164.889 48.3436 164.81 49.7484 164.788C51.406 164.76 51.0272 164.966 52.982 164.96C54.1592 164.956 54.0916 163.613 53.58 163.556C51.2408 163.307 50.8588 162.621 49.8072 161.818C49.5828 161.664 49.3236 161.587 49.0788 161.601Z" fill="#263238"/>
<path d="M41.3288 123.512L35.9964 162.481H33.244C33.244 162.481 32.3164 151.126 33.0156 141.387C33.2756 137.766 33.9992 134.557 34.382 132.3C35.1816 127.586 35.0388 112.337 35.0388 112.337L42.3868 113.532L41.3288 123.512Z" fill="#CE7A63"/>
<path opacity="0.2" d="M40.482 129.929L41.4064 121.562L35.0892 121.274C35.0152 124.082 34.89 126.82 34.6804 128.716C35.9788 129.017 38.2048 129.64 40.482 129.929Z" fill="black"/>
<path d="M35.9032 161.601L33.1764 161.598C33.0584 161.6 32.972 161.683 32.9684 161.799L32.4932 164.42C32.4852 164.648 32.6696 164.87 32.9052 164.919C32.9356 164.925 32.9656 164.928 32.9956 164.928C34.1204 164.889 35.1116 164.81 36.5168 164.788C38.1748 164.76 37.7924 164.966 39.7472 164.96C40.9244 164.956 40.8804 163.613 40.37 163.556C38.0352 163.307 37.6652 162.621 36.6276 161.818C36.406 161.664 36.1484 161.587 35.9032 161.601Z" fill="#263238"/>
<path d="M38.6676 81.3177L39.4584 81.0645L41.5232 82.5005H42.28L42.9168 82.2185L43.6548 81.4813L44.3912 81.7825L44.9192 83.8113V84.4301L45.1428 85.1765L45.7928 87.6881L46.284 90.9281V93.3669L46.102 95.9881L45.4104 94.6229L43.4628 90.9825L41.8428 86.3957L41.3696 84.7941L40.132 83.4937L39.1672 81.8453L38.6676 81.3177Z" fill="#407BFF"/>
<path d="M38.6676 81.3177L39.4584 81.0645L41.5232 82.5005H42.28L42.9168 82.2185L43.6548 81.4813L44.3912 81.7825L44.9192 83.8113V84.4301L45.1428 85.1765L45.7928 87.6881L46.284 90.9281V93.3669L46.102 95.9881L45.4104 94.6229L43.4628 90.9825L41.8428 86.3957L41.3696 84.7941L40.132 83.4937L39.1672 81.8453L38.6676 81.3177Z" fill="#407BFF"/>
<path opacity="0.5" d="M38.6676 81.3177L39.4584 81.0645L41.5232 82.5005H42.28L42.9168 82.2185L43.6548 81.4813L44.3912 81.7825L44.9192 83.8113V84.4301L45.1428 85.1765L45.7928 87.6881L46.284 90.9281V93.3669L46.102 95.9881L45.4104 94.6229L43.4628 90.9825L41.8428 86.3957L41.3696 84.7941L40.132 83.4937L39.1672 81.8453L38.6676 81.3177Z" fill="white"/>
<path d="M36.2048 102.65C36.2048 102.65 34.174 108.214 34.084 111.62C33.9984 114.858 34.3488 118.627 34.2948 121.664C34.2368 124.936 33.778 127.36 33.778 127.36C33.778 127.36 44.7348 130.842 51.8532 127.785C51.8532 127.785 52.7512 116.309 50.1768 102.65L45.1424 102.92L36.2048 102.65Z" fill="#263238"/>
<path d="M35.1156 83.3376L37.584 96.2944C37.584 96.2944 36.1636 100.162 34.8532 105.568C34.8532 105.568 42.4604 108.095 44.682 106.987C45.3928 106.633 46.2108 104.202 46.2108 104.202C46.2108 104.202 47.49 106.776 48.3404 106.987C49.04 107.162 50.9616 105.786 50.9616 105.786C50.9616 105.786 50.0628 99.9768 48.9564 96.006L49.4908 91.62C49.4908 91.62 50.534 89.176 48.5332 84.8344L47.9572 83.0804C47.8808 82.8476 47.7188 82.6516 47.502 82.5372C46.9192 82.2296 45.616 81.6204 43.8364 81.2444C43.8364 81.2444 46.6216 87.876 45.9664 94.3764C45.9664 94.3764 43.236 84.7392 38.8744 81.064C38.8744 81.064 37.2556 81.1756 35.7592 82.0328C35.298 82.2968 35.0408 82.8128 35.1156 83.3376Z" fill="#407BFF"/>
<path d="M38.8736 81.0643L39.4768 80.5347C39.4768 80.5347 41.1148 82.3283 42.2072 82.2687C43.2992 82.2091 43.0808 80.7531 43.0808 80.7531L43.836 81.2447L44.1728 81.5539L44.0916 83.4935C44.0916 83.4935 43.1352 82.3731 42.5708 82.5367C42.0064 82.7007 41.5228 83.9019 41.5228 83.9019C41.5228 83.9019 40.254 83.1951 38.8736 81.0643Z" fill="#407BFF"/>
<path opacity="0.8" d="M38.8736 81.0643L39.4768 80.5347C39.4768 80.5347 41.1148 82.3283 42.2072 82.2687C43.2992 82.2091 43.0808 80.7531 43.0808 80.7531L43.836 81.2447L44.1728 81.5539L44.0916 83.4935C44.0916 83.4935 43.1352 82.3731 42.5708 82.5367C42.0064 82.7007 41.5228 83.9019 41.5228 83.9019C41.5228 83.9019 40.254 83.1951 38.8736 81.0643Z" fill="white"/>
<path d="M46.1568 96.3334C46.1568 96.3334 46.7208 92.9478 46.6116 85.4854L45.1428 84.6846L46.0656 84.4298C46.0656 84.4298 45.2172 82.5102 44.4704 81.3946C44.2656 81.3418 44.0556 81.291 43.8356 81.2446C43.8356 81.2446 46.6208 89.0234 45.9656 95.5238C45.9656 95.5238 43.2352 84.7394 38.8736 81.0642C38.8736 81.0642 38.6676 81.079 38.3384 81.1354C38.8916 81.7174 39.964 83.1062 39.9892 85.1582H41.1616L40.2052 86.0318L46.1568 96.3334Z" fill="#407BFF"/>
<path opacity="0.2" d="M46.1568 96.3334C46.1568 96.3334 47.1452 93.3722 47.036 85.9098L45.1428 84.6846L46.49 84.4298C46.49 84.4298 45.2172 82.5102 44.4704 81.3946C44.2656 81.3418 44.0556 81.291 43.8356 81.2446C43.8356 81.2446 46.6208 89.0234 45.9656 95.5238C45.9656 95.5238 43.2352 84.7394 38.8736 81.0642C38.8736 81.0642 38.6676 81.079 38.3384 81.1354C38.8916 81.7174 39.1152 83.1062 39.1404 85.1582H41.1616L39.7808 86.8806L46.1568 96.3334Z" fill="black"/>
<path d="M43.9524 101.488L50.1604 101.327C50.3972 101.321 50.604 101.124 50.6228 100.886L51.3776 91.3396C51.3964 91.1024 51.2196 90.9148 50.9832 90.9208L44.7752 91.0812C44.5384 91.0872 44.3316 91.2848 44.3128 91.522L43.558 101.069C43.5392 101.306 43.7156 101.494 43.9524 101.488Z" fill="#263238"/>
<path d="M47.0756 91.7776L48.562 91.7392C48.858 91.7316 49.1168 91.4848 49.1404 91.188L49.21 90.3083L46.652 90.3744L46.5824 91.254C46.5592 91.5508 46.78 91.7852 47.0756 91.7776Z" fill="#263238"/>
<path opacity="0.7" d="M47.0756 91.7776L48.562 91.7392C48.858 91.7316 49.1168 91.4848 49.1404 91.188L49.21 90.3083L46.652 90.3744L46.5824 91.254C46.5592 91.5508 46.78 91.7852 47.0756 91.7776Z" fill="white"/>
<path d="M44.49 91.1197L44.7824 91.1121C44.5456 91.1181 44.3388 91.3157 44.32 91.5529L43.5652 101.1C43.5464 101.337 43.7232 101.525 43.96 101.518L43.6676 101.526C43.4308 101.532 43.2544 101.345 43.2732 101.107L44.028 91.5605C44.0464 91.3229 44.2536 91.1257 44.49 91.1197Z" fill="#263238"/>
<path opacity="0.7" d="M44.49 91.1197L44.7824 91.1121C44.5456 91.1181 44.3388 91.3157 44.32 91.5529L43.5652 101.1C43.5464 101.337 43.7232 101.525 43.96 101.518L43.6676 101.526C43.4308 101.532 43.2544 101.345 43.2732 101.107L44.028 91.5605C44.0464 91.3229 44.2536 91.1257 44.49 91.1197Z" fill="white"/>
<path d="M40.7564 98.9027C42.0688 98.8187 42.99 98.6215 42.99 98.6215L44.4044 98.7743C44.4044 98.7743 46.1348 99.1459 46.5068 98.7743C46.9528 98.3283 46.9036 96.7419 46.5068 96.2515C46.1564 95.8187 44.328 95.7883 44.328 95.7883L42.732 96.6339C42.732 96.6339 41.9048 96.7843 40.7828 96.7947L40.7564 98.9027Z" fill="#CE7A63"/>
<path d="M40.9856 99.0843C37.7284 99.2927 31.6352 98.8047 31.6424 92.8799C31.646 89.8287 33.166 81.5899 36.3768 81.9211C39.5876 82.2523 34.9624 85.5763 34.9624 92.4579C34.9624 96.3995 38.6436 96.5399 41.0116 96.5175L40.9856 99.0843Z" fill="#407BFF"/>
<path opacity="0.1" d="M40.9856 99.0843C37.7284 99.2927 31.6352 98.8047 31.6424 92.8799C31.646 89.8287 33.166 81.5899 36.3768 81.9211C39.5876 82.2523 34.9624 85.5763 34.9624 92.4579C34.9624 96.3995 38.6436 96.5399 41.0116 96.5175L40.9856 99.0843Z" fill="black"/>
<path d="M38.8732 75.7491C38.8732 75.7491 40.0044 74.9975 39.4584 72.7563C39.4584 72.7563 41.234 72.2835 41.5228 70.9751C41.5228 70.9751 41.8428 72.1095 42.4816 71.9843C43.1204 71.8591 42.4816 70.7631 42.4816 70.7631C42.4816 70.7631 43.49 71.7699 44.0044 71.6827C44.5188 71.5951 44.0044 70.7631 44.0044 70.7631C44.0044 70.7631 44.4568 71.7451 45.0088 71.5683C45.5604 71.3915 44.7772 70.4991 44.7772 70.4991C44.7772 70.4991 45.4928 71.5147 45.6504 71.0339C45.808 70.5527 43.7424 68.3235 40.85 68.7123C40.85 68.7123 37.2856 68.1819 36.3308 71.7887C36.3308 71.7887 34.8132 72.7799 35.5636 75.1383C35.5636 75.1383 39.2268 75.8287 38.8732 75.7491Z" fill="#263238"/>
<path d="M37.6208 75.9471C37.8028 76.4083 38.1608 76.7779 38.616 76.9751C39.2212 77.2311 39.6068 76.7111 39.5092 76.0959C39.4216 75.5443 39.0008 74.7435 38.3588 74.7471C37.8916 74.7643 37.5268 75.1567 37.544 75.6243C37.548 75.7359 37.5744 75.8459 37.6208 75.9471Z" fill="#CE7A63"/>
<path d="M152.11 53.7843C152.11 50.5467 148.92 47.9219 144.986 47.9219C141.051 47.9219 137.861 50.5467 137.861 53.7843C137.861 57.0219 141.051 59.6467 144.986 59.6467C145.379 59.6467 145.765 59.6195 146.141 59.5687L149.046 61.0739L148.759 58.7559C150.771 57.7199 152.11 55.8811 152.11 53.7843Z" fill="#407BFF"/>
<path opacity="0.5" d="M152.11 53.7843C152.11 50.5467 148.92 47.9219 144.986 47.9219C141.051 47.9219 137.861 50.5467 137.861 53.7843C137.861 57.0219 141.051 59.6467 144.986 59.6467C145.379 59.6467 145.765 59.6195 146.141 59.5687L149.046 61.0739L148.759 58.7559C150.771 57.7199 152.11 55.8811 152.11 53.7843Z" fill="white"/>
<path d="M147.262 54.0963C147.262 52.8911 146.276 51.9159 145.066 51.9351C143.977 51.9523 142.971 52.9447 142.94 54.0331C142.919 54.7483 143.247 55.3871 143.766 55.7947C144.056 56.0227 144.258 56.3443 144.314 56.7095L144.322 56.7587C144.361 57.0159 144.582 57.2059 144.843 57.2059H145.357C145.617 57.2059 145.838 57.0159 145.878 56.7587L145.886 56.7087C145.941 56.3499 146.133 56.0275 146.42 55.8055C146.932 55.4107 147.262 54.7927 147.262 54.0963Z" fill="white"/>
<path d="M145.219 58.1236H144.982C144.664 58.1236 144.403 57.8632 144.403 57.5448C144.403 57.4436 144.485 57.3616 144.586 57.3616H145.615C145.716 57.3616 145.798 57.4436 145.798 57.5448C145.798 57.8628 145.538 58.1236 145.219 58.1236Z" fill="#407BFF"/>
<path opacity="0.2" d="M145.219 58.1236H144.982C144.664 58.1236 144.403 57.8632 144.403 57.5448C144.403 57.4436 144.485 57.3616 144.586 57.3616H145.615C145.716 57.3616 145.798 57.4436 145.798 57.5448C145.798 57.8628 145.538 58.1236 145.219 58.1236Z" fill="white"/>
<path d="M145.718 55.8355L145.494 55.7743L145.778 54.7271L145.505 54.8895L145.478 54.5607L145.1 54.8391L144.723 54.5607L144.696 54.8895L144.422 54.7271L144.708 55.7743L144.483 55.8355L144.047 54.2331L144.495 54.4995L144.526 54.1267L145.1 54.5503L145.675 54.1267L145.706 54.4995L146.154 54.2331L145.718 55.8355Z" fill="#407BFF"/>
<g opacity="0.5">
<path d="M145.718 55.8355L145.494 55.7743L145.778 54.7271L145.505 54.8895L145.478 54.5607L145.1 54.8391L144.723 54.5607L144.696 54.8895L144.422 54.7271L144.708 55.7743L144.483 55.8355L144.047 54.2331L144.495 54.4995L144.526 54.1267L145.1 54.5503L145.675 54.1267L145.706 54.4995L146.154 54.2331L145.718 55.8355Z" fill="white"/>
</g>
<path d="M145.233 49.6487H144.968V51.4643H145.233V49.6487Z" fill="white"/>
<path d="M149.64 54.0547H147.824V54.3203H149.64V54.0547Z" fill="white"/>
<path d="M142.377 54.0547H140.562V54.3203H142.377V54.0547Z" fill="white"/>
<path d="M148.215 50.8846L146.931 52.1685L147.119 52.3563L148.403 51.0725L148.215 50.8846Z" fill="white"/>
<path d="M143.08 56.0197L141.796 57.3035L141.984 57.4913L143.267 56.2075L143.08 56.0197Z" fill="white"/>
<path d="M147.122 56.0268L146.934 56.2146L148.218 57.4984L148.406 57.3106L147.122 56.0268Z" fill="white"/>
<path d="M141.986 50.8891L141.798 51.0769L143.082 52.3607L143.269 52.1729L141.986 50.8891Z" fill="white"/>
<path d="M39.7196 56.6591C39.7196 52.4367 43.8792 49.0139 49.0104 49.0139C54.1416 49.0139 58.3012 52.4367 58.3012 56.6591C58.3012 60.8815 54.1416 64.3043 49.0104 64.3043C48.4972 64.3043 47.9944 64.2687 47.504 64.2027L44.5148 66.1655L44.0892 63.1427C41.4656 61.7911 39.7196 59.3935 39.7196 56.6591Z" fill="#407BFF"/>
<path opacity="0.5" d="M39.7196 56.6591C39.7196 52.4367 43.8792 49.0139 49.0104 49.0139C54.1416 49.0139 58.3012 52.4367 58.3012 56.6591C58.3012 60.8815 54.1416 64.3043 49.0104 64.3043C48.4972 64.3043 47.9944 64.2687 47.504 64.2027L44.5148 66.1655L44.0892 63.1427C41.4656 61.7911 39.7196 59.3935 39.7196 56.6591Z" fill="white"/>
<path d="M46.0416 57.0663C46.0416 55.4947 47.328 54.2231 48.9056 54.2479C50.3256 54.2703 51.6376 55.5647 51.678 56.9839C51.7044 57.9167 51.2772 58.7495 50.6008 59.2807C50.222 59.5783 49.9588 59.9975 49.8856 60.4735L49.8756 60.5379C49.824 60.8735 49.5352 61.1211 49.1956 61.1211H48.5252C48.1856 61.1211 47.8968 60.8735 47.8452 60.5379L47.8352 60.4727C47.7632 60.0047 47.5128 59.5843 47.138 59.2951C46.4716 58.7803 46.0416 57.9739 46.0416 57.0663Z" fill="white"/>
<path d="M48.6976 62.3175H49.0232C49.434 62.3175 49.77 61.9815 49.77 61.5707V61.5599C49.77 61.4291 49.664 61.3235 49.5336 61.3235H48.1868C48.0564 61.3235 47.9504 61.4295 47.9504 61.5599V61.5707C47.9508 61.9815 48.2868 62.3175 48.6976 62.3175Z" fill="#407BFF"/>
<path opacity="0.2" d="M48.6976 62.3175H49.0232C49.434 62.3175 49.77 61.9815 49.77 61.5707V61.5599C49.77 61.4291 49.664 61.3235 49.5336 61.3235H48.1868C48.0564 61.3235 47.9504 61.4295 47.9504 61.5599V61.5707C47.9508 61.9815 48.2868 62.3175 48.6976 62.3175Z" fill="white"/>
<path d="M48.0552 59.3343L48.348 59.2543L47.9764 57.8887L48.3328 58.1003L48.3684 57.6719L48.8604 58.0343L49.3524 57.6719L49.388 58.1003L49.7444 57.8887L49.3728 59.2543L49.6656 59.3343L50.234 57.2447L49.6504 57.5919L49.6096 57.1055L48.8604 57.6579L48.1112 57.1055L48.0708 57.5919L47.4868 57.2447L48.0552 59.3343Z" fill="#407BFF"/>
<g opacity="0.5">
<path d="M48.0552 59.3343L48.348 59.2543L47.9764 57.8887L48.3328 58.1003L48.3684 57.6719L48.8604 58.0343L49.3524 57.6719L49.388 58.1003L49.7444 57.8887L49.3728 59.2543L49.6656 59.3343L50.234 57.2447L49.6504 57.5919L49.6096 57.1055L48.8604 57.6579L48.1112 57.1055L48.0708 57.5919L47.4868 57.2447L48.0552 59.3343Z" fill="white"/>
</g>
<path d="M49.0336 51.2659H48.6872V53.6335H49.0336V51.2659Z" fill="white"/>
<path d="M45.3088 57.012H42.9412V57.3584H45.3088V57.012Z" fill="white"/>
<path d="M54.7796 57.012H52.412V57.3584H54.7796V57.012Z" fill="white"/>
<path d="M44.7971 52.8732L44.5522 53.1182L46.2266 54.7921L46.4715 54.5471L44.7971 52.8732Z" fill="white"/>
<path d="M51.4936 59.569L51.2487 59.814L52.9231 61.4879L53.168 61.2429L51.4936 59.569Z" fill="white"/>
<path d="M46.2267 59.57L44.5525 61.2441L44.7975 61.4891L46.4716 59.815L46.2267 59.57Z" fill="white"/>
<path d="M52.9225 52.8754L51.2484 54.5496L51.4933 54.7945L53.1674 53.1204L52.9225 52.8754Z" fill="white"/>
<path d="M79.098 117.482C78.872 117.482 78.6888 117.299 78.6888 117.073C78.6888 116.847 78.872 116.664 79.098 116.664H90.2528C90.4788 116.664 90.662 116.847 90.662 117.073C90.662 117.299 90.4788 117.482 90.2528 117.482H79.098Z" fill="#407BFF"/>
<path opacity="0.5" d="M79.098 117.482C78.872 117.482 78.6888 117.299 78.6888 117.073C78.6888 116.847 78.872 116.664 79.098 116.664H90.2528C90.4788 116.664 90.662 116.847 90.662 117.073C90.662 117.299 90.4788 117.482 90.2528 117.482H79.098Z" fill="white"/>
<path d="M80.0452 116.774L78.5604 106.208C78.506 105.819 78.1464 105.504 77.7576 105.504H76.3348V117.478H79.44C79.8292 117.478 80.1 117.163 80.0452 116.774Z" fill="#407BFF"/>
<path opacity="0.6" d="M80.0452 116.774L78.5604 106.208C78.506 105.819 78.1464 105.504 77.7576 105.504H76.3348V117.478H79.44C79.8292 117.478 80.1 117.163 80.0452 116.774Z" fill="white"/>
<path d="M78.8264 117.478H66.2136C65.8248 117.478 65.4656 117.163 65.4108 116.774L63.926 106.208C63.8712 105.82 64.142 105.505 64.5308 105.505H77.1436C77.5324 105.505 77.8916 105.82 77.9464 106.208L79.4312 116.774C79.486 117.163 79.2152 117.478 78.8264 117.478Z" fill="#407BFF"/>
<path opacity="0.5" d="M78.8264 117.478H66.2136C65.8248 117.478 65.4656 117.163 65.4108 116.774L63.926 106.208C63.8712 105.82 64.142 105.505 64.5308 105.505H77.1436C77.5324 105.505 77.8916 105.82 77.9464 106.208L79.4312 116.774C79.486 117.163 79.2152 117.478 78.8264 117.478Z" fill="white"/>
<path opacity="0.7" d="M72.726 112.036C72.8104 112.636 72.3928 113.122 71.7928 113.122C71.1932 113.122 70.6388 112.636 70.5544 112.036C70.47 111.437 70.888 110.951 71.4876 110.951C72.0876 110.951 72.642 111.437 72.726 112.036Z" fill="white"/>
<path d="M137.257 164.961H136.212L134.866 120.092H136.248L137.257 164.961Z" fill="#263238"/>
<path opacity="0.6" d="M137.257 164.961H136.212L134.866 120.092H136.248L137.257 164.961Z" fill="white"/>
<path d="M120.395 120.092V164.961H121.502L122.804 122.142H136.158L137.135 164.961H138.231V120.092H120.395Z" fill="#263238"/>
<path opacity="0.4" d="M120.395 120.092V164.961H121.502L122.804 122.142H136.158L137.135 164.961H138.231V120.092H120.395Z" fill="white"/>
<path d="M120.395 164.961H119.35L119.013 120.092H120.395V164.961Z" fill="#263238"/>
<path opacity="0.6" d="M120.395 164.961H119.35L119.013 120.092H120.395V164.961Z" fill="white"/>
<path d="M80.498 164.961H79.4524L78.1064 120.092H79.4884L80.498 164.961Z" fill="#263238"/>
<path opacity="0.6" d="M80.498 164.961H79.4524L78.1064 120.092H79.4884L80.498 164.961Z" fill="white"/>
<path d="M63.6364 120.092V164.961H64.7432L66.0448 122.142H79.3996L80.3756 164.961H81.4716V120.092H63.6364Z" fill="#263238"/>
<path opacity="0.4" d="M63.6364 120.092V164.961H64.7432L66.0448 122.142H79.3996L80.3756 164.961H81.4716V120.092H63.6364Z" fill="white"/>
<path d="M63.6364 164.961H62.5908L62.2544 120.092H63.6364V164.961Z" fill="#263238"/>
<path opacity="0.6" d="M63.6364 164.961H62.5908L62.2544 120.092H63.6364V164.961Z" fill="white"/>
<path d="M119.533 117.512H60.4244V120.092H119.533V117.512Z" fill="#263238"/>
<path opacity="0.4" d="M119.533 117.512H60.4244V120.092H119.533V117.512Z" fill="white"/>
<path d="M140.06 117.512H117.926V120.092H140.06V117.512Z" fill="#263238"/>
<path opacity="0.3" d="M140.06 117.512H117.926V120.092H140.06V117.512Z" fill="white"/>
<path d="M128.948 117.576H114.287C113.9 117.576 113.541 117.262 113.487 116.875L112.007 106.345C111.953 105.958 112.223 105.643 112.61 105.643H127.271C127.658 105.643 128.017 105.957 128.071 106.345L129.551 116.875C129.605 117.262 129.335 117.576 128.948 117.576Z" fill="#407BFF"/>
<path opacity="0.5" d="M128.948 117.576H114.287C113.9 117.576 113.541 117.262 113.487 116.875L112.007 106.345C111.953 105.958 112.223 105.643 112.61 105.643H127.271C127.658 105.643 128.017 105.957 128.071 106.345L129.551 116.875C129.605 117.262 129.335 117.576 128.948 117.576Z" fill="white"/>
<path d="M128.03 116.003L115.003 115.943C114.646 115.943 114.316 115.653 114.266 115.297L113.108 107.347C113.058 106.989 113.306 106.7 113.664 106.7L126.691 106.761C127.048 106.761 127.378 107.05 127.428 107.407L128.586 115.357C128.636 115.714 128.387 116.003 128.03 116.003Z" fill="#263238"/>
<path d="M138.086 117.528H120.34C120.067 117.528 119.847 117.307 119.847 117.035C119.847 116.763 120.068 116.542 120.34 116.542H138.086C138.358 116.542 138.578 116.763 138.578 117.035C138.578 117.307 138.358 117.528 138.086 117.528Z" fill="#407BFF"/>
<path opacity="0.7" d="M138.086 117.528H120.34C120.067 117.528 119.847 117.307 119.847 117.035C119.847 116.763 120.068 116.542 120.34 116.542H138.086C138.358 116.542 138.578 116.763 138.578 117.035C138.578 117.307 138.358 117.528 138.086 117.528Z" fill="white"/>
<path d="M124.086 117.528H114.621C114.349 117.528 114.128 117.307 114.128 117.035C114.128 116.763 114.349 116.542 114.621 116.542H124.086C124.358 116.542 124.578 116.763 124.578 117.035C124.579 117.307 124.358 117.528 124.086 117.528Z" fill="#407BFF"/>
<path opacity="0.6" d="M124.086 117.528H114.621C114.349 117.528 114.128 117.307 114.128 117.035C114.128 116.763 114.349 116.542 114.621 116.542H124.086C124.358 116.542 124.578 116.763 124.578 117.035C124.579 117.307 124.358 117.528 124.086 117.528Z" fill="white"/>
</svg>
