<svg width="56" height="57" viewBox="0 0 56 57" fill="none" xmlns="http://www.w3.org/2000/svg">
<g clip-path="url(#clip0_1061_68437)">
<path d="M29.3473 30.6456C29.4711 22.4618 29.2304 14.2779 29.3611 6.09409C29.3817 4.76679 27.3186 4.76679 27.2979 6.09409C27.1741 14.2779 27.4149 22.4618 27.2842 30.6456C27.2636 31.9729 29.3267 31.9729 29.3473 30.6456Z" fill="#011C67"/>
<path d="M41.7469 20.4604C39.3537 18.6792 36.1283 18.3835 33.4255 19.6077C32.1189 20.1991 30.9979 21.1481 30.1589 22.3104C29.5399 23.1632 28.5221 25.0131 29.4299 25.9415C30.6746 27.207 32.6003 28.1629 34.3402 28.4173C36.8641 28.7887 39.0029 27.6265 40.454 25.6046C41.2861 24.4492 41.9188 23.0187 42.2214 21.6227C42.5034 20.3298 40.5159 19.7727 40.2339 21.0725C40.1377 21.5058 40.0001 21.9253 39.8488 22.3379C39.6975 22.7437 39.6219 22.9293 39.3812 23.4039C39.1611 23.8302 38.886 24.291 38.6109 24.6555C37.9782 25.4808 37.1254 26.1547 36.0732 26.3679C34.911 26.6086 33.6937 26.2373 32.6759 25.694C32.1739 25.4258 31.6925 25.1163 31.2386 24.7724C31.3899 24.8893 31.2248 24.7587 31.1698 24.7174C31.1148 24.6761 31.0666 24.628 31.0116 24.5867C30.9566 24.5455 30.9085 24.4973 30.8603 24.4492C30.9635 24.6899 31.0598 24.9375 31.1629 25.1782C31.2867 23.3145 33.3086 21.7533 34.9454 21.2238C36.9398 20.5773 39.0442 21.0106 40.7153 22.2485C41.1624 22.5786 41.8638 22.3241 42.1252 21.8771C42.4209 21.3476 42.1939 20.7905 41.7469 20.4604Z" fill="#011C67"/>
<path d="M19.3823 17.9503C20.5239 17.1045 21.8718 16.8362 23.1923 17.2626C24.1894 17.5859 25.5511 18.6037 25.6199 19.7453C25.7231 19.5046 25.8193 19.257 25.9225 19.0163C25.8331 19.0988 25.7368 19.1745 25.6474 19.257C25.5305 19.3602 25.8469 19.1126 25.6405 19.257C25.5855 19.2983 25.5305 19.3395 25.4686 19.3808C25.3104 19.4908 25.1523 19.594 24.9872 19.6903C24.829 19.7866 24.664 19.876 24.4989 19.9516C24.4577 19.9722 24.1895 20.0892 24.3339 20.0273C24.2238 20.0685 24.1069 20.1098 23.9969 20.151C23.7975 20.2129 23.5911 20.268 23.3848 20.3023C23.206 20.3299 23.5155 20.2955 23.3367 20.3092C23.2817 20.3161 23.2266 20.3161 23.1716 20.323C23.041 20.3299 22.9172 20.3299 22.7865 20.323C22.7315 20.323 22.6765 20.3161 22.6215 20.3092C22.649 20.3161 22.7315 20.3299 22.6146 20.3023C22.4839 20.2748 22.3464 20.2405 22.2226 20.1992C22.1607 20.1786 21.9681 20.096 22.1263 20.1648C22.03 20.1167 21.9337 20.0685 21.8443 20.0204C21.7549 19.9654 21.6655 19.9103 21.583 19.8485C21.4248 19.7453 21.6518 19.9241 21.5142 19.7934C21.3629 19.649 21.2185 19.5183 21.081 19.3602C21.0259 19.2983 20.9709 19.2295 20.9159 19.1607C21.0259 19.2983 20.9159 19.1539 20.8746 19.092C20.7646 18.9338 20.6614 18.7687 20.5652 18.5968C20.4895 18.4593 20.4139 18.3148 20.3451 18.1773C20.3038 18.1016 20.2694 18.0191 20.2351 17.9366C20.1319 17.7165 20.2763 18.0466 20.2144 17.8885C20.0769 17.524 19.9393 17.1595 19.8568 16.7812C19.7399 16.2379 19.1072 15.9216 18.5845 16.0591C18.0206 16.2173 17.7455 16.7881 17.8693 17.3314C18.4057 19.7866 20.2351 22.3517 22.9584 22.3861C24.5402 22.4068 26.0394 21.6159 27.2154 20.6187C27.3461 20.5087 27.4561 20.4124 27.5455 20.2611C27.91 19.6353 27.5318 18.6931 27.2292 18.1154C26.7615 17.2076 25.9775 16.4442 25.1247 15.9078C23.0685 14.6149 20.297 14.7112 18.3438 16.1623C17.8968 16.4924 17.6699 17.0563 17.9725 17.5721C18.2269 18.0191 18.9284 18.2805 19.3823 17.9503Z" fill="#011C67"/>
<path d="M36.534 8.44615C34.9866 7.56587 33.0129 7.54524 31.4861 8.48741C30.7709 8.92756 30.1451 9.55338 29.7325 10.2961C29.533 10.6606 29.368 11.0595 29.2992 11.4652C29.196 12.0842 29.2236 12.6481 29.7806 13.0401C30.6471 13.6522 31.7612 14.058 32.8272 14.0786C34.3264 14.1061 35.5987 13.2258 36.2864 11.926C36.7128 11.1283 36.9673 10.2342 37.0498 9.33331C37.0979 8.79689 36.5409 8.2811 36.0182 8.30173C35.4199 8.32924 35.0417 8.75563 34.9866 9.33331C34.966 9.58089 35.0417 9.01008 34.9935 9.29205C34.966 9.46398 34.9316 9.64278 34.8904 9.81471C34.8353 10.0485 34.7597 10.2824 34.6772 10.5093C34.6634 10.5437 34.5671 10.7707 34.6428 10.6125C34.7184 10.4474 34.6084 10.6812 34.5946 10.7156C34.5327 10.8463 34.4571 10.9838 34.3814 11.1076C34.3471 11.1627 34.3127 11.2177 34.2783 11.2727C34.2852 11.2658 34.2026 11.3758 34.2026 11.3758C34.2026 11.369 34.3402 11.2177 34.2645 11.2933C34.1614 11.4102 34.0651 11.5271 33.9482 11.6303C33.9138 11.6578 33.8794 11.6853 33.845 11.7197C33.7625 11.8022 33.9207 11.6509 33.9207 11.6647C33.9207 11.6784 33.7694 11.7678 33.7487 11.7747C33.68 11.816 33.6043 11.8435 33.5355 11.8916C33.4599 11.9467 33.5768 11.8779 33.5906 11.871C33.5218 11.8916 33.4599 11.9191 33.3911 11.9398C33.3086 11.9604 33.2261 11.9742 33.1504 12.0017C33.006 12.0429 33.3292 11.9948 33.1848 12.0017C33.1436 12.0017 33.1023 12.0085 33.061 12.0085C32.9923 12.0154 32.5246 11.9673 32.504 11.9948C32.5108 11.9879 32.7034 12.0292 32.5865 12.0017C32.5384 11.9879 32.4833 11.981 32.4352 11.9742C32.3596 11.9604 32.2908 11.9398 32.2151 11.9191C32.0432 11.871 31.8713 11.8091 31.6993 11.7541C31.5343 11.6922 31.8781 11.8435 31.6718 11.7403C31.5962 11.706 31.5274 11.6716 31.4518 11.6372C31.3348 11.5822 31.2248 11.5134 31.1148 11.4515C31.0047 11.3896 30.8947 11.3208 30.7915 11.2452C30.9635 11.5409 31.1354 11.8366 31.3005 12.1392C31.2936 12.0567 31.3005 11.9742 31.3005 11.8916C31.2936 11.7541 31.2592 12.0017 31.3073 11.871C31.3348 11.7954 31.3486 11.706 31.3761 11.6303C31.3967 11.5684 31.4243 11.4928 31.383 11.5959C31.4449 11.4515 31.5205 11.3208 31.6031 11.1902C31.6306 11.142 31.665 11.0939 31.6993 11.0457C31.7131 11.0251 31.8575 10.8394 31.775 10.9357C31.6925 11.0389 31.8644 10.8394 31.8644 10.8394C31.9057 10.7982 31.9469 10.7569 31.9882 10.7087C32.0776 10.6125 32.1807 10.5299 32.277 10.4405C32.3596 10.358 32.1532 10.5231 32.3114 10.413C32.3596 10.3786 32.4077 10.3443 32.4558 10.3167C32.5796 10.2342 32.7034 10.1654 32.8341 10.0967C32.8891 10.0692 32.9372 10.0485 32.9923 10.021C32.8616 10.0829 32.9441 10.0417 33.0335 10.0142C33.1642 9.96601 33.2948 9.93163 33.4255 9.89724C33.4874 9.88349 33.5493 9.86973 33.6112 9.85598C33.8932 9.80096 33.508 9.8491 33.6662 9.8491C33.8106 9.8491 33.9551 9.82847 34.0995 9.83534C34.182 9.83534 34.2577 9.84222 34.3402 9.8491C34.3814 9.85598 34.5946 9.89036 34.3952 9.8491C34.5396 9.87661 34.6772 9.90412 34.8147 9.9385C34.9523 9.97977 35.0898 10.021 35.2205 10.076C35.1242 10.0348 35.1654 10.0554 35.2342 10.0898C35.3167 10.1311 35.4061 10.1792 35.4887 10.2273C35.9563 10.4956 36.6372 10.3511 36.8985 9.85598C37.1667 9.3677 37.036 8.72812 36.534 8.44615Z" fill="#011C67"/>
<path d="M40.2064 29.8615C40.2064 29.8547 40.2064 29.8547 40.2064 29.8478C40.172 29.8478 40.1102 29.8478 40.0276 29.8478C39.3537 29.8478 37.036 29.8478 34.1683 29.8478C27.8619 29.8478 22.3326 29.8478 22.3326 29.8478C19.5611 29.8478 16.3288 29.8478 16.2944 29.8478C16.2944 29.8547 16.2944 29.8547 16.2944 29.8615C15.5311 29.9234 14.5751 30.3911 14.5751 31.4364C14.5751 32.5643 14.5751 34.6962 14.5751 35.3977C14.5751 36.7456 16.1156 36.3536 16.2257 37.0345C16.652 39.6409 18.055 47.1371 18.3232 48.3062C18.5914 49.4959 18.7977 51.0777 20.2763 51.0777C20.7302 51.0777 34.8491 51.0777 36.1558 51.0777C37.4624 51.0777 37.6275 49.6885 37.9713 48.3062C38.3083 46.9239 39.7869 39.8128 40.2821 37.0345C40.399 36.3605 41.9326 36.7456 41.9326 35.3977C41.9326 34.7031 41.9326 32.5643 41.9326 31.4364C41.9326 30.3911 40.9767 29.9234 40.2064 29.8615Z" fill="#9A9EF5"/>
<path d="M20.0357 38.2174C25.3862 38.1143 30.7366 38.073 36.0871 38.0936C37.4144 38.1005 37.4144 36.0374 36.0871 36.0305C30.7366 36.0099 25.3862 36.0511 20.0357 36.1543C18.7084 36.1818 18.7084 38.2449 20.0357 38.2174Z" fill="#011C67"/>
<path d="M21.3079 52.0268C24.609 52.1438 27.9169 52.1781 31.2179 52.1231C32.7791 52.0956 34.3471 52.1094 35.9013 51.9856C37.2286 51.8824 38.1914 51.3529 38.7072 50.0737C39.3124 48.5676 39.5256 46.8414 39.8626 45.2528C40.2271 43.5198 40.5915 41.7798 40.9354 40.0399C41.1967 38.7401 39.2092 38.1899 38.9479 39.4897C38.3427 42.5157 37.7788 45.5692 37.0223 48.5539C36.9329 48.9046 36.8435 49.5167 36.5271 49.7574C36.1145 50.0668 35.2755 49.9362 34.8078 49.9568C33.3292 50.0118 31.8438 50.0462 30.3652 50.06C27.3461 50.0944 24.327 50.0531 21.3079 49.9499C19.9806 49.9224 19.9806 51.9856 21.3079 52.0268Z" fill="#011C67"/>
</g>
<defs>
<clipPath id="clip0_1061_68437">
<rect width="56" height="56" fill="white" transform="translate(0 0.885284)"/>
</clipPath>
</defs>
</svg>
