<svg width="56" height="57" viewBox="0 0 56 57" fill="none" xmlns="http://www.w3.org/2000/svg">
<g clip-path="url(#clip0_1061_68450)">
<path d="M12.048 44.3004C12.1033 42.8691 12.0203 42.8138 12.2278 41.3962C12.4768 39.709 12.5597 38.409 13.6453 36.9846C14.7655 35.5118 16.1554 34.758 18.2437 34.3501C19.3915 34.1288 21.5559 33.7347 22.6483 33.3681C23.7409 33.0017 25.4696 31.6395 23.7685 29.731C22.1367 27.9055 20.325 25.2779 20.3596 21.938C20.3803 19.836 21.134 17.7477 22.676 16.1711C25.2829 13.502 29.7291 12.4371 33.4077 13.6956C39.5066 15.7839 39.2299 24.4067 35.8349 27.5459C33.7327 29.489 32.3982 30.215 32.4743 31.3491C32.5503 32.483 33.1657 33.133 34.3412 33.5479C35.1641 33.8383 36.07 33.8245 36.9343 33.9767C39.6448 34.4469 43.6831 36.0787 44.1326 38.5542C44.6304 41.2925 44.6996 42.4818 44.6374 44.2935L12.048 44.3004Z" fill="#9A9EF5"/>
<path d="M17.6765 33.0163C17.1373 32.8435 16.5909 32.6983 16.0447 32.5807C15.6368 32.4978 15.2219 32.4217 14.8623 32.1935C14.5027 31.9653 14.2053 31.5366 14.2123 31.0595C14.2261 30.4855 14.6548 30.0707 15.0213 29.6766C15.9479 28.667 16.6325 27.3117 16.7638 25.8458C16.8952 24.3798 16.4111 22.8171 15.4017 21.9182C14.482 21.1023 13.2234 20.9086 12.0964 21.2059" stroke="#011C67" stroke-width="2.38959" stroke-miterlimit="10" stroke-linecap="round" stroke-linejoin="round"/>
<path d="M12.7326 21.1576C11.2805 21.2543 9.85603 22.1602 9.09543 23.5985C8.3348 25.0367 8.31405 26.9867 9.12308 28.3834C9.35819 28.7915 9.65552 29.151 9.89061 29.559C10.1188 29.9738 10.2848 30.4718 10.1949 30.9488C10.105 31.4467 9.76616 31.8478 9.37893 32.0829C8.9917 32.318 8.55607 32.4217 8.12044 32.5324C7.09014 32.7951 5.99761 33.1478 5.30612 34.0743C4.55241 35.0839 4.4487 36.5222 4.41412 37.8567C4.41412 37.9743 4.41412 38.1056 4.49019 38.1817C4.54551 38.237 4.62157 38.244 4.69071 38.244C6.44015 38.3753 8.18958 38.4238 9.93904 38.4168" stroke="#011C67" stroke-width="2.38959" stroke-miterlimit="10" stroke-linecap="round" stroke-linejoin="round"/>
<path d="M46.6842 38.0641C48.3368 37.988 49.9893 37.8843 51.642 37.7875C51.7319 37.7806 51.8218 37.7737 51.884 37.7045C51.9393 37.6423 51.9532 37.5524 51.9601 37.4694C52.0362 36.7987 52.1122 36.1141 52.0431 35.4434C51.9739 34.7658 51.7458 34.095 51.2893 33.6248C50.8607 33.1822 50.2798 32.9748 49.7198 32.8019C49.1458 32.6291 48.565 32.4838 47.9841 32.3663C47.5554 32.2833 47.1128 32.2073 46.7256 31.9791C46.3453 31.7509 46.0272 31.3222 46.0411 30.8451C46.0549 30.2711 46.5181 29.8562 46.8984 29.4621C47.8873 28.4525 48.6133 27.0972 48.7448 25.6313C48.8761 24.1654 48.3713 22.6027 47.2996 21.7037C46.3246 20.8878 44.99 20.6941 43.7868 20.9915" stroke="#011C67" stroke-width="2.38959" stroke-miterlimit="10" stroke-linecap="round" stroke-linejoin="round"/>
<path d="M44.4783 20.9431C42.9293 21.04 41.4219 21.9458 40.6129 23.384C39.8039 24.8223 39.7762 26.7723 40.6406 28.1691C40.8895 28.577 41.2076 28.9366 41.4565 29.3446C41.7055 29.7525 41.8714 30.2573 41.7815 30.7345C41.6916 31.2323 41.3252 31.6333 40.9172 31.8684C40.5092 32.1035 40.039 32.2073 39.5826 32.3179" stroke="#011C67" stroke-width="2.38959" stroke-miterlimit="10" stroke-linecap="round" stroke-linejoin="round"/>
</g>
<defs>
<clipPath id="clip0_1061_68450">
<rect width="56" height="56" fill="white" transform="translate(0 0.885284)"/>
</clipPath>
</defs>
</svg>
